<?xml version="1.0" encoding="UTF-8" standalone="no"?>
<!DOCTYPE svg PUBLIC "-//W3C//DTD SVG 1.1//EN"
 "http://www.w3.org/Graphics/SVG/1.1/DTD/svg11.dtd">
<!-- Generated by graphviz version 2.43.0 (0)
 -->
<!-- Title: G Pages: 1 -->
<svg width="1785pt" height="2700pt"
 viewBox="0.00 0.00 1785.16 2700.00" xmlns="http://www.w3.org/2000/svg" xmlns:xlink="http://www.w3.org/1999/xlink">
<g id="graph0" class="graph" transform="scale(1 1) rotate(0) translate(4 2696)">
<title>G</title>
<polygon fill="white" stroke="transparent" points="-4,4 -4,-2696 1781.16,-2696 1781.16,4 -4,4"/>
<!-- node0 -->
<g id="node1" class="node">
<title>node0</title>
<ellipse fill="none" stroke="black" cx="1063.42" cy="-1640" rx="49.29" ry="18"/>
<text text-anchor="middle" x="1063.42" y="-1636.3" font-family="Times,serif" font-size="14.00">rate.cpp</text>
</g>
<!-- node18 -->
<g id="node19" class="node">
<title>node18</title>
<ellipse fill="none" stroke="black" cx="1358.74" cy="-1602" rx="38.19" ry="18"/>
<text text-anchor="middle" x="1358.74" y="-1598.3" font-family="Times,serif" font-size="14.00">rate.h</text>
</g>
<!-- node0&#45;&gt;node18 -->
<g id="edge1" class="edge">
<title>node0&#45;&gt;node18</title>
<path fill="none" stroke="black" d="M1110.25,-1634.06C1165.04,-1626.96 1256.24,-1615.15 1311.3,-1608.02"/>
<polygon fill="black" stroke="black" points="1312.01,-1611.45 1321.48,-1606.7 1311.11,-1604.51 1312.01,-1611.45"/>
</g>
<!-- node1 -->
<g id="node2" class="node">
<title>node1</title>
<ellipse fill="none" stroke="black" cx="431.81" cy="-782" rx="77.19" ry="18"/>
<text text-anchor="middle" x="431.81" y="-778.3" font-family="Times,serif" font-size="14.00">span_data.cpp</text>
</g>
<!-- node11 -->
<g id="node12" class="node">
<title>node11</title>
<ellipse fill="none" stroke="black" cx="735.59" cy="-1008" rx="39.79" ry="18"/>
<text text-anchor="middle" x="735.59" y="-1004.3" font-family="Times,serif" font-size="14.00">tags.h</text>
</g>
<!-- node1&#45;&gt;node11 -->
<g id="edge6" class="edge">
<title>node1&#45;&gt;node11</title>
<path fill="none" stroke="black" d="M504.88,-788C520.97,-792.53 536.64,-799.96 548.15,-812 601.23,-867.5 528.98,-927.58 584.15,-981 610.9,-1006.9 653.52,-1012.52 686.58,-1012.31"/>
<polygon fill="black" stroke="black" points="687.03,-1015.8 696.95,-1012.05 686.86,-1008.8 687.03,-1015.8"/>
</g>
<!-- node20 -->
<g id="node21" class="node">
<title>node20</title>
<ellipse fill="none" stroke="black" cx="735.59" cy="-1700" rx="66.09" ry="18"/>
<text text-anchor="middle" x="735.59" y="-1696.3" font-family="Times,serif" font-size="14.00">span_data.h</text>
</g>
<!-- node1&#45;&gt;node20 -->
<g id="edge4" class="edge">
<title>node1&#45;&gt;node20</title>
<path fill="none" stroke="black" d="M506.66,-786.78C522.6,-791.36 537.76,-799.12 548.15,-812 608.29,-886.51 521.2,-1600.86 584.15,-1673 603.27,-1694.9 633.57,-1703 661.98,-1705.1"/>
<polygon fill="black" stroke="black" points="662.18,-1708.62 672.34,-1705.62 662.53,-1701.63 662.18,-1708.62"/>
</g>
<!-- node32 -->
<g id="node33" class="node">
<title>node32</title>
<ellipse fill="none" stroke="black" cx="1734.92" cy="-1609" rx="42.49" ry="18"/>
<text text-anchor="middle" x="1734.92" y="-1605.3" font-family="Times,serif" font-size="14.00">error.h</text>
</g>
<!-- node1&#45;&gt;node32 -->
<g id="edge7" class="edge">
<title>node1&#45;&gt;node32</title>
<path fill="none" stroke="black" d="M471.95,-766.54C498.11,-754.04 530.8,-733.76 548.15,-705 588.09,-638.81 529.9,-414.07 584.15,-359 734.39,-206.51 848.35,-302 1062.42,-302 1062.42,-302 1062.42,-302 1359.74,-302 1598.62,-302 1577.57,-524.6 1656.67,-750 1712.31,-908.56 1729.76,-1449.44 1733.22,-1580.31"/>
<polygon fill="black" stroke="black" points="1729.73,-1580.79 1733.49,-1590.69 1736.73,-1580.61 1729.73,-1580.79"/>
</g>
<!-- node38 -->
<g id="node39" class="node">
<title>node38</title>
<ellipse fill="none" stroke="black" cx="1063.42" cy="-532" rx="83.39" ry="18"/>
<text text-anchor="middle" x="1063.42" y="-528.3" font-family="Times,serif" font-size="14.00">span_defaults.h</text>
</g>
<!-- node1&#45;&gt;node38 -->
<g id="edge2" class="edge">
<title>node1&#45;&gt;node38</title>
<path fill="none" stroke="black" d="M471.34,-766.47C497.4,-753.89 530.21,-733.53 548.15,-705 608.86,-608.49 498.06,-525.75 584.15,-451 634.98,-406.87 821.29,-436.55 887.03,-451 938.3,-462.27 992.43,-490.03 1026.77,-509.91"/>
<polygon fill="black" stroke="black" points="1025.09,-512.99 1035.48,-515.04 1028.64,-506.95 1025.09,-512.99"/>
</g>
<!-- node54 -->
<g id="node55" class="node">
<title>node54</title>
<ellipse fill="none" stroke="black" cx="735.59" cy="-678" rx="60.39" ry="18"/>
<text text-anchor="middle" x="735.59" y="-674.3" font-family="Times,serif" font-size="14.00">msgpack.h</text>
</g>
<!-- node1&#45;&gt;node54 -->
<g id="edge5" class="edge">
<title>node1&#45;&gt;node54</title>
<path fill="none" stroke="black" d="M459.92,-765.12C489.41,-747.5 538.47,-720.35 584.15,-705 611.14,-695.93 641.93,-689.72 668.6,-685.57"/>
<polygon fill="black" stroke="black" points="669.23,-689.01 678.6,-684.08 668.19,-682.09 669.23,-689.01"/>
</g>
<!-- node60 -->
<g id="node61" class="node">
<title>node60</title>
<ellipse fill="none" stroke="black" cx="735.59" cy="-2430" rx="73.39" ry="18"/>
<text text-anchor="middle" x="735.59" y="-2426.3" font-family="Times,serif" font-size="14.00">span_config.h</text>
</g>
<!-- node1&#45;&gt;node60 -->
<g id="edge3" class="edge">
<title>node1&#45;&gt;node60</title>
<path fill="none" stroke="black" d="M506.83,-786.65C522.76,-791.23 537.88,-799.03 548.15,-812 600.44,-877.99 544.01,-2253 584.15,-2327 605.77,-2366.84 650.28,-2394.34 685.3,-2410.84"/>
<polygon fill="black" stroke="black" points="683.89,-2414.04 694.44,-2415 686.79,-2407.67 683.89,-2414.04"/>
</g>
<!-- node2 -->
<g id="node3" class="node">
<title>node2</title>
<ellipse fill="none" stroke="black" cx="735.59" cy="-164" rx="151.37" ry="18"/>
<text text-anchor="middle" x="735.59" y="-160.3" font-family="Times,serif" font-size="14.00">threaded_event_scheduler.cpp</text>
</g>
<!-- node40 -->
<g id="node41" class="node">
<title>node40</title>
<ellipse fill="none" stroke="black" cx="1063.42" cy="-218" rx="140.28" ry="18"/>
<text text-anchor="middle" x="1063.42" y="-214.3" font-family="Times,serif" font-size="14.00">threaded_event_scheduler.h</text>
</g>
<!-- node2&#45;&gt;node40 -->
<g id="edge8" class="edge">
<title>node2&#45;&gt;node40</title>
<path fill="none" stroke="black" d="M824.76,-178.61C868.65,-185.89 921.79,-194.69 966.67,-202.13"/>
<polygon fill="black" stroke="black" points="966.27,-205.61 976.71,-203.8 967.41,-198.71 966.27,-205.61"/>
</g>
<!-- node3 -->
<g id="node4" class="node">
<title>node3</title>
<ellipse fill="none" stroke="black" cx="735.59" cy="-1808" rx="87.99" ry="18"/>
<text text-anchor="middle" x="735.59" y="-1804.3" font-family="Times,serif" font-size="14.00">trace_segment.h</text>
</g>
<!-- node13 -->
<g id="node14" class="node">
<title>node13</title>
<ellipse fill="none" stroke="black" cx="1585.18" cy="-1479" rx="61.99" ry="18"/>
<text text-anchor="middle" x="1585.18" y="-1475.3" font-family="Times,serif" font-size="14.00">expected.h</text>
</g>
<!-- node3&#45;&gt;node13 -->
<g id="edge11" class="edge">
<title>node3&#45;&gt;node13</title>
<path fill="none" stroke="black" d="M823.06,-1809.54C846.43,-1805.77 869.96,-1797.51 887.03,-1781 941.92,-1727.92 873.95,-1671.5 923.03,-1613 1009.6,-1509.82 1104.41,-1589.89 1203.8,-1499 1229.62,-1475.39 1209.94,-1447.22 1239.8,-1429 1330.05,-1373.93 1374.49,-1405.98 1477.68,-1429 1502.75,-1434.59 1528.88,-1446.75 1548.99,-1457.68"/>
<polygon fill="black" stroke="black" points="1547.34,-1460.77 1557.78,-1462.59 1550.75,-1454.66 1547.34,-1460.77"/>
</g>
<!-- node21 -->
<g id="node22" class="node">
<title>node21</title>
<ellipse fill="none" stroke="black" cx="1063.42" cy="-2046" rx="104.78" ry="18"/>
<text text-anchor="middle" x="1063.42" y="-2042.3" font-family="Times,serif" font-size="14.00">sampling_decision.h</text>
</g>
<!-- node3&#45;&gt;node21 -->
<g id="edge10" class="edge">
<title>node3&#45;&gt;node21</title>
<path fill="none" stroke="black" d="M823.4,-1809.44C846.78,-1813.99 870.22,-1823.01 887.03,-1840 944.09,-1897.7 865.44,-1961.82 923.03,-2019 931.35,-2027.26 941.39,-2033.38 952.22,-2037.88"/>
<polygon fill="black" stroke="black" points="951.33,-2041.28 961.92,-2041.42 953.73,-2034.7 951.33,-2041.28"/>
</g>
<!-- node83 -->
<g id="node84" class="node">
<title>node83</title>
<ellipse fill="none" stroke="black" cx="1063.42" cy="-1862" rx="107.48" ry="18"/>
<text text-anchor="middle" x="1063.42" y="-1858.3" font-family="Times,serif" font-size="14.00">propagation_styles.h</text>
</g>
<!-- node3&#45;&gt;node83 -->
<g id="edge9" class="edge">
<title>node3&#45;&gt;node83</title>
<path fill="none" stroke="black" d="M804.5,-1819.25C854.35,-1827.52 922.43,-1838.8 976.14,-1847.7"/>
<polygon fill="black" stroke="black" points="975.89,-1851.21 986.33,-1849.39 977.04,-1844.3 975.89,-1851.21"/>
</g>
<!-- node4 -->
<g id="node5" class="node">
<title>node4</title>
<ellipse fill="none" stroke="black" cx="735.59" cy="-18" rx="139.18" ry="18"/>
<text text-anchor="middle" x="735.59" y="-14.3" font-family="Times,serif" font-size="14.00">default_http_client_null.cpp</text>
</g>
<!-- node25 -->
<g id="node26" class="node">
<title>node25</title>
<ellipse fill="none" stroke="black" cx="1063.42" cy="-64" rx="106.68" ry="18"/>
<text text-anchor="middle" x="1063.42" y="-60.3" font-family="Times,serif" font-size="14.00">default_http_client.h</text>
</g>
<!-- node4&#45;&gt;node25 -->
<g id="edge12" class="edge">
<title>node4&#45;&gt;node25</title>
<path fill="none" stroke="black" d="M830.4,-31.24C874.61,-37.49 927.16,-44.9 971.06,-51.1"/>
<polygon fill="black" stroke="black" points="970.76,-54.59 981.15,-52.53 971.74,-47.66 970.76,-54.59"/>
</g>
<!-- node5 -->
<g id="node6" class="node">
<title>node5</title>
<ellipse fill="none" stroke="black" cx="735.59" cy="-900" rx="69.59" ry="18"/>
<text text-anchor="middle" x="735.59" y="-896.3" font-family="Times,serif" font-size="14.00">dict_writer.h</text>
</g>
<!-- node6 -->
<g id="node7" class="node">
<title>node6</title>
<ellipse fill="none" stroke="black" cx="431.81" cy="-1942" rx="105.88" ry="18"/>
<text text-anchor="middle" x="431.81" y="-1938.3" font-family="Times,serif" font-size="14.00">tag_propagation.cpp</text>
</g>
<!-- node6&#45;&gt;node32 -->
<g id="edge14" class="edge">
<title>node6&#45;&gt;node32</title>
<path fill="none" stroke="black" d="M537.81,-1943.07C662.79,-1944.26 877.82,-1946 1062.42,-1946 1062.42,-1946 1062.42,-1946 1359.74,-1946 1518.85,-1946 1548.71,-1862.88 1656.67,-1746 1687.13,-1713.02 1710.33,-1665.89 1723.02,-1636.39"/>
<polygon fill="black" stroke="black" points="1726.28,-1637.69 1726.92,-1627.11 1719.82,-1634.98 1726.28,-1637.69"/>
</g>
<!-- node34 -->
<g id="node35" class="node">
<title>node34</title>
<ellipse fill="none" stroke="black" cx="735.59" cy="-1376" rx="94.78" ry="18"/>
<text text-anchor="middle" x="735.59" y="-1372.3" font-family="Times,serif" font-size="14.00">tag_propagation.h</text>
</g>
<!-- node6&#45;&gt;node34 -->
<g id="edge13" class="edge">
<title>node6&#45;&gt;node34</title>
<path fill="none" stroke="black" d="M483.35,-1926.16C507.08,-1916.01 533.35,-1900.27 548.15,-1877 604.87,-1787.88 513.35,-1481.4 584.15,-1403 596.53,-1389.29 613.3,-1381.04 631.16,-1376.3"/>
<polygon fill="black" stroke="black" points="632.2,-1379.65 641.17,-1374.01 630.64,-1372.82 632.2,-1379.65"/>
</g>
<!-- node7 -->
<g id="node8" class="node">
<title>node7</title>
<ellipse fill="none" stroke="black" cx="1063.42" cy="-1380" rx="50.09" ry="18"/>
<text text-anchor="middle" x="1063.42" y="-1376.3" font-family="Times,serif" font-size="14.00">json.hpp</text>
</g>
<!-- node8 -->
<g id="node9" class="node">
<title>node8</title>
<ellipse fill="none" stroke="black" cx="735.59" cy="-1992" rx="82.59" ry="18"/>
<text text-anchor="middle" x="735.59" y="-1988.3" font-family="Times,serif" font-size="14.00">span_sampler.h</text>
</g>
<!-- node14 -->
<g id="node15" class="node">
<title>node14</title>
<ellipse fill="none" stroke="black" cx="1063.42" cy="-1992" rx="50.09" ry="18"/>
<text text-anchor="middle" x="1063.42" y="-1988.3" font-family="Times,serif" font-size="14.00">limiter.h</text>
</g>
<!-- node8&#45;&gt;node14 -->
<g id="edge18" class="edge">
<title>node8&#45;&gt;node14</title>
<path fill="none" stroke="black" d="M818.39,-1992C875.83,-1992 951.32,-1992 1003.04,-1992"/>
<polygon fill="black" stroke="black" points="1003.05,-1995.5 1013.05,-1992 1003.05,-1988.5 1003.05,-1995.5"/>
</g>
<!-- node8&#45;&gt;node21 -->
<g id="edge17" class="edge">
<title>node8&#45;&gt;node21</title>
<path fill="none" stroke="black" d="M801.74,-2002.8C852.18,-2011.16 922.46,-2022.8 977.33,-2031.9"/>
<polygon fill="black" stroke="black" points="976.96,-2035.38 987.39,-2033.57 978.1,-2028.48 976.96,-2035.38"/>
</g>
<!-- node36 -->
<g id="node37" class="node">
<title>node36</title>
<ellipse fill="none" stroke="black" cx="1358.74" cy="-2092" rx="42.79" ry="18"/>
<text text-anchor="middle" x="1358.74" y="-2088.3" font-family="Times,serif" font-size="14.00">clock.h</text>
</g>
<!-- node8&#45;&gt;node36 -->
<g id="edge15" class="edge">
<title>node8&#45;&gt;node36</title>
<path fill="none" stroke="black" d="M817.57,-1994.57C841.44,-1998.37 866.61,-2005.62 887.03,-2019 911.15,-2034.81 897.9,-2058.84 923.03,-2073 1048.11,-2143.5 1227.1,-2119.79 1310.99,-2102.9"/>
<polygon fill="black" stroke="black" points="1311.9,-2106.28 1320.98,-2100.83 1310.47,-2099.43 1311.9,-2106.28"/>
</g>
<!-- node73 -->
<g id="node74" class="node">
<title>node73</title>
<ellipse fill="none" stroke="black" cx="1063.42" cy="-1694" rx="115.88" ry="18"/>
<text text-anchor="middle" x="1063.42" y="-1690.3" font-family="Times,serif" font-size="14.00">span_sampler_config.h</text>
</g>
<!-- node8&#45;&gt;node73 -->
<g id="edge16" class="edge">
<title>node8&#45;&gt;node73</title>
<path fill="none" stroke="black" d="M793.2,-1979.03C824.41,-1969.32 861.83,-1953.09 887.03,-1927 917.53,-1895.42 899.1,-1871.82 923.03,-1835 953.33,-1788.37 1000.9,-1744.44 1031.88,-1718.37"/>
<polygon fill="black" stroke="black" points="1034.3,-1720.9 1039.76,-1711.82 1029.83,-1715.52 1034.3,-1720.9"/>
</g>
<!-- node9 -->
<g id="node10" class="node">
<title>node9</title>
<ellipse fill="none" stroke="black" cx="431.81" cy="-110" rx="81.79" ry="18"/>
<text text-anchor="middle" x="431.81" y="-106.3" font-family="Times,serif" font-size="14.00">dict_reader.cpp</text>
</g>
<!-- node75 -->
<g id="node76" class="node">
<title>node75</title>
<ellipse fill="none" stroke="black" cx="735.59" cy="-110" rx="71.49" ry="18"/>
<text text-anchor="middle" x="735.59" y="-106.3" font-family="Times,serif" font-size="14.00">dict_reader.h</text>
</g>
<!-- node9&#45;&gt;node75 -->
<g id="edge19" class="edge">
<title>node9&#45;&gt;node75</title>
<path fill="none" stroke="black" d="M514.08,-110C557.4,-110 610.51,-110 653.76,-110"/>
<polygon fill="black" stroke="black" points="653.96,-113.5 663.96,-110 653.96,-106.5 653.96,-113.5"/>
</g>
<!-- node10 -->
<g id="node11" class="node">
<title>node10</title>
<ellipse fill="none" stroke="black" cx="735.59" cy="-1592" rx="79.89" ry="18"/>
<text text-anchor="middle" x="735.59" y="-1588.3" font-family="Times,serif" font-size="14.00">tracer_config.h</text>
</g>
<!-- node10&#45;&gt;node13 -->
<g id="edge23" class="edge">
<title>node10&#45;&gt;node13</title>
<path fill="none" stroke="black" d="M815.21,-1593.67C840.76,-1590.41 867.52,-1582.4 887.03,-1565 928.58,-1527.93 878.35,-1478.24 923.03,-1445 973.09,-1407.75 1146.49,-1420.35 1203.8,-1445 1225.17,-1454.19 1218.43,-1473.81 1239.8,-1483 1336.92,-1524.77 1371.98,-1484.98 1477.68,-1483 1489.39,-1482.78 1501.81,-1482.42 1513.89,-1482.01"/>
<polygon fill="black" stroke="black" points="1514.06,-1485.51 1523.92,-1481.66 1513.81,-1478.51 1514.06,-1485.51"/>
</g>
<!-- node22 -->
<g id="node23" class="node">
<title>node22</title>
<ellipse fill="none" stroke="black" cx="1063.42" cy="-870" rx="120.48" ry="18"/>
<text text-anchor="middle" x="1063.42" y="-866.3" font-family="Times,serif" font-size="14.00">datadog_agent_config.h</text>
</g>
<!-- node10&#45;&gt;node22 -->
<g id="edge21" class="edge">
<title>node10&#45;&gt;node22</title>
<path fill="none" stroke="black" d="M813.39,-1596.22C840.33,-1593.53 868.47,-1585.25 887.03,-1565 946.74,-1499.86 900.02,-1254.31 923.03,-1169 951.67,-1062.8 1015.78,-947.67 1046.03,-896.77"/>
<polygon fill="black" stroke="black" points="1049.13,-898.41 1051.26,-888.04 1043.12,-894.81 1049.13,-898.41"/>
</g>
<!-- node10&#45;&gt;node32 -->
<g id="edge24" class="edge">
<title>node10&#45;&gt;node32</title>
<path fill="none" stroke="black" d="M815.52,-1590.96C840.8,-1594.33 867.32,-1602.24 887.03,-1619 923.66,-1650.14 883.78,-1693.23 923.03,-1721 989.57,-1768.08 1584.5,-1758.9 1656.67,-1721 1690.38,-1703.3 1712.27,-1663.48 1723.85,-1636.42"/>
<polygon fill="black" stroke="black" points="1727.12,-1637.67 1727.66,-1627.09 1720.64,-1635.03 1727.12,-1637.67"/>
</g>
<!-- node10&#45;&gt;node38 -->
<g id="edge26" class="edge">
<title>node10&#45;&gt;node38</title>
<path fill="none" stroke="black" d="M812.77,-1596.83C840.14,-1594.33 868.73,-1586.01 887.03,-1565 953.19,-1489.02 880.5,-750.33 923.03,-659 944.4,-613.1 990.83,-576.3 1024.24,-554.36"/>
<polygon fill="black" stroke="black" points="1026.32,-557.18 1032.86,-548.84 1022.55,-551.29 1026.32,-557.18"/>
</g>
<!-- node10&#45;&gt;node73 -->
<g id="edge20" class="edge">
<title>node10&#45;&gt;node73</title>
<path fill="none" stroke="black" d="M814.79,-1594.91C839.32,-1598.64 865.57,-1605.77 887.03,-1619 909.73,-1632.99 900.42,-1652.85 923.03,-1667 932.72,-1673.07 943.48,-1677.83 954.61,-1681.55"/>
<polygon fill="black" stroke="black" points="953.87,-1684.98 964.45,-1684.55 955.91,-1678.28 953.87,-1684.98"/>
</g>
<!-- node10&#45;&gt;node83 -->
<g id="edge25" class="edge">
<title>node10&#45;&gt;node83</title>
<path fill="none" stroke="black" d="M815.12,-1589.94C840.82,-1593.14 867.7,-1601.21 887.03,-1619 932.72,-1661.05 888.68,-1702.27 923.03,-1754 947.61,-1791.02 989.13,-1820.79 1020.48,-1839.62"/>
<polygon fill="black" stroke="black" points="1019.04,-1842.83 1029.44,-1844.87 1022.59,-1836.79 1019.04,-1842.83"/>
</g>
<!-- node86 -->
<g id="node87" class="node">
<title>node86</title>
<ellipse fill="none" stroke="black" cx="1063.42" cy="-1472" rx="117.78" ry="18"/>
<text text-anchor="middle" x="1063.42" y="-1468.3" font-family="Times,serif" font-size="14.00">trace_sampler_config.h</text>
</g>
<!-- node10&#45;&gt;node86 -->
<g id="edge22" class="edge">
<title>node10&#45;&gt;node86</title>
<path fill="none" stroke="black" d="M815.31,-1590.53C840,-1586.9 866.22,-1579.47 887.03,-1565 912.87,-1547.03 897.62,-1522.59 923.03,-1504 933.65,-1496.23 945.84,-1490.31 958.51,-1485.8"/>
<polygon fill="black" stroke="black" points="959.84,-1489.04 968.26,-1482.62 957.67,-1482.39 959.84,-1489.04"/>
</g>
<!-- node12 -->
<g id="node13" class="node">
<title>node12</title>
<ellipse fill="none" stroke="black" cx="735.59" cy="-218" rx="58.49" ry="18"/>
<text text-anchor="middle" x="735.59" y="-214.3" font-family="Times,serif" font-size="14.00">curl/curl.h</text>
</g>
<!-- node13&#45;&gt;node32 -->
<g id="edge27" class="edge">
<title>node13&#45;&gt;node32</title>
<path fill="none" stroke="black" d="M1605.79,-1496.26C1632.05,-1519.37 1678.7,-1560.41 1707.88,-1586.09"/>
<polygon fill="black" stroke="black" points="1705.79,-1588.91 1715.61,-1592.89 1710.42,-1583.66 1705.79,-1588.91"/>
</g>
<!-- node14&#45;&gt;node18 -->
<g id="edge29" class="edge">
<title>node14&#45;&gt;node18</title>
<path fill="none" stroke="black" d="M1106.08,-1982.32C1138.07,-1972.61 1180.58,-1954.33 1203.8,-1922 1270.57,-1829.03 1174.83,-1761.23 1239.8,-1667 1257.69,-1641.06 1289.43,-1624.42 1315.49,-1614.47"/>
<polygon fill="black" stroke="black" points="1316.93,-1617.67 1325.15,-1610.98 1314.56,-1611.08 1316.93,-1617.67"/>
</g>
<!-- node14&#45;&gt;node36 -->
<g id="edge28" class="edge">
<title>node14&#45;&gt;node36</title>
<path fill="none" stroke="black" d="M1110.67,-1997.97C1138.16,-2002.26 1173.47,-2009.05 1203.8,-2019 1246.72,-2033.08 1293.21,-2056.34 1323.74,-2072.81"/>
<polygon fill="black" stroke="black" points="1322.23,-2075.97 1332.68,-2077.69 1325.58,-2069.83 1322.23,-2075.97"/>
</g>
<!-- node15 -->
<g id="node16" class="node">
<title>node15</title>
<ellipse fill="none" stroke="black" cx="735.59" cy="-2300" rx="41.69" ry="18"/>
<text text-anchor="middle" x="735.59" y="-2296.3" font-family="Times,serif" font-size="14.00">span.h</text>
</g>
<!-- node15&#45;&gt;node32 -->
<g id="edge31" class="edge">
<title>node15&#45;&gt;node32</title>
<path fill="none" stroke="black" d="M772.01,-2308.88C805.38,-2318.84 854.92,-2337.95 887.03,-2370 913.76,-2396.69 891.16,-2426.72 923.03,-2447 1139.48,-2584.74 1298.81,-2470.93 1477.68,-2287 1668.34,-2090.94 1719.95,-1739.13 1731.19,-1637.32"/>
<polygon fill="black" stroke="black" points="1734.69,-1637.51 1732.27,-1627.2 1727.73,-1636.78 1734.69,-1637.51"/>
</g>
<!-- node15&#45;&gt;node36 -->
<g id="edge30" class="edge">
<title>node15&#45;&gt;node36</title>
<path fill="none" stroke="black" d="M776.82,-2297.48C859.97,-2291.03 1055.43,-2269.46 1203.8,-2203 1253.83,-2180.59 1303.84,-2140.43 1332.74,-2115.06"/>
<polygon fill="black" stroke="black" points="1335.17,-2117.58 1340.31,-2108.32 1330.51,-2112.35 1335.17,-2117.58"/>
</g>
<!-- node16 -->
<g id="node17" class="node">
<title>node16</title>
<ellipse fill="none" stroke="black" cx="1063.42" cy="-2420" rx="129.98" ry="18"/>
<text text-anchor="middle" x="1063.42" y="-2416.3" font-family="Times,serif" font-size="14.00">sampling_mechanism.cpp</text>
</g>
<!-- node23 -->
<g id="node24" class="node">
<title>node23</title>
<ellipse fill="none" stroke="black" cx="1358.74" cy="-2260" rx="118.88" ry="18"/>
<text text-anchor="middle" x="1358.74" y="-2256.3" font-family="Times,serif" font-size="14.00">sampling_mechanism.h</text>
</g>
<!-- node16&#45;&gt;node23 -->
<g id="edge32" class="edge">
<title>node16&#45;&gt;node23</title>
<path fill="none" stroke="black" d="M1151.36,-2406.65C1169.25,-2402.1 1187.56,-2396.04 1203.8,-2388 1256.42,-2361.95 1306.62,-2314.56 1334.68,-2285.32"/>
<polygon fill="black" stroke="black" points="1337.33,-2287.62 1341.66,-2277.95 1332.25,-2282.8 1337.33,-2287.62"/>
</g>
<!-- node17 -->
<g id="node18" class="node">
<title>node17</title>
<ellipse fill="none" stroke="black" cx="735.59" cy="-586" rx="59.29" ry="18"/>
<text text-anchor="middle" x="735.59" y="-582.3" font-family="Times,serif" font-size="14.00">logger.cpp</text>
</g>
<!-- node17&#45;&gt;node32 -->
<g id="edge34" class="edge">
<title>node17&#45;&gt;node32</title>
<path fill="none" stroke="black" d="M794.24,-583.63C966.94,-580.16 1479.14,-597.19 1656.67,-908 1723.95,-1025.8 1732.63,-1464.93 1733.75,-1580.81"/>
<polygon fill="black" stroke="black" points="1730.25,-1581.03 1733.84,-1591 1737.25,-1580.97 1730.25,-1581.03"/>
</g>
<!-- node35 -->
<g id="node36" class="node">
<title>node35</title>
<ellipse fill="none" stroke="black" cx="1063.42" cy="-816" rx="48.19" ry="18"/>
<text text-anchor="middle" x="1063.42" y="-812.3" font-family="Times,serif" font-size="14.00">logger.h</text>
</g>
<!-- node17&#45;&gt;node35 -->
<g id="edge33" class="edge">
<title>node17&#45;&gt;node35</title>
<path fill="none" stroke="black" d="M794.92,-585.52C825.53,-588.19 861.8,-596.35 887.03,-618 921.3,-647.4 895.76,-677.01 923.03,-713 950.48,-749.24 994.08,-778.58 1025.2,-796.54"/>
<polygon fill="black" stroke="black" points="1023.6,-799.65 1034.03,-801.52 1027.04,-793.56 1023.6,-799.65"/>
</g>
<!-- node18&#45;&gt;node13 -->
<g id="edge35" class="edge">
<title>node18&#45;&gt;node13</title>
<path fill="none" stroke="black" d="M1390.67,-1591.6C1414.98,-1582.91 1449.36,-1569.48 1477.68,-1554 1505.24,-1538.94 1534.24,-1518.15 1555,-1502.28"/>
<polygon fill="black" stroke="black" points="1557.32,-1504.91 1563.09,-1496.03 1553.04,-1499.37 1557.32,-1504.91"/>
</g>
<!-- node19 -->
<g id="node20" class="node">
<title>node19</title>
<ellipse fill="none" stroke="black" cx="735.59" cy="-1900" rx="81.79" ry="18"/>
<text text-anchor="middle" x="735.59" y="-1896.3" font-family="Times,serif" font-size="14.00">sampling_util.h</text>
</g>
<!-- node19&#45;&gt;node18 -->
<g id="edge36" class="edge">
<title>node19&#45;&gt;node18</title>
<path fill="none" stroke="black" d="M807.19,-1908.84C923.08,-1921.69 1146.53,-1938.91 1203.8,-1889 1279.16,-1823.33 1182.22,-1748.7 1239.8,-1667 1257.96,-1641.24 1289.69,-1624.59 1315.66,-1614.59"/>
<polygon fill="black" stroke="black" points="1317.1,-1617.8 1325.3,-1611.08 1314.71,-1611.22 1317.1,-1617.8"/>
</g>
<!-- node20&#45;&gt;node13 -->
<g id="edge38" class="edge">
<title>node20&#45;&gt;node13</title>
<path fill="none" stroke="black" d="M802.24,-1700.04C830.43,-1697.22 862.46,-1689.95 887.03,-1673 912.62,-1655.34 897.55,-1630.83 923.03,-1613 1128.74,-1469.08 1232.64,-1560.65 1477.68,-1506 1494.41,-1502.27 1512.51,-1497.83 1528.97,-1493.64"/>
<polygon fill="black" stroke="black" points="1530.15,-1496.95 1538.97,-1491.07 1528.41,-1490.17 1530.15,-1496.95"/>
</g>
<!-- node20&#45;&gt;node36 -->
<g id="edge37" class="edge">
<title>node20&#45;&gt;node36</title>
<path fill="none" stroke="black" d="M802.15,-1699.52C830.48,-1702.24 862.65,-1709.55 887.03,-1727 913.88,-1746.22 895.93,-1773.12 923.03,-1792 1026.61,-1864.16 1099.01,-1764.6 1203.8,-1835 1287.76,-1891.4 1332.99,-2010.41 1349.89,-2064.37"/>
<polygon fill="black" stroke="black" points="1346.55,-2065.41 1352.8,-2073.96 1353.24,-2063.37 1346.55,-2065.41"/>
</g>
<!-- node21&#45;&gt;node18 -->
<g id="edge40" class="edge">
<title>node21&#45;&gt;node18</title>
<path fill="none" stroke="black" d="M1166.17,-2042.18C1180.43,-2037.44 1193.66,-2030.1 1203.8,-2019 1256.86,-1960.97 1196.42,-1732.58 1239.8,-1667 1257.25,-1640.63 1289.17,-1623.99 1315.41,-1614.15"/>
<polygon fill="black" stroke="black" points="1316.88,-1617.34 1325.14,-1610.7 1314.55,-1610.74 1316.88,-1617.34"/>
</g>
<!-- node21&#45;&gt;node23 -->
<g id="edge39" class="edge">
<title>node21&#45;&gt;node23</title>
<path fill="none" stroke="black" d="M1088.42,-2063.51C1140.85,-2101.76 1265.63,-2192.8 1325.12,-2236.2"/>
<polygon fill="black" stroke="black" points="1323.26,-2239.18 1333.41,-2242.25 1327.39,-2233.52 1323.26,-2239.18"/>
</g>
<!-- node22&#45;&gt;node13 -->
<g id="edge41" class="edge">
<title>node22&#45;&gt;node13</title>
<path fill="none" stroke="black" d="M1102.09,-887.05C1182.75,-925.42 1373.32,-1026.32 1477.68,-1167 1544.62,-1257.22 1571.52,-1392.51 1580.42,-1450.72"/>
<polygon fill="black" stroke="black" points="1576.97,-1451.27 1581.88,-1460.66 1583.89,-1450.26 1576.97,-1451.27"/>
</g>
<!-- node78 -->
<g id="node79" class="node">
<title>node78</title>
<ellipse fill="none" stroke="black" cx="1358.74" cy="-801" rx="69.59" ry="18"/>
<text text-anchor="middle" x="1358.74" y="-797.3" font-family="Times,serif" font-size="14.00">http_client.h</text>
</g>
<!-- node22&#45;&gt;node78 -->
<g id="edge42" class="edge">
<title>node22&#45;&gt;node78</title>
<path fill="none" stroke="black" d="M1141.32,-856.17C1161.7,-852.22 1183.64,-847.7 1203.8,-843 1236.63,-835.35 1273.02,-825.49 1302.17,-817.24"/>
<polygon fill="black" stroke="black" points="1303.51,-820.5 1312.17,-814.4 1301.59,-813.77 1303.51,-820.5"/>
</g>
<!-- node24 -->
<g id="node25" class="node">
<title>node24</title>
<ellipse fill="none" stroke="black" cx="431.81" cy="-678" rx="71.49" ry="18"/>
<text text-anchor="middle" x="431.81" y="-674.3" font-family="Times,serif" font-size="14.00">msgpack.cpp</text>
</g>
<!-- node24&#45;&gt;node54 -->
<g id="edge43" class="edge">
<title>node24&#45;&gt;node54</title>
<path fill="none" stroke="black" d="M503.57,-678C552.2,-678 616.47,-678 664.88,-678"/>
<polygon fill="black" stroke="black" points="664.95,-681.5 674.95,-678 664.95,-674.5 664.95,-681.5"/>
</g>
<!-- node26 -->
<g id="node27" class="node">
<title>node26</title>
<ellipse fill="none" stroke="black" cx="431.81" cy="-1742" rx="92.88" ry="18"/>
<text text-anchor="middle" x="431.81" y="-1738.3" font-family="Times,serif" font-size="14.00">sampling_util.cpp</text>
</g>
<!-- node26&#45;&gt;node19 -->
<g id="edge44" class="edge">
<title>node26&#45;&gt;node19</title>
<path fill="none" stroke="black" d="M514.41,-1750.33C526.75,-1754.49 538.54,-1760.47 548.15,-1769 583.17,-1800.08 548.83,-1837.28 584.15,-1868 600.84,-1882.51 622.47,-1890.98 644.11,-1895.8"/>
<polygon fill="black" stroke="black" points="643.54,-1899.26 654.03,-1897.77 644.9,-1892.39 643.54,-1899.26"/>
</g>
<!-- node27 -->
<g id="node28" class="node">
<title>node27</title>
<ellipse fill="none" stroke="black" cx="735.59" cy="-386" rx="130.78" ry="18"/>
<text text-anchor="middle" x="735.59" y="-382.3" font-family="Times,serif" font-size="14.00">datadog_agent_config.cpp</text>
</g>
<!-- node27&#45;&gt;node22 -->
<g id="edge45" class="edge">
<title>node27&#45;&gt;node22</title>
<path fill="none" stroke="black" d="M810.43,-400.85C838.85,-410.38 868.83,-425.89 887.03,-451 938.37,-521.83 864.33,-778.14 923.03,-843 928.67,-849.23 935.28,-854.28 942.5,-858.36"/>
<polygon fill="black" stroke="black" points="941.43,-861.73 951.95,-863.01 944.53,-855.45 941.43,-861.73"/>
</g>
<!-- node27&#45;&gt;node25 -->
<g id="edge46" class="edge">
<title>node27&#45;&gt;node25</title>
<path fill="none" stroke="black" d="M762.38,-368.22C795.68,-344 853.33,-297.6 887.03,-245 914.32,-202.4 890.24,-175.53 923.03,-137 943.69,-112.71 974.5,-95.4 1001.89,-83.74"/>
<polygon fill="black" stroke="black" points="1003.48,-86.88 1011.42,-79.86 1000.84,-80.39 1003.48,-86.88"/>
</g>
<!-- node27&#45;&gt;node40 -->
<g id="edge48" class="edge">
<title>node27&#45;&gt;node40</title>
<path fill="none" stroke="black" d="M770.54,-368.5C830.19,-337.74 953.71,-274.05 1019.3,-240.23"/>
<polygon fill="black" stroke="black" points="1021.26,-243.16 1028.54,-235.46 1018.05,-236.94 1021.26,-243.16"/>
</g>
<!-- node59 -->
<g id="node60" class="node">
<title>node59</title>
<ellipse fill="none" stroke="black" cx="1063.42" cy="-1288" rx="78.79" ry="18"/>
<text text-anchor="middle" x="1063.42" y="-1284.3" font-family="Times,serif" font-size="14.00">environment.h</text>
</g>
<!-- node27&#45;&gt;node59 -->
<g id="edge47" class="edge">
<title>node27&#45;&gt;node59</title>
<path fill="none" stroke="black" d="M811.78,-400.71C840.05,-410.2 869.56,-425.72 887.03,-451 984.68,-592.28 827.4,-1080.34 923.03,-1223 939.51,-1247.59 967.87,-1263.08 994.72,-1272.73"/>
<polygon fill="black" stroke="black" points="993.92,-1276.15 1004.52,-1276.03 996.15,-1269.52 993.92,-1276.15"/>
</g>
<!-- node28 -->
<g id="node29" class="node">
<title>node28</title>
<ellipse fill="none" stroke="black" cx="431.81" cy="-1634" rx="51.99" ry="18"/>
<text text-anchor="middle" x="431.81" y="-1630.3" font-family="Times,serif" font-size="14.00">span.cpp</text>
</g>
<!-- node28&#45;&gt;node3 -->
<g id="edge49" class="edge">
<title>node28&#45;&gt;node3</title>
<path fill="none" stroke="black" d="M483.85,-1634.84C506.12,-1637.77 531,-1644.87 548.15,-1661 588.72,-1699.14 542.61,-1743.93 584.15,-1781 599.06,-1794.3 618.21,-1802.11 637.82,-1806.51"/>
<polygon fill="black" stroke="black" points="637.29,-1809.98 647.77,-1808.46 638.63,-1803.11 637.29,-1809.98"/>
</g>
<!-- node28&#45;&gt;node5 -->
<g id="edge50" class="edge">
<title>node28&#45;&gt;node5</title>
<path fill="none" stroke="black" d="M440.76,-1616.14C462.15,-1567.2 521.17,-1426.35 548.15,-1303 566.09,-1221 527.29,-988.74 584.15,-927 602.88,-906.66 631.29,-898.41 658.39,-895.77"/>
<polygon fill="black" stroke="black" points="658.97,-899.24 668.69,-895.02 658.46,-892.26 658.97,-899.24"/>
</g>
<!-- node28&#45;&gt;node11 -->
<g id="edge53" class="edge">
<title>node28&#45;&gt;node11</title>
<path fill="none" stroke="black" d="M439.88,-1615.92C459.04,-1566.41 512.96,-1424.27 548.15,-1303 567.75,-1235.5 549,-1209.87 584.15,-1149 614.11,-1097.13 669.17,-1052.83 703.72,-1028.37"/>
<polygon fill="black" stroke="black" points="705.83,-1031.16 712.04,-1022.58 701.83,-1025.42 705.83,-1031.16"/>
</g>
<!-- node28&#45;&gt;node15 -->
<g id="edge52" class="edge">
<title>node28&#45;&gt;node15</title>
<path fill="none" stroke="black" d="M483.9,-1632.93C507.02,-1635.31 532.59,-1642.51 548.15,-1661 635.9,-1765.22 493.71,-2171.12 584.15,-2273 608.9,-2300.87 651.78,-2306.29 685.45,-2305.5"/>
<polygon fill="black" stroke="black" points="685.73,-2308.99 695.57,-2305.07 685.43,-2302 685.73,-2308.99"/>
</g>
<!-- node28&#45;&gt;node20 -->
<g id="edge51" class="edge">
<title>node28&#45;&gt;node20</title>
<path fill="none" stroke="black" d="M476.6,-1643.26C498.25,-1648.08 524.71,-1654.36 548.15,-1661 564.38,-1665.59 567.81,-1668.83 584.15,-1673 610.83,-1679.8 640.58,-1685.52 666.54,-1689.92"/>
<polygon fill="black" stroke="black" points="666.23,-1693.42 676.67,-1691.61 667.38,-1686.51 666.23,-1693.42"/>
</g>
<!-- node29 -->
<g id="node30" class="node">
<title>node29</title>
<ellipse fill="none" stroke="black" cx="1063.42" cy="-164" rx="104.78" ry="18"/>
<text text-anchor="middle" x="1063.42" y="-160.3" font-family="Times,serif" font-size="14.00">event_scheduler.cpp</text>
</g>
<!-- node33 -->
<g id="node34" class="node">
<title>node33</title>
<ellipse fill="none" stroke="black" cx="1358.74" cy="-237" rx="94.48" ry="18"/>
<text text-anchor="middle" x="1358.74" y="-233.3" font-family="Times,serif" font-size="14.00">event_scheduler.h</text>
</g>
<!-- node29&#45;&gt;node33 -->
<g id="edge54" class="edge">
<title>node29&#45;&gt;node33</title>
<path fill="none" stroke="black" d="M1137.42,-176.73C1158.9,-180.85 1182.38,-185.74 1203.8,-191 1236.03,-198.92 1271.55,-209.41 1300.34,-218.37"/>
<polygon fill="black" stroke="black" points="1299.64,-221.82 1310.23,-221.48 1301.74,-215.14 1299.64,-221.82"/>
</g>
<!-- node30 -->
<g id="node31" class="node">
<title>node30</title>
<ellipse fill="none" stroke="black" cx="1585.18" cy="-1694" rx="71.49" ry="18"/>
<text text-anchor="middle" x="1585.18" y="-1690.3" font-family="Times,serif" font-size="14.00">json_fwd.hpp</text>
</g>
<!-- node31 -->
<g id="node32" class="node">
<title>node31</title>
<ellipse fill="none" stroke="black" cx="735.59" cy="-732" rx="87.99" ry="18"/>
<text text-anchor="middle" x="735.59" y="-728.3" font-family="Times,serif" font-size="14.00">datadog_agent.h</text>
</g>
<!-- node31&#45;&gt;node33 -->
<g id="edge58" class="edge">
<title>node31&#45;&gt;node33</title>
<path fill="none" stroke="black" d="M821.25,-727.74C843.82,-723.77 867.37,-716.84 887.03,-705 909.27,-691.6 901.97,-674.18 923.03,-659 1030.5,-581.55 1105.4,-647.68 1203.8,-559 1295.61,-476.26 1337.81,-326.98 1351.97,-265.07"/>
<polygon fill="black" stroke="black" points="1355.4,-265.76 1354.15,-255.24 1348.57,-264.24 1355.4,-265.76"/>
</g>
<!-- node31&#45;&gt;node36 -->
<g id="edge55" class="edge">
<title>node31&#45;&gt;node36</title>
<path fill="none" stroke="black" d="M810.06,-741.65C844.37,-746.1 885.78,-751.41 923.03,-756 985.38,-763.68 1161.15,-742.87 1203.8,-789 1238.98,-827.05 1230.87,-1669.96 1239.8,-1721 1262.98,-1853.48 1321.38,-2004.16 1346.25,-2064.71"/>
<polygon fill="black" stroke="black" points="1343.16,-2066.39 1350.21,-2074.29 1349.62,-2063.71 1343.16,-2066.39"/>
</g>
<!-- node50 -->
<g id="node51" class="node">
<title>node50</title>
<ellipse fill="none" stroke="black" cx="1063.42" cy="-1196" rx="58.49" ry="18"/>
<text text-anchor="middle" x="1063.42" y="-1192.3" font-family="Times,serif" font-size="14.00">collector.h</text>
</g>
<!-- node31&#45;&gt;node50 -->
<g id="edge56" class="edge">
<title>node31&#45;&gt;node50</title>
<path fill="none" stroke="black" d="M768.62,-748.75C801.74,-767.37 853.25,-800.14 887.03,-840 910.47,-867.66 1013.94,-1090.53 1049.98,-1168.88"/>
<polygon fill="black" stroke="black" points="1046.87,-1170.49 1054.23,-1178.11 1053.23,-1167.56 1046.87,-1170.49"/>
</g>
<!-- node31&#45;&gt;node78 -->
<g id="edge57" class="edge">
<title>node31&#45;&gt;node78</title>
<path fill="none" stroke="black" d="M823.36,-730.45C917.67,-730.16 1072.47,-733.75 1203.8,-756 1239.2,-762 1277.98,-773.37 1307.77,-783.18"/>
<polygon fill="black" stroke="black" points="1306.91,-786.58 1317.51,-786.43 1309.14,-779.94 1306.91,-786.58"/>
</g>
<!-- node33&#45;&gt;node32 -->
<g id="edge59" class="edge">
<title>node33&#45;&gt;node32</title>
<path fill="none" stroke="black" d="M1435.37,-226.42C1503.92,-221.54 1602.28,-227.17 1656.67,-288 1701.29,-337.9 1728.7,-1392.22 1733.24,-1580.39"/>
<polygon fill="black" stroke="black" points="1729.75,-1580.68 1733.49,-1590.59 1736.75,-1580.51 1729.75,-1580.68"/>
</g>
<!-- node34&#45;&gt;node13 -->
<g id="edge60" class="edge">
<title>node34&#45;&gt;node13</title>
<path fill="none" stroke="black" d="M829.91,-1373.95C850.42,-1369.7 870.83,-1362.1 887.03,-1349 919.88,-1322.43 887.94,-1284.55 923.03,-1261 1026.63,-1191.44 1080.13,-1244.37 1203.8,-1261 1328.88,-1277.82 1373.45,-1264.84 1477.68,-1336 1521.43,-1365.86 1554.27,-1419.69 1571.24,-1452.11"/>
<polygon fill="black" stroke="black" points="1568.14,-1453.72 1575.8,-1461.04 1574.37,-1450.54 1568.14,-1453.72"/>
</g>
<!-- node37 -->
<g id="node38" class="node">
<title>node37</title>
<ellipse fill="none" stroke="black" cx="431.81" cy="-249" rx="37.89" ry="18"/>
<text text-anchor="middle" x="431.81" y="-245.3" font-family="Times,serif" font-size="14.00">curl.h</text>
</g>
<!-- node37&#45;&gt;node5 -->
<g id="edge63" class="edge">
<title>node37&#45;&gt;node5</title>
<path fill="none" stroke="black" d="M445.72,-265.97C470.34,-299.35 523.75,-376.77 548.15,-451 591.19,-581.93 522.1,-635.94 584.15,-759 610.16,-810.56 663.13,-853.13 698.75,-877.57"/>
<polygon fill="black" stroke="black" points="697.16,-880.71 707.41,-883.38 701.06,-874.9 697.16,-880.71"/>
</g>
<!-- node37&#45;&gt;node12 -->
<g id="edge62" class="edge">
<title>node37&#45;&gt;node12</title>
<path fill="none" stroke="black" d="M468.92,-245.29C518.49,-240.2 608.46,-230.96 669.83,-224.65"/>
<polygon fill="black" stroke="black" points="670.22,-228.13 679.81,-223.63 669.5,-221.17 670.22,-228.13"/>
</g>
<!-- node37&#45;&gt;node35 -->
<g id="edge61" class="edge">
<title>node37&#45;&gt;node35</title>
<path fill="none" stroke="black" d="M466.84,-256.12C569.96,-277.84 872.88,-342.78 887.03,-359 939,-418.59 883.88,-644.3 923.03,-713 945.4,-752.26 989.49,-780.9 1022.12,-797.88"/>
<polygon fill="black" stroke="black" points="1020.91,-801.19 1031.42,-802.56 1024.06,-794.94 1020.91,-801.19"/>
</g>
<!-- node37&#45;&gt;node75 -->
<g id="edge65" class="edge">
<title>node37&#45;&gt;node75</title>
<path fill="none" stroke="black" d="M466.06,-241.46C491,-234.43 524.72,-221.82 548.15,-201 572.55,-179.32 557.56,-155.91 584.15,-137 604.21,-122.74 629.48,-115.27 653.56,-111.54"/>
<polygon fill="black" stroke="black" points="654.34,-114.97 663.78,-110.16 653.41,-108.03 654.34,-114.97"/>
</g>
<!-- node37&#45;&gt;node78 -->
<g id="edge64" class="edge">
<title>node37&#45;&gt;node78</title>
<path fill="none" stroke="black" d="M469.6,-248.85C563.57,-248.89 810.46,-251.67 887.03,-279 1049.91,-337.14 1090.37,-374.45 1203.8,-505 1278.01,-590.41 1328.6,-717.82 1348.41,-773.41"/>
<polygon fill="black" stroke="black" points="1345.13,-774.65 1351.75,-782.92 1351.74,-772.33 1345.13,-774.65"/>
</g>
<!-- node39 -->
<g id="node40" class="node">
<title>node39</title>
<ellipse fill="none" stroke="black" cx="735.59" cy="-532" rx="94.48" ry="18"/>
<text text-anchor="middle" x="735.59" y="-528.3" font-family="Times,serif" font-size="14.00">span_defaults.cpp</text>
</g>
<!-- node39&#45;&gt;node38 -->
<g id="edge66" class="edge">
<title>node39&#45;&gt;node38</title>
<path fill="none" stroke="black" d="M829.96,-532C873.92,-532 926.2,-532 970.04,-532"/>
<polygon fill="black" stroke="black" points="970.12,-535.5 980.12,-532 970.12,-528.5 970.12,-535.5"/>
</g>
<!-- node40&#45;&gt;node33 -->
<g id="edge67" class="edge">
<title>node40&#45;&gt;node33</title>
<path fill="none" stroke="black" d="M1189.24,-226.09C1212.5,-227.59 1236.5,-229.15 1258.85,-230.59"/>
<polygon fill="black" stroke="black" points="1258.79,-234.1 1268.99,-231.25 1259.24,-227.11 1258.79,-234.1"/>
</g>
<!-- node41 -->
<g id="node42" class="node">
<title>node41</title>
<ellipse fill="none" stroke="black" cx="431.81" cy="-2319" rx="46.59" ry="18"/>
<text text-anchor="middle" x="431.81" y="-2315.3" font-family="Times,serif" font-size="14.00">tracer.h</text>
</g>
<!-- node41&#45;&gt;node10 -->
<g id="edge73" class="edge">
<title>node41&#45;&gt;node10</title>
<path fill="none" stroke="black" d="M470.24,-2308.49C496.82,-2298.91 530.78,-2281.9 548.15,-2254 622.89,-2134.04 490.44,-1724.8 584.15,-1619 600.24,-1600.84 624.03,-1592.21 647.96,-1588.61"/>
<polygon fill="black" stroke="black" points="648.7,-1592.05 658.21,-1587.37 647.86,-1585.1 648.7,-1592.05"/>
</g>
<!-- node41&#45;&gt;node13 -->
<g id="edge72" class="edge">
<title>node41&#45;&gt;node13</title>
<path fill="none" stroke="black" d="M476.33,-2324.63C498.28,-2328.23 525.07,-2333.8 548.15,-2342 565.2,-2348.05 566.93,-2355.45 584.15,-2361 713.5,-2402.68 768.52,-2336.49 887.03,-2403 909.06,-2415.37 900.19,-2436.18 923.03,-2447 1035.8,-2500.44 1083.35,-2479.61 1203.8,-2447 1339.88,-2410.16 1403.99,-2407.18 1477.68,-2287 1549.82,-2169.35 1485.13,-1802.02 1513.68,-1667 1526.24,-1607.62 1554.33,-1542.04 1571.01,-1506.16"/>
<polygon fill="black" stroke="black" points="1574.3,-1507.4 1575.39,-1496.86 1567.96,-1504.42 1574.3,-1507.4"/>
</g>
<!-- node41&#45;&gt;node15 -->
<g id="edge70" class="edge">
<title>node41&#45;&gt;node15</title>
<path fill="none" stroke="black" d="M478.32,-2316.13C533.5,-2312.66 626.25,-2306.82 683.73,-2303.2"/>
<polygon fill="black" stroke="black" points="684.28,-2306.67 694.04,-2302.55 683.84,-2299.69 684.28,-2306.67"/>
</g>
<!-- node41&#45;&gt;node32 -->
<g id="edge71" class="edge">
<title>node41&#45;&gt;node32</title>
<path fill="none" stroke="black" d="M458.67,-2334.09C483.47,-2349.38 521.06,-2374.76 548.15,-2403 568.12,-2423.81 559.14,-2442.65 584.15,-2457 930.06,-2655.45 1161.61,-2618.18 1477.68,-2375 1586.85,-2291.01 1605.25,-2249.78 1656.67,-2122 1726.84,-1947.63 1733.94,-1716.65 1734.17,-1637.23"/>
<polygon fill="black" stroke="black" points="1737.67,-1637.04 1734.16,-1627.05 1730.67,-1637.05 1737.67,-1637.04"/>
</g>
<!-- node41&#45;&gt;node36 -->
<g id="edge68" class="edge">
<title>node41&#45;&gt;node36</title>
<path fill="none" stroke="black" d="M473.95,-2326.85C595.23,-2347.78 958.24,-2394.18 1203.8,-2254 1264.06,-2219.6 1315.26,-2154.2 1340.64,-2117.9"/>
<polygon fill="black" stroke="black" points="1343.75,-2119.56 1346.53,-2109.34 1337.98,-2115.6 1343.75,-2119.56"/>
</g>
<!-- node64 -->
<g id="node65" class="node">
<title>node64</title>
<ellipse fill="none" stroke="black" cx="735.59" cy="-2046" rx="77.19" ry="18"/>
<text text-anchor="middle" x="735.59" y="-2042.3" font-family="Times,serif" font-size="14.00">id_generator.h</text>
</g>
<!-- node41&#45;&gt;node64 -->
<g id="edge69" class="edge">
<title>node41&#45;&gt;node64</title>
<path fill="none" stroke="black" d="M468.85,-2307.85C494.91,-2297.9 528.8,-2280.71 548.15,-2254 596.28,-2187.58 525.62,-2130.45 584.15,-2073 601.39,-2056.09 625.38,-2047.79 649.14,-2044.11"/>
<polygon fill="black" stroke="black" points="649.82,-2047.55 659.3,-2042.81 648.93,-2040.61 649.82,-2047.55"/>
</g>
<!-- node42 -->
<g id="node43" class="node">
<title>node42</title>
<ellipse fill="none" stroke="black" cx="431.81" cy="-2590" rx="65.79" ry="18"/>
<text text-anchor="middle" x="431.81" y="-2586.3" font-family="Times,serif" font-size="14.00">parse_util.h</text>
</g>
<!-- node42&#45;&gt;node13 -->
<g id="edge75" class="edge">
<title>node42&#45;&gt;node13</title>
<path fill="none" stroke="black" d="M486.83,-2599.99C665.97,-2629.59 1242.41,-2695.96 1477.68,-2375 1524.25,-2311.47 1497.66,-1744.12 1513.68,-1667 1526.02,-1607.57 1554.19,-1542.01 1570.94,-1506.15"/>
<polygon fill="black" stroke="black" points="1574.23,-1507.39 1575.34,-1496.86 1567.9,-1504.4 1574.23,-1507.39"/>
</g>
<!-- node68 -->
<g id="node69" class="node">
<title>node68</title>
<ellipse fill="none" stroke="black" cx="735.59" cy="-2674" rx="52.79" ry="18"/>
<text text-anchor="middle" x="735.59" y="-2670.3" font-family="Times,serif" font-size="14.00">charconv</text>
</g>
<!-- node42&#45;&gt;node68 -->
<g id="edge74" class="edge">
<title>node42&#45;&gt;node68</title>
<path fill="none" stroke="black" d="M470.98,-2604.55C501.34,-2615.78 545.07,-2631.17 584.15,-2642 614.98,-2650.54 649.9,-2658.09 678.32,-2663.72"/>
<polygon fill="black" stroke="black" points="678,-2667.22 688.49,-2665.7 679.34,-2660.35 678,-2667.22"/>
</g>
<!-- node43 -->
<g id="node44" class="node">
<title>node43</title>
<ellipse fill="none" stroke="black" cx="1358.74" cy="-1456" rx="72.29" ry="18"/>
<text text-anchor="middle" x="1358.74" y="-1452.3" font-family="Times,serif" font-size="14.00">expected.cpp</text>
</g>
<!-- node43&#45;&gt;node13 -->
<g id="edge76" class="edge">
<title>node43&#45;&gt;node13</title>
<path fill="none" stroke="black" d="M1425.87,-1462.78C1454.43,-1465.7 1487.83,-1469.13 1516.56,-1472.07"/>
<polygon fill="black" stroke="black" points="1516.21,-1475.55 1526.51,-1473.09 1516.92,-1468.59 1516.21,-1475.55"/>
</g>
<!-- node44 -->
<g id="node45" class="node">
<title>node44</title>
<ellipse fill="none" stroke="black" cx="735.59" cy="-1322" rx="69.59" ry="18"/>
<text text-anchor="middle" x="735.59" y="-1318.3" font-family="Times,serif" font-size="14.00">collector.cpp</text>
</g>
<!-- node44&#45;&gt;node50 -->
<g id="edge77" class="edge">
<title>node44&#45;&gt;node50</title>
<path fill="none" stroke="black" d="M804.74,-1319.41C832.41,-1315.49 863.35,-1307.16 887.03,-1290 912.83,-1271.3 897.38,-1246.91 923.03,-1228 943.84,-1212.66 970.79,-1204.5 995.44,-1200.22"/>
<polygon fill="black" stroke="black" points="996.13,-1203.66 1005.47,-1198.67 995.06,-1196.74 996.13,-1203.66"/>
</g>
<!-- node45 -->
<g id="node46" class="node">
<title>node45</title>
<ellipse fill="none" stroke="black" cx="431.81" cy="-2088" rx="88.28" ry="18"/>
<text text-anchor="middle" x="431.81" y="-2084.3" font-family="Times,serif" font-size="14.00">id_generator.cpp</text>
</g>
<!-- node45&#45;&gt;node64 -->
<g id="edge78" class="edge">
<title>node45&#45;&gt;node64</title>
<path fill="none" stroke="black" d="M505.48,-2077.89C551.79,-2071.44 611.68,-2063.11 658.62,-2056.57"/>
<polygon fill="black" stroke="black" points="659.31,-2060.01 668.73,-2055.17 658.34,-2053.08 659.31,-2060.01"/>
</g>
<!-- node46 -->
<g id="node47" class="node">
<title>node46</title>
<ellipse fill="none" stroke="black" cx="735.59" cy="-2154" rx="115.08" ry="18"/>
<text text-anchor="middle" x="735.59" y="-2150.3" font-family="Times,serif" font-size="14.00">sampling_decision.cpp</text>
</g>
<!-- node46&#45;&gt;node21 -->
<g id="edge79" class="edge">
<title>node46&#45;&gt;node21</title>
<path fill="none" stroke="black" d="M823.43,-2142.3C844.5,-2138.41 866.78,-2133.38 887.03,-2127 935.34,-2111.79 987.68,-2086.34 1022.49,-2068.02"/>
<polygon fill="black" stroke="black" points="1024.19,-2071.08 1031.38,-2063.29 1020.91,-2064.9 1024.19,-2071.08"/>
</g>
<!-- node47 -->
<g id="node48" class="node">
<title>node47</title>
<ellipse fill="none" stroke="black" cx="431.81" cy="-1688" rx="94.78" ry="18"/>
<text text-anchor="middle" x="431.81" y="-1684.3" font-family="Times,serif" font-size="14.00">trace_sampler.cpp</text>
</g>
<!-- node47&#45;&gt;node19 -->
<g id="edge80" class="edge">
<title>node47&#45;&gt;node19</title>
<path fill="none" stroke="black" d="M517.06,-1696.02C528.63,-1700.27 539.5,-1706.35 548.15,-1715 597.58,-1764.37 534.23,-1819.14 584.15,-1868 600.12,-1883.63 621.73,-1892.46 643.58,-1897.27"/>
<polygon fill="black" stroke="black" points="643.13,-1900.75 653.61,-1899.2 644.46,-1893.87 643.13,-1900.75"/>
</g>
<!-- node47&#45;&gt;node20 -->
<g id="edge85" class="edge">
<title>node47&#45;&gt;node20</title>
<path fill="none" stroke="black" d="M525,-1691.67C568.14,-1693.38 618.87,-1695.4 659.62,-1697.02"/>
<polygon fill="black" stroke="black" points="659.62,-1700.52 669.75,-1697.42 659.9,-1693.53 659.62,-1700.52"/>
</g>
<!-- node47&#45;&gt;node21 -->
<g id="edge84" class="edge">
<title>node47&#45;&gt;node21</title>
<path fill="none" stroke="black" d="M516.31,-1696.38C528.05,-1700.57 539.17,-1706.55 548.15,-1715 588.72,-1753.14 541.64,-1799.04 584.15,-1835 687.74,-1922.61 785.66,-1782.84 887.03,-1873 936.97,-1917.42 874.59,-1972.95 923.03,-2019 931.68,-2027.23 942.05,-2033.31 953.17,-2037.76"/>
<polygon fill="black" stroke="black" points="952.08,-2041.08 962.68,-2041.13 954.42,-2034.49 952.08,-2041.08"/>
</g>
<!-- node53 -->
<g id="node54" class="node">
<title>node53</title>
<ellipse fill="none" stroke="black" cx="735.59" cy="-1176" rx="105.88" ry="18"/>
<text text-anchor="middle" x="735.59" y="-1172.3" font-family="Times,serif" font-size="14.00">collector_response.h</text>
</g>
<!-- node47&#45;&gt;node53 -->
<g id="edge83" class="edge">
<title>node47&#45;&gt;node53</title>
<path fill="none" stroke="black" d="M519.13,-1680.77C530.21,-1676.38 540.38,-1670.05 548.15,-1661 614.67,-1583.55 515.63,-1278.68 584.15,-1203 593.92,-1192.21 606.41,-1184.81 620,-1179.83"/>
<polygon fill="black" stroke="black" points="621.12,-1183.15 629.57,-1176.76 618.98,-1176.48 621.12,-1183.15"/>
</g>
<!-- node55 -->
<g id="node56" class="node">
<title>node55</title>
<ellipse fill="none" stroke="black" cx="735.59" cy="-1646" rx="84.49" ry="18"/>
<text text-anchor="middle" x="735.59" y="-1642.3" font-family="Times,serif" font-size="14.00">trace_sampler.h</text>
</g>
<!-- node47&#45;&gt;node55 -->
<g id="edge81" class="edge">
<title>node47&#45;&gt;node55</title>
<path fill="none" stroke="black" d="M508.97,-1677.4C553.36,-1671.22 609.31,-1663.44 654.38,-1657.16"/>
<polygon fill="black" stroke="black" points="654.99,-1660.61 664.41,-1655.77 654.03,-1653.68 654.99,-1660.61"/>
</g>
<!-- node82 -->
<g id="node83" class="node">
<title>node82</title>
<ellipse fill="none" stroke="black" cx="735.59" cy="-2246" rx="100.18" ry="18"/>
<text text-anchor="middle" x="735.59" y="-2242.3" font-family="Times,serif" font-size="14.00">sampling_priority.h</text>
</g>
<!-- node47&#45;&gt;node82 -->
<g id="edge82" class="edge">
<title>node47&#45;&gt;node82</title>
<path fill="none" stroke="black" d="M519.14,-1695.22C530.22,-1699.61 540.39,-1705.95 548.15,-1715 615.78,-1793.84 523.8,-2096.47 584.15,-2181 601.31,-2205.03 629.27,-2220.26 656.46,-2229.87"/>
<polygon fill="black" stroke="black" points="655.44,-2233.22 666.03,-2233.04 657.64,-2226.57 655.44,-2233.22"/>
</g>
<!-- node48 -->
<g id="node49" class="node">
<title>node48</title>
<ellipse fill="none" stroke="black" cx="431.81" cy="-2227" rx="110.48" ry="18"/>
<text text-anchor="middle" x="431.81" y="-2223.3" font-family="Times,serif" font-size="14.00">sampling_priority.cpp</text>
</g>
<!-- node48&#45;&gt;node82 -->
<g id="edge86" class="edge">
<title>node48&#45;&gt;node82</title>
<path fill="none" stroke="black" d="M535.4,-2233.46C566.11,-2235.39 599.79,-2237.51 630.59,-2239.45"/>
<polygon fill="black" stroke="black" points="630.71,-2242.97 640.91,-2240.1 631.15,-2235.98 630.71,-2242.97"/>
</g>
<!-- node49 -->
<g id="node50" class="node">
<title>node49</title>
<ellipse fill="none" stroke="black" cx="431.81" cy="-1996" rx="92.88" ry="18"/>
<text text-anchor="middle" x="431.81" y="-1992.3" font-family="Times,serif" font-size="14.00">span_sampler.cpp</text>
</g>
<!-- node49&#45;&gt;node8 -->
<g id="edge90" class="edge">
<title>node49&#45;&gt;node8</title>
<path fill="none" stroke="black" d="M524.59,-1994.78C561.99,-1994.29 605.16,-1993.72 642.59,-1993.22"/>
<polygon fill="black" stroke="black" points="643.03,-1996.71 652.99,-1993.08 642.94,-1989.71 643.03,-1996.71"/>
</g>
<!-- node49&#45;&gt;node19 -->
<g id="edge88" class="edge">
<title>node49&#45;&gt;node19</title>
<path fill="none" stroke="black" d="M495.44,-1982.83C512.64,-1978.81 531.22,-1974.09 548.15,-1969 595.94,-1954.63 649.21,-1934.48 686.54,-1919.67"/>
<polygon fill="black" stroke="black" points="688.16,-1922.79 696.15,-1915.83 685.56,-1916.29 688.16,-1922.79"/>
</g>
<!-- node49&#45;&gt;node20 -->
<g id="edge91" class="edge">
<title>node49&#45;&gt;node20</title>
<path fill="none" stroke="black" d="M517.13,-1988.82C528.84,-1984.49 539.73,-1978.15 548.15,-1969 621.82,-1889.01 508.42,-1805.03 584.15,-1727 603.99,-1706.56 633.63,-1698.52 661.37,-1696.06"/>
<polygon fill="black" stroke="black" points="661.74,-1699.55 671.49,-1695.4 661.28,-1692.56 661.74,-1699.55"/>
</g>
<!-- node49&#45;&gt;node23 -->
<g id="edge87" class="edge">
<title>node49&#45;&gt;node23</title>
<path fill="none" stroke="black" d="M477.84,-2011.76C501.84,-2022.28 530.07,-2038.38 548.15,-2061 582.93,-2104.49 541.23,-2145.53 584.15,-2181 590.49,-2186.23 1035.15,-2229.25 1247.36,-2249.51"/>
<polygon fill="black" stroke="black" points="1247.31,-2253.03 1257.6,-2250.49 1247.98,-2246.06 1247.31,-2253.03"/>
</g>
<!-- node49&#45;&gt;node82 -->
<g id="edge89" class="edge">
<title>node49&#45;&gt;node82</title>
<path fill="none" stroke="black" d="M478.95,-2011.6C502.99,-2021.99 530.9,-2038.03 548.15,-2061 590.12,-2116.85 534.23,-2165.14 584.15,-2214 596.36,-2225.94 611.85,-2233.92 628.23,-2239.16"/>
<polygon fill="black" stroke="black" points="627.38,-2242.56 637.96,-2241.94 629.31,-2235.83 627.38,-2242.56"/>
</g>
<!-- node50&#45;&gt;node13 -->
<g id="edge92" class="edge">
<title>node50&#45;&gt;node13</title>
<path fill="none" stroke="black" d="M1110.85,-1185.3C1193.26,-1169.16 1366.82,-1148.28 1477.68,-1228 1551.93,-1281.39 1574.76,-1397.14 1581.5,-1450.73"/>
<polygon fill="black" stroke="black" points="1578.05,-1451.35 1582.67,-1460.88 1585,-1450.54 1578.05,-1451.35"/>
</g>
<!-- node51 -->
<g id="node52" class="node">
<title>node51</title>
<ellipse fill="none" stroke="black" cx="431.81" cy="-1850" rx="90.98" ry="18"/>
<text text-anchor="middle" x="431.81" y="-1846.3" font-family="Times,serif" font-size="14.00">null_collector.cpp</text>
</g>
<!-- node69 -->
<g id="node70" class="node">
<title>node69</title>
<ellipse fill="none" stroke="black" cx="735.59" cy="-1230" rx="80.69" ry="18"/>
<text text-anchor="middle" x="735.59" y="-1226.3" font-family="Times,serif" font-size="14.00">null_collector.h</text>
</g>
<!-- node51&#45;&gt;node69 -->
<g id="edge93" class="edge">
<title>node51&#45;&gt;node69</title>
<path fill="none" stroke="black" d="M517.2,-1843.61C529.05,-1839.2 539.96,-1832.64 548.15,-1823 624.32,-1733.39 516.25,-1391.02 584.15,-1295 602.38,-1269.22 633.07,-1253.58 661.99,-1244.13"/>
<polygon fill="black" stroke="black" points="663.17,-1247.43 671.71,-1241.16 661.13,-1240.74 663.17,-1247.43"/>
</g>
<!-- node52 -->
<g id="node53" class="node">
<title>node52</title>
<ellipse fill="none" stroke="black" cx="431.81" cy="-954" rx="82.59" ry="18"/>
<text text-anchor="middle" x="431.81" y="-950.3" font-family="Times,serif" font-size="14.00">cerr_logger.cpp</text>
</g>
<!-- node87 -->
<g id="node88" class="node">
<title>node87</title>
<ellipse fill="none" stroke="black" cx="735.59" cy="-954" rx="71.49" ry="18"/>
<text text-anchor="middle" x="735.59" y="-950.3" font-family="Times,serif" font-size="14.00">cerr_logger.h</text>
</g>
<!-- node52&#45;&gt;node87 -->
<g id="edge94" class="edge">
<title>node52&#45;&gt;node87</title>
<path fill="none" stroke="black" d="M514.48,-954C557.71,-954 610.61,-954 653.72,-954"/>
<polygon fill="black" stroke="black" points="653.89,-957.5 663.89,-954 653.89,-950.5 653.89,-957.5"/>
</g>
<!-- node53&#45;&gt;node18 -->
<g id="edge95" class="edge">
<title>node53&#45;&gt;node18</title>
<path fill="none" stroke="black" d="M777.17,-1159.39C866.75,-1125.7 1083.02,-1061.28 1203.8,-1169 1256.22,-1215.75 1209.41,-1419.68 1239.8,-1483 1259.65,-1524.35 1299.8,-1559.91 1327.7,-1581.12"/>
<polygon fill="black" stroke="black" points="1325.82,-1584.08 1335.93,-1587.24 1329.99,-1578.47 1325.82,-1584.08"/>
</g>
<!-- node55&#45;&gt;node14 -->
<g id="edge99" class="edge">
<title>node55&#45;&gt;node14</title>
<path fill="none" stroke="black" d="M819.23,-1643.32C844.03,-1646.72 869.31,-1655.06 887.03,-1673 955.42,-1742.25 872.18,-1806.02 923.03,-1889 946.49,-1927.29 989.98,-1955.95 1022.17,-1973.19"/>
<polygon fill="black" stroke="black" points="1020.85,-1976.45 1031.34,-1977.96 1024.08,-1970.24 1020.85,-1976.45"/>
</g>
<!-- node55&#45;&gt;node18 -->
<g id="edge98" class="edge">
<title>node55&#45;&gt;node18</title>
<path fill="none" stroke="black" d="M800.57,-1634.44C852.04,-1625.18 916.8,-1613.63 923.03,-1613 1063.21,-1598.9 1230.03,-1599.51 1310.15,-1600.88"/>
<polygon fill="black" stroke="black" points="1310.35,-1604.38 1320.41,-1601.07 1310.47,-1597.38 1310.35,-1604.38"/>
</g>
<!-- node55&#45;&gt;node36 -->
<g id="edge96" class="edge">
<title>node55&#45;&gt;node36</title>
<path fill="none" stroke="black" d="M820.23,-1646.68C843.8,-1650.46 868.13,-1658.18 887.03,-1673 918.03,-1697.31 891.51,-1730.36 923.03,-1754 1023.77,-1829.56 1100.99,-1719.28 1203.8,-1792 1298.93,-1859.29 1339.2,-2003.31 1352.4,-2064.05"/>
<polygon fill="black" stroke="black" points="1349.02,-2064.99 1354.49,-2074.06 1355.87,-2063.56 1349.02,-2064.99"/>
</g>
<!-- node55&#45;&gt;node86 -->
<g id="edge97" class="edge">
<title>node55&#45;&gt;node86</title>
<path fill="none" stroke="black" d="M820.16,-1646.83C844.14,-1643.17 868.71,-1635.14 887.03,-1619 927.2,-1583.58 883.71,-1540.37 923.03,-1504 931.78,-1495.9 942.16,-1489.71 953.25,-1485"/>
<polygon fill="black" stroke="black" points="954.61,-1488.23 962.71,-1481.39 952.12,-1481.69 954.61,-1488.23"/>
</g>
<!-- node56 -->
<g id="node57" class="node">
<title>node56</title>
<ellipse fill="none" stroke="black" cx="431.81" cy="-2430" rx="84.49" ry="18"/>
<text text-anchor="middle" x="431.81" y="-2426.3" font-family="Times,serif" font-size="14.00">span_config.cpp</text>
</g>
<!-- node56&#45;&gt;node60 -->
<g id="edge100" class="edge">
<title>node56&#45;&gt;node60</title>
<path fill="none" stroke="black" d="M516.48,-2430C558.7,-2430 609.74,-2430 651.84,-2430"/>
<polygon fill="black" stroke="black" points="652.05,-2433.5 662.05,-2430 652.05,-2426.5 652.05,-2433.5"/>
</g>
<!-- node57 -->
<g id="node58" class="node">
<title>node57</title>
<ellipse fill="none" stroke="black" cx="431.81" cy="-900" rx="79.89" ry="18"/>
<text text-anchor="middle" x="431.81" y="-896.3" font-family="Times,serif" font-size="14.00">dict_writer.cpp</text>
</g>
<!-- node57&#45;&gt;node5 -->
<g id="edge101" class="edge">
<title>node57&#45;&gt;node5</title>
<path fill="none" stroke="black" d="M512.1,-900C556.41,-900 611.45,-900 655.69,-900"/>
<polygon fill="black" stroke="black" points="655.83,-903.5 665.83,-900 655.83,-896.5 655.83,-903.5"/>
</g>
<!-- node58 -->
<g id="node59" class="node">
<title>node58</title>
<ellipse fill="none" stroke="black" cx="735.59" cy="-1538" rx="128.08" ry="18"/>
<text text-anchor="middle" x="735.59" y="-1534.3" font-family="Times,serif" font-size="14.00">trace_sampler_config.cpp</text>
</g>
<!-- node58&#45;&gt;node7 -->
<g id="edge103" class="edge">
<title>node58&#45;&gt;node7</title>
<path fill="none" stroke="black" d="M851.96,-1530.42C864.72,-1525.91 876.78,-1519.63 887.03,-1511 922.84,-1480.85 887.95,-1443.01 923.03,-1412 944.8,-1392.75 975.8,-1384.42 1003.04,-1381.04"/>
<polygon fill="black" stroke="black" points="1003.69,-1384.49 1013.27,-1379.97 1002.96,-1377.53 1003.69,-1384.49"/>
</g>
<!-- node58&#45;&gt;node59 -->
<g id="edge104" class="edge">
<title>node58&#45;&gt;node59</title>
<path fill="none" stroke="black" d="M854.16,-1531.2C866.31,-1526.51 877.62,-1519.98 887.03,-1511 939.12,-1461.27 877.78,-1409.04 923.03,-1353 941.93,-1329.59 971.19,-1314.2 998.03,-1304.3"/>
<polygon fill="black" stroke="black" points="999.5,-1307.5 1007.79,-1300.9 997.19,-1300.89 999.5,-1307.5"/>
</g>
<!-- node58&#45;&gt;node86 -->
<g id="edge102" class="edge">
<title>node58&#45;&gt;node86</title>
<path fill="none" stroke="black" d="M817.51,-1524.11C840.05,-1520.07 864.52,-1515.52 887.03,-1511 920.28,-1504.32 956.93,-1496.28 988.08,-1489.24"/>
<polygon fill="black" stroke="black" points="989.02,-1492.62 998,-1486.99 987.47,-1485.79 989.02,-1492.62"/>
</g>
<!-- node60&#45;&gt;node36 -->
<g id="edge105" class="edge">
<title>node60&#45;&gt;node36</title>
<path fill="none" stroke="black" d="M791.95,-2418.35C828.97,-2410.72 878.83,-2400.77 923.03,-2393 985.2,-2382.08 1156.02,-2391.25 1203.8,-2350 1244.99,-2314.45 1213.84,-2280.81 1239.8,-2233 1264.76,-2187.06 1306.07,-2142.17 1332.59,-2115.8"/>
<polygon fill="black" stroke="black" points="1335.29,-2118.06 1339.98,-2108.56 1330.39,-2113.06 1335.29,-2118.06"/>
</g>
<!-- node61 -->
<g id="node62" class="node">
<title>node61</title>
<ellipse fill="none" stroke="black" cx="431.81" cy="-839" rx="98.58" ry="18"/>
<text text-anchor="middle" x="431.81" y="-835.3" font-family="Times,serif" font-size="14.00">datadog_agent.cpp</text>
</g>
<!-- node61&#45;&gt;node5 -->
<g id="edge113" class="edge">
<title>node61&#45;&gt;node5</title>
<path fill="none" stroke="black" d="M498.67,-852.31C549.56,-862.6 619.61,-876.76 670.14,-886.97"/>
<polygon fill="black" stroke="black" points="669.48,-890.41 679.98,-888.96 670.87,-883.55 669.48,-890.41"/>
</g>
<!-- node61&#45;&gt;node7 -->
<g id="edge109" class="edge">
<title>node61&#45;&gt;node7</title>
<path fill="none" stroke="black" d="M530.66,-839.7C656.62,-841.59 862.33,-848.46 887.03,-873 956.94,-942.45 866.75,-1234.11 923.03,-1315 942.91,-1343.58 978.7,-1359.91 1009.03,-1369.05"/>
<polygon fill="black" stroke="black" points="1008.09,-1372.42 1018.66,-1371.77 1009.99,-1365.69 1008.09,-1372.42"/>
</g>
<!-- node61&#45;&gt;node20 -->
<g id="edge114" class="edge">
<title>node61&#45;&gt;node20</title>
<path fill="none" stroke="black" d="M514.19,-849.11C527.34,-854.3 539.46,-861.91 548.15,-873 603.03,-943.04 525.54,-1606.05 584.15,-1673 603.3,-1694.87 633.61,-1702.97 662.02,-1705.07"/>
<polygon fill="black" stroke="black" points="662.21,-1708.59 672.38,-1705.59 662.56,-1701.6 662.21,-1708.59"/>
</g>
<!-- node61&#45;&gt;node22 -->
<g id="edge107" class="edge">
<title>node61&#45;&gt;node22</title>
<path fill="none" stroke="black" d="M527.84,-834.6C619.88,-831.43 763.29,-829.36 887.03,-840 918.55,-842.71 952.92,-848.06 982.82,-853.49"/>
<polygon fill="black" stroke="black" points="982.31,-856.96 992.78,-855.33 983.58,-850.07 982.31,-856.96"/>
</g>
<!-- node61&#45;&gt;node31 -->
<g id="edge111" class="edge">
<title>node61&#45;&gt;node31</title>
<path fill="none" stroke="black" d="M506.85,-827.25C521.27,-822.94 535.74,-817.05 548.15,-809 569.64,-795.07 562.36,-777.45 584.15,-764 602.1,-752.92 623.3,-745.64 644.03,-740.86"/>
<polygon fill="black" stroke="black" points="644.78,-744.27 653.83,-738.77 643.32,-737.43 644.78,-744.27"/>
</g>
<!-- node61&#45;&gt;node35 -->
<g id="edge106" class="edge">
<title>node61&#45;&gt;node35</title>
<path fill="none" stroke="black" d="M487.82,-824.09C523.1,-814.81 565.63,-804.23 584.15,-802 736.67,-783.63 918.41,-799.1 1007.56,-809.11"/>
<polygon fill="black" stroke="black" points="1007.38,-812.62 1017.71,-810.27 1008.17,-805.66 1007.38,-812.62"/>
</g>
<!-- node61&#45;&gt;node53 -->
<g id="edge108" class="edge">
<title>node61&#45;&gt;node53</title>
<path fill="none" stroke="black" d="M511.2,-849.85C525.03,-854.94 538.18,-862.32 548.15,-873 598.51,-926.9 547.62,-970.93 584.15,-1035 612.6,-1084.88 664.46,-1127.61 699.22,-1152.57"/>
<polygon fill="black" stroke="black" points="697.48,-1155.62 707.67,-1158.52 701.52,-1149.9 697.48,-1155.62"/>
</g>
<!-- node61&#45;&gt;node54 -->
<g id="edge115" class="edge">
<title>node61&#45;&gt;node54</title>
<path fill="none" stroke="black" d="M513.72,-828.85C526.36,-824.36 538.43,-817.99 548.15,-809 584.08,-775.8 546.98,-736.79 584.15,-705 606.42,-685.95 637.48,-678.31 665.59,-675.79"/>
<polygon fill="black" stroke="black" points="666.06,-679.26 675.79,-675.07 665.57,-672.28 666.06,-679.26"/>
</g>
<!-- node61&#45;&gt;node55 -->
<g id="edge112" class="edge">
<title>node61&#45;&gt;node55</title>
<path fill="none" stroke="black" d="M514.16,-849.14C527.31,-854.32 539.45,-861.92 548.15,-873 599.44,-938.24 529.39,-1556.65 584.15,-1619 599.18,-1636.11 621.03,-1644.78 643.45,-1648.75"/>
<polygon fill="black" stroke="black" points="643.01,-1652.22 653.42,-1650.21 644.03,-1645.3 643.01,-1652.22"/>
</g>
<!-- node70 -->
<g id="node71" class="node">
<title>node70</title>
<ellipse fill="none" stroke="black" cx="735.59" cy="-478" rx="53.89" ry="18"/>
<text text-anchor="middle" x="735.59" y="-474.3" font-family="Times,serif" font-size="14.00">version.h</text>
</g>
<!-- node61&#45;&gt;node70 -->
<g id="edge110" class="edge">
<title>node61&#45;&gt;node70</title>
<path fill="none" stroke="black" d="M517.19,-829.86C528.97,-825.2 539.86,-818.51 548.15,-809 637.57,-706.45 490.86,-604.03 584.15,-505 606.63,-481.14 642.45,-474.02 673.49,-473.04"/>
<polygon fill="black" stroke="black" points="673.85,-476.54 683.81,-472.93 673.78,-469.54 673.85,-476.54"/>
</g>
<!-- node62 -->
<g id="node63" class="node">
<title>node62</title>
<ellipse fill="none" stroke="black" cx="431.81" cy="-1796" rx="56.59" ry="18"/>
<text text-anchor="middle" x="431.81" y="-1792.3" font-family="Times,serif" font-size="14.00">winsock.h</text>
</g>
<!-- node63 -->
<g id="node64" class="node">
<title>node63</title>
<ellipse fill="none" stroke="black" cx="735.59" cy="-1430" rx="89.08" ry="18"/>
<text text-anchor="middle" x="735.59" y="-1426.3" font-family="Times,serif" font-size="14.00">environment.cpp</text>
</g>
<!-- node63&#45;&gt;node59 -->
<g id="edge116" class="edge">
<title>node63&#45;&gt;node59</title>
<path fill="none" stroke="black" d="M824.61,-1428.69C846.82,-1424.68 869.34,-1417 887.03,-1403 918.56,-1378.04 892.11,-1345.71 923.03,-1320 938.3,-1307.3 957.63,-1299.42 977,-1294.57"/>
<polygon fill="black" stroke="black" points="977.82,-1297.98 986.8,-1292.37 976.28,-1291.15 977.82,-1297.98"/>
</g>
<!-- node65 -->
<g id="node66" class="node">
<title>node65</title>
<ellipse fill="none" stroke="black" cx="431.81" cy="-1126" rx="90.98" ry="18"/>
<text text-anchor="middle" x="431.81" y="-1122.3" font-family="Times,serif" font-size="14.00">tracer_config.cpp</text>
</g>
<!-- node65&#45;&gt;node10 -->
<g id="edge118" class="edge">
<title>node65&#45;&gt;node10</title>
<path fill="none" stroke="black" d="M517.04,-1132.52C528.91,-1136.92 539.87,-1143.44 548.15,-1153 608.34,-1222.46 522.17,-1497.14 584.15,-1565 600.36,-1582.74 623.93,-1591.31 647.62,-1594.98"/>
<polygon fill="black" stroke="black" points="647.4,-1598.48 657.76,-1596.26 648.28,-1591.53 647.4,-1598.48"/>
</g>
<!-- node65&#45;&gt;node31 -->
<g id="edge121" class="edge">
<title>node65&#45;&gt;node31</title>
<path fill="none" stroke="black" d="M497.56,-1113.54C516.42,-1106.87 535.37,-1096.65 548.15,-1081 607.52,-1008.35 539.62,-955.58 584.15,-873 611.41,-822.46 663.57,-779.9 698.73,-755.16"/>
<polygon fill="black" stroke="black" points="701.03,-757.82 707.27,-749.26 697.06,-752.06 701.03,-757.82"/>
</g>
<!-- node65&#45;&gt;node59 -->
<g id="edge119" class="edge">
<title>node65&#45;&gt;node59</title>
<path fill="none" stroke="black" d="M489.02,-1111.97C580.76,-1092.49 764.7,-1068.1 887.03,-1149 917.53,-1169.18 896.95,-1197.35 923.03,-1223 945.25,-1244.86 976.19,-1260.3 1003.27,-1270.63"/>
<polygon fill="black" stroke="black" points="1002.08,-1273.92 1012.67,-1274.07 1004.49,-1267.34 1002.08,-1273.92"/>
</g>
<!-- node65&#45;&gt;node69 -->
<g id="edge120" class="edge">
<title>node65&#45;&gt;node69</title>
<path fill="none" stroke="black" d="M508.94,-1135.65C522.73,-1139.61 536.44,-1145.18 548.15,-1153 570.93,-1168.2 560.99,-1188.4 584.15,-1203 602.47,-1214.54 624.39,-1221.47 645.76,-1225.55"/>
<polygon fill="black" stroke="black" points="645.4,-1229.04 655.85,-1227.28 646.59,-1222.14 645.4,-1229.04"/>
</g>
<!-- node65&#45;&gt;node87 -->
<g id="edge117" class="edge">
<title>node65&#45;&gt;node87</title>
<path fill="none" stroke="black" d="M494.19,-1112.77C513.53,-1106.01 533.61,-1095.94 548.15,-1081 581.11,-1047.16 548.07,-1011.48 584.15,-981 603.48,-964.67 629.29,-956.76 654.06,-953.26"/>
<polygon fill="black" stroke="black" points="654.7,-956.71 664.22,-952.06 653.88,-949.76 654.7,-956.71"/>
</g>
<!-- node66 -->
<g id="node67" class="node">
<title>node66</title>
<ellipse fill="none" stroke="black" cx="139.74" cy="-2590" rx="76.09" ry="18"/>
<text text-anchor="middle" x="139.74" y="-2586.3" font-family="Times,serif" font-size="14.00">parse_util.cpp</text>
</g>
<!-- node66&#45;&gt;node42 -->
<g id="edge122" class="edge">
<title>node66&#45;&gt;node42</title>
<path fill="none" stroke="black" d="M215.82,-2590C258.87,-2590 312.73,-2590 355.77,-2590"/>
<polygon fill="black" stroke="black" points="355.9,-2593.5 365.9,-2590 355.9,-2586.5 355.9,-2593.5"/>
</g>
<!-- node67 -->
<g id="node68" class="node">
<title>node67</title>
<ellipse fill="none" stroke="black" cx="1063.42" cy="-686" rx="79.89" ry="18"/>
<text text-anchor="middle" x="1063.42" y="-682.3" font-family="Times,serif" font-size="14.00">http_client.cpp</text>
</g>
<!-- node67&#45;&gt;node78 -->
<g id="edge123" class="edge">
<title>node67&#45;&gt;node78</title>
<path fill="none" stroke="black" d="M1127.57,-696.75C1151.84,-701.85 1179.52,-708.86 1203.8,-718 1246.99,-734.26 1293.16,-760.47 1323.55,-779.08"/>
<polygon fill="black" stroke="black" points="1321.72,-782.07 1332.07,-784.36 1325.41,-776.12 1321.72,-782.07"/>
</g>
<!-- node69&#45;&gt;node50 -->
<g id="edge124" class="edge">
<title>node69&#45;&gt;node50</title>
<path fill="none" stroke="black" d="M808.9,-1222.45C865.35,-1216.56 943.08,-1208.45 997.54,-1202.77"/>
<polygon fill="black" stroke="black" points="998.18,-1206.22 1007.77,-1201.7 997.46,-1199.26 998.18,-1206.22"/>
</g>
<!-- node71 -->
<g id="node72" class="node">
<title>node71</title>
<ellipse fill="none" stroke="black" cx="431.81" cy="-478" rx="64.19" ry="18"/>
<text text-anchor="middle" x="431.81" y="-474.3" font-family="Times,serif" font-size="14.00">version.cpp</text>
</g>
<!-- node71&#45;&gt;node70 -->
<g id="edge125" class="edge">
<title>node71&#45;&gt;node70</title>
<path fill="none" stroke="black" d="M496.45,-478C547.89,-478 619.96,-478 671.31,-478"/>
<polygon fill="black" stroke="black" points="671.61,-481.5 681.61,-478 671.61,-474.5 671.61,-481.5"/>
</g>
<!-- node72 -->
<g id="node73" class="node">
<title>node72</title>
<ellipse fill="none" stroke="black" cx="1358.74" cy="-1694" rx="83.39" ry="18"/>
<text text-anchor="middle" x="1358.74" y="-1690.3" font-family="Times,serif" font-size="14.00">span_matcher.h</text>
</g>
<!-- node72&#45;&gt;node13 -->
<g id="edge126" class="edge">
<title>node72&#45;&gt;node13</title>
<path fill="none" stroke="black" d="M1429.69,-1684.51C1446.61,-1679.76 1463.79,-1672.65 1477.68,-1662 1530.4,-1621.56 1561.77,-1546.99 1575.65,-1506.65"/>
<polygon fill="black" stroke="black" points="1579.04,-1507.53 1578.88,-1496.94 1572.4,-1505.32 1579.04,-1507.53"/>
</g>
<!-- node72&#45;&gt;node30 -->
<g id="edge127" class="edge">
<title>node72&#45;&gt;node30</title>
<path fill="none" stroke="black" d="M1442.04,-1694C1461.96,-1694 1483.24,-1694 1503.1,-1694"/>
<polygon fill="black" stroke="black" points="1503.35,-1697.5 1513.35,-1694 1503.35,-1690.5 1503.35,-1697.5"/>
</g>
<!-- node73&#45;&gt;node13 -->
<g id="edge129" class="edge">
<title>node73&#45;&gt;node13</title>
<path fill="none" stroke="black" d="M1146.12,-1681.35C1266.07,-1662.75 1475.92,-1630.09 1477.68,-1629 1524.88,-1599.76 1557.08,-1541.06 1572.89,-1506.4"/>
<polygon fill="black" stroke="black" points="1576.25,-1507.45 1577.09,-1496.89 1569.85,-1504.62 1576.25,-1507.45"/>
</g>
<!-- node73&#45;&gt;node18 -->
<g id="edge130" class="edge">
<title>node73&#45;&gt;node18</title>
<path fill="none" stroke="black" d="M1157.51,-1683.38C1173.47,-1679.5 1189.49,-1674.21 1203.8,-1667 1223.19,-1657.24 1220.79,-1644.47 1239.8,-1634 1261.96,-1621.8 1289.06,-1614.02 1311.7,-1609.19"/>
<polygon fill="black" stroke="black" points="1312.63,-1612.57 1321.75,-1607.18 1311.26,-1605.71 1312.63,-1612.57"/>
</g>
<!-- node73&#45;&gt;node72 -->
<g id="edge128" class="edge">
<title>node73&#45;&gt;node72</title>
<path fill="none" stroke="black" d="M1179.5,-1694C1207.83,-1694 1237.8,-1694 1264.92,-1694"/>
<polygon fill="black" stroke="black" points="1265.16,-1697.5 1275.16,-1694 1265.16,-1690.5 1265.16,-1697.5"/>
</g>
<!-- node74 -->
<g id="node75" class="node">
<title>node74</title>
<ellipse fill="none" stroke="black" cx="735.59" cy="-1754" rx="118.08" ry="18"/>
<text text-anchor="middle" x="735.59" y="-1750.3" font-family="Times,serif" font-size="14.00">propagation_styles.cpp</text>
</g>
<!-- node74&#45;&gt;node83 -->
<g id="edge131" class="edge">
<title>node74&#45;&gt;node83</title>
<path fill="none" stroke="black" d="M841.17,-1762.13C857.3,-1766.33 873.18,-1772.37 887.03,-1781 909.96,-1795.29 900.44,-1815.16 923.03,-1830 935.62,-1838.28 950.08,-1844.43 964.81,-1849"/>
<polygon fill="black" stroke="black" points="963.94,-1852.39 974.52,-1851.78 965.87,-1845.66 963.94,-1852.39"/>
</g>
<!-- node76 -->
<g id="node77" class="node">
<title>node76</title>
<ellipse fill="none" stroke="black" cx="431.81" cy="-2499" rx="94.48" ry="18"/>
<text text-anchor="middle" x="431.81" y="-2495.3" font-family="Times,serif" font-size="14.00">span_matcher.cpp</text>
</g>
<!-- node76&#45;&gt;node7 -->
<g id="edge132" class="edge">
<title>node76&#45;&gt;node7</title>
<path fill="none" stroke="black" d="M525.56,-2496.85C651.21,-2492.99 862.74,-2482.7 887.03,-2457 964.3,-2375.22 860.9,-1538.81 923.03,-1445 942.25,-1415.97 978.05,-1399.65 1008.56,-1390.63"/>
<polygon fill="black" stroke="black" points="1009.54,-1393.98 1018.25,-1387.94 1007.68,-1387.24 1009.54,-1393.98"/>
</g>
<!-- node76&#45;&gt;node20 -->
<g id="edge133" class="edge">
<title>node76&#45;&gt;node20</title>
<path fill="none" stroke="black" d="M504.06,-2487.33C521.08,-2481.11 537.4,-2471.58 548.15,-2457 596.35,-2391.64 530.53,-1787.99 584.15,-1727 603.35,-1705.17 633.66,-1697.08 662.07,-1694.97"/>
<polygon fill="black" stroke="black" points="662.61,-1698.44 672.42,-1694.44 662.25,-1691.45 662.61,-1698.44"/>
</g>
<!-- node76&#45;&gt;node32 -->
<g id="edge135" class="edge">
<title>node76&#45;&gt;node32</title>
<path fill="none" stroke="black" d="M477.98,-2514.82C580.51,-2549.26 839.26,-2628 1062.42,-2628 1062.42,-2628 1062.42,-2628 1359.74,-2628 1574.43,-2628 1574.8,-2445.46 1656.67,-2247 1703.36,-2133.82 1726.77,-1745.81 1732.5,-1637.36"/>
<polygon fill="black" stroke="black" points="1736,-1637.37 1733.03,-1627.2 1729.01,-1637 1736,-1637.37"/>
</g>
<!-- node76&#45;&gt;node72 -->
<g id="edge134" class="edge">
<title>node76&#45;&gt;node72</title>
<path fill="none" stroke="black" d="M477.22,-2514.86C567.44,-2543.92 773.25,-2593.66 887.03,-2489 942.95,-2437.56 873.74,-2206.82 923.03,-2149 1006.9,-2050.62 1107.01,-2158.7 1203.8,-2073 1312.32,-1976.92 1345.65,-1793.17 1354.71,-1722.59"/>
<polygon fill="black" stroke="black" points="1358.23,-1722.61 1355.96,-1712.26 1351.28,-1721.77 1358.23,-1722.61"/>
</g>
<!-- node77 -->
<g id="node78" class="node">
<title>node77</title>
<ellipse fill="none" stroke="black" cx="139.74" cy="-149" rx="139.98" ry="18"/>
<text text-anchor="middle" x="139.74" y="-145.3" font-family="Times,serif" font-size="14.00">default_http_client_curl.cpp</text>
</g>
<!-- node77&#45;&gt;node25 -->
<g id="edge136" class="edge">
<title>node77&#45;&gt;node25</title>
<path fill="none" stroke="black" d="M176.18,-131.56C210.76,-115.53 265.35,-92.81 315.48,-83 540.49,-38.96 810.87,-46.68 956.7,-55.67"/>
<polygon fill="black" stroke="black" points="956.78,-59.19 966.98,-56.32 957.22,-52.2 956.78,-59.19"/>
</g>
<!-- node77&#45;&gt;node37 -->
<g id="edge137" class="edge">
<title>node77&#45;&gt;node37</title>
<path fill="none" stroke="black" d="M189.62,-165.85C246.35,-185.41 338.8,-217.28 391.24,-235.36"/>
<polygon fill="black" stroke="black" points="390.26,-238.72 400.85,-238.67 392.54,-232.1 390.26,-238.72"/>
</g>
<!-- node78&#45;&gt;node13 -->
<g id="edge138" class="edge">
<title>node78&#45;&gt;node13</title>
<path fill="none" stroke="black" d="M1375.86,-818.89C1401.51,-848.36 1451.4,-909.96 1477.68,-971 1551.88,-1143.32 1575.83,-1371.37 1582.18,-1450.51"/>
<polygon fill="black" stroke="black" points="1578.71,-1450.97 1582.97,-1460.67 1585.69,-1450.43 1578.71,-1450.97"/>
</g>
<!-- node78&#45;&gt;node32 -->
<g id="edge139" class="edge">
<title>node78&#45;&gt;node32</title>
<path fill="none" stroke="black" d="M1387.67,-817.6C1448.27,-855.27 1591.6,-953.71 1656.67,-1078 1703.32,-1167.11 1726.23,-1483.67 1732.26,-1580.59"/>
<polygon fill="black" stroke="black" points="1728.78,-1581.02 1732.88,-1590.79 1735.77,-1580.6 1728.78,-1581.02"/>
</g>
<!-- node79 -->
<g id="node80" class="node">
<title>node79</title>
<ellipse fill="none" stroke="black" cx="139.74" cy="-1692" rx="57.69" ry="18"/>
<text text-anchor="middle" x="139.74" y="-1688.3" font-family="Times,serif" font-size="14.00">tracer.cpp</text>
</g>
<!-- node79&#45;&gt;node3 -->
<g id="edge140" class="edge">
<title>node79&#45;&gt;node3</title>
<path fill="none" stroke="black" d="M150.69,-1709.96C173.63,-1749.25 234.53,-1842.11 315.48,-1877 445.52,-1933.05 616.3,-1866.18 693.53,-1829.27"/>
<polygon fill="black" stroke="black" points="695.45,-1832.23 702.91,-1824.71 692.39,-1825.93 695.45,-1832.23"/>
</g>
<!-- node79&#45;&gt;node8 -->
<g id="edge143" class="edge">
<title>node79&#45;&gt;node8</title>
<path fill="none" stroke="black" d="M143.69,-1710.01C154.29,-1768.14 196.38,-1951.2 315.48,-2023 404.04,-2076.39 445.09,-2031.51 548.15,-2023 569.88,-2021.21 619.26,-2012.93 661.75,-2005.37"/>
<polygon fill="black" stroke="black" points="662.59,-2008.78 671.82,-2003.58 661.36,-2001.89 662.59,-2008.78"/>
</g>
<!-- node79&#45;&gt;node11 -->
<g id="edge153" class="edge">
<title>node79&#45;&gt;node11</title>
<path fill="none" stroke="black" d="M142.65,-1673.92C153.35,-1576.23 209.28,-1112.8 315.48,-1027 371.16,-982.01 588.48,-994.91 686.34,-1003.32"/>
<polygon fill="black" stroke="black" points="686.28,-1006.83 696.55,-1004.22 686.9,-999.86 686.28,-1006.83"/>
</g>
<!-- node79&#45;&gt;node15 -->
<g id="edge144" class="edge">
<title>node79&#45;&gt;node15</title>
<path fill="none" stroke="black" d="M143.65,-1710.03C158.26,-1797.94 226.28,-2180.48 315.48,-2254 343.42,-2277.04 578.65,-2291.95 683.96,-2297.53"/>
<polygon fill="black" stroke="black" points="683.87,-2301.03 694.04,-2298.05 684.23,-2294.04 683.87,-2301.03"/>
</g>
<!-- node79&#45;&gt;node20 -->
<g id="edge150" class="edge">
<title>node79&#45;&gt;node20</title>
<path fill="none" stroke="black" d="M165.15,-1675.66C197.76,-1654.91 258.11,-1620.21 315.48,-1607 416.25,-1583.79 459.23,-1554.21 548.15,-1607 576.89,-1624.06 557.05,-1653.46 584.15,-1673 605.63,-1688.48 633.21,-1695.99 658.88,-1699.4"/>
<polygon fill="black" stroke="black" points="658.65,-1702.9 668.98,-1700.55 659.44,-1695.94 658.65,-1702.9"/>
</g>
<!-- node79&#45;&gt;node31 -->
<g id="edge145" class="edge">
<title>node79&#45;&gt;node31</title>
<path fill="none" stroke="black" d="M141.21,-1673.75C144.7,-1554.05 170.62,-882.21 315.48,-755 362.55,-713.66 535.48,-717.48 643.95,-724.44"/>
<polygon fill="black" stroke="black" points="644.03,-727.95 654.24,-725.12 644.5,-720.97 644.03,-727.95"/>
</g>
<!-- node79&#45;&gt;node34 -->
<g id="edge146" class="edge">
<title>node79&#45;&gt;node34</title>
<path fill="none" stroke="black" d="M157.91,-1674.48C187.95,-1644.44 252.82,-1582.29 315.48,-1540 426.58,-1465.01 457.11,-1445.74 584.15,-1403 603.61,-1396.46 625.04,-1391.4 645.47,-1387.53"/>
<polygon fill="black" stroke="black" points="646.2,-1390.96 655.41,-1385.73 644.95,-1384.07 646.2,-1390.96"/>
</g>
<!-- node79&#45;&gt;node35 -->
<g id="edge147" class="edge">
<title>node79&#45;&gt;node35</title>
<path fill="none" stroke="black" d="M140.76,-1673.74C141.33,-1546.18 151.62,-789.64 315.48,-651 363.96,-609.98 831.99,-619.31 887.03,-651 914.64,-666.9 901.77,-689.26 923.03,-713 953.49,-747.03 996.84,-776.92 1027.08,-795.61"/>
<polygon fill="black" stroke="black" points="1025.65,-798.84 1036.01,-801.04 1029.29,-792.86 1025.65,-798.84"/>
</g>
<!-- node79&#45;&gt;node41 -->
<g id="edge142" class="edge">
<title>node79&#45;&gt;node41</title>
<path fill="none" stroke="black" d="M140.18,-1710.17C138.76,-1790.61 144.06,-2118.14 315.48,-2287 331.39,-2302.67 354.27,-2310.83 375.46,-2315.01"/>
<polygon fill="black" stroke="black" points="374.92,-2318.47 385.37,-2316.72 376.11,-2311.57 374.92,-2318.47"/>
</g>
<!-- node79&#45;&gt;node42 -->
<g id="edge149" class="edge">
<title>node79&#45;&gt;node42</title>
<path fill="none" stroke="black" d="M142.48,-1710.02C153.26,-1818.85 213.96,-2388.33 315.48,-2526 331.18,-2547.3 356.22,-2562.41 378.95,-2572.58"/>
<polygon fill="black" stroke="black" points="377.62,-2575.82 388.19,-2576.51 380.36,-2569.38 377.62,-2575.82"/>
</g>
<!-- node79&#45;&gt;node55 -->
<g id="edge148" class="edge">
<title>node79&#45;&gt;node55</title>
<path fill="none" stroke="black" d="M158.15,-1674.68C187.55,-1646.81 250.24,-1593.11 315.48,-1573 414.3,-1542.54 455.19,-1527.7 548.15,-1573 571.49,-1584.37 561.92,-1605.6 584.15,-1619 601.73,-1629.59 622.42,-1636.25 642.74,-1640.38"/>
<polygon fill="black" stroke="black" points="642.2,-1643.84 652.67,-1642.21 643.47,-1636.95 642.2,-1643.84"/>
</g>
<!-- node79&#45;&gt;node60 -->
<g id="edge141" class="edge">
<title>node79&#45;&gt;node60</title>
<path fill="none" stroke="black" d="M143,-1710.15C155.37,-1806.2 217.68,-2254.21 315.48,-2346 340.49,-2369.48 548.05,-2402.87 661.38,-2419.6"/>
<polygon fill="black" stroke="black" points="660.98,-2423.08 671.38,-2421.07 662,-2416.15 660.98,-2423.08"/>
</g>
<!-- node79&#45;&gt;node62 -->
<g id="edge152" class="edge">
<title>node79&#45;&gt;node62</title>
<path fill="none" stroke="black" d="M170.68,-1707.24C204.95,-1724.2 263.12,-1751.51 315.48,-1769 333.91,-1775.16 354.45,-1780.45 373.04,-1784.68"/>
<polygon fill="black" stroke="black" points="372.32,-1788.1 382.84,-1786.85 373.84,-1781.27 372.32,-1788.1"/>
</g>
<!-- node79&#45;&gt;node75 -->
<g id="edge151" class="edge">
<title>node79&#45;&gt;node75</title>
<path fill="none" stroke="black" d="M141.71,-1673.99C150.45,-1514.03 217.77,-340.05 315.48,-222 359.2,-169.16 552.84,-134.82 660.95,-119.4"/>
<polygon fill="black" stroke="black" points="661.73,-122.82 671.14,-117.96 660.75,-115.89 661.73,-122.82"/>
</g>
<!-- node80 -->
<g id="node81" class="node">
<title>node80</title>
<ellipse fill="none" stroke="black" cx="1063.42" cy="-2176" rx="53.89" ry="18"/>
<text text-anchor="middle" x="1063.42" y="-2172.3" font-family="Times,serif" font-size="14.00">clock.cpp</text>
</g>
<!-- node80&#45;&gt;node36 -->
<g id="edge154" class="edge">
<title>node80&#45;&gt;node36</title>
<path fill="none" stroke="black" d="M1109.9,-2166.76C1137.29,-2160.9 1172.74,-2152.79 1203.8,-2144 1242.38,-2133.09 1285.57,-2118.26 1316.36,-2107.24"/>
<polygon fill="black" stroke="black" points="1317.68,-2110.48 1325.9,-2103.8 1315.3,-2103.9 1317.68,-2110.48"/>
</g>
<!-- node81 -->
<g id="node82" class="node">
<title>node81</title>
<ellipse fill="none" stroke="black" cx="431.81" cy="-1180" rx="116.18" ry="18"/>
<text text-anchor="middle" x="431.81" y="-1176.3" font-family="Times,serif" font-size="14.00">collector_response.cpp</text>
</g>
<!-- node81&#45;&gt;node53 -->
<g id="edge155" class="edge">
<title>node81&#45;&gt;node53</title>
<path fill="none" stroke="black" d="M547.76,-1178.48C571.38,-1178.16 596.23,-1177.83 619.84,-1177.52"/>
<polygon fill="black" stroke="black" points="619.92,-1181.02 629.87,-1177.39 619.82,-1174.02 619.92,-1181.02"/>
</g>
<!-- node82&#45;&gt;node23 -->
<g id="edge156" class="edge">
<title>node82&#45;&gt;node23</title>
<path fill="none" stroke="black" d="M835.01,-2248.22C942.13,-2250.63 1113.74,-2254.5 1230.89,-2257.14"/>
<polygon fill="black" stroke="black" points="1230.92,-2260.64 1240.99,-2257.37 1231.07,-2253.64 1230.92,-2260.64"/>
</g>
<!-- node84 -->
<g id="node85" class="node">
<title>node84</title>
<ellipse fill="none" stroke="black" cx="735.59" cy="-2100" rx="60.39" ry="18"/>
<text text-anchor="middle" x="735.59" y="-2096.3" font-family="Times,serif" font-size="14.00">limiter.cpp</text>
</g>
<!-- node84&#45;&gt;node14 -->
<g id="edge157" class="edge">
<title>node84&#45;&gt;node14</title>
<path fill="none" stroke="black" d="M796.3,-2100.01C825.68,-2097.48 860.4,-2090.46 887.03,-2073 911.15,-2057.19 899.01,-2034.98 923.03,-2019 946.4,-2003.45 976.56,-1996.39 1002.85,-1993.35"/>
<polygon fill="black" stroke="black" points="1003.48,-1996.8 1013.08,-1992.34 1002.79,-1989.84 1003.48,-1996.8"/>
</g>
<!-- node85 -->
<g id="node86" class="node">
<title>node85</title>
<ellipse fill="none" stroke="black" cx="1585.18" cy="-2674" rx="53.09" ry="18"/>
<text text-anchor="middle" x="1585.18" y="-2670.3" font-family="Times,serif" font-size="14.00">error.cpp</text>
</g>
<!-- node85&#45;&gt;node32 -->
<g id="edge158" class="edge">
<title>node85&#45;&gt;node32</title>
<path fill="none" stroke="black" d="M1628.66,-2663.27C1639.45,-2658.51 1649.9,-2651.7 1656.67,-2642 1715.69,-2557.5 1730.95,-1795.96 1733.49,-1637.72"/>
<polygon fill="black" stroke="black" points="1737,-1637.44 1733.66,-1627.38 1730,-1637.33 1737,-1637.44"/>
</g>
<!-- node86&#45;&gt;node13 -->
<g id="edge160" class="edge">
<title>node86&#45;&gt;node13</title>
<path fill="none" stroke="black" d="M1099.65,-1454.69C1142.29,-1434.11 1211.86,-1401.79 1239.8,-1396 1343.32,-1374.53 1377.7,-1361.64 1477.68,-1396 1511.1,-1407.48 1542.09,-1434.22 1561.92,-1454.27"/>
<polygon fill="black" stroke="black" points="1559.5,-1456.8 1568.95,-1461.58 1564.54,-1451.95 1559.5,-1456.8"/>
</g>
<!-- node86&#45;&gt;node18 -->
<g id="edge161" class="edge">
<title>node86&#45;&gt;node18</title>
<path fill="none" stroke="black" d="M1102.76,-1489C1159.57,-1514.17 1265.38,-1561.06 1321.16,-1585.79"/>
<polygon fill="black" stroke="black" points="1319.76,-1588.99 1330.32,-1589.84 1322.59,-1582.59 1319.76,-1588.99"/>
</g>
<!-- node86&#45;&gt;node72 -->
<g id="edge159" class="edge">
<title>node86&#45;&gt;node72</title>
<path fill="none" stroke="black" d="M1081.7,-1489.94C1111.92,-1520.72 1177.14,-1584.55 1239.8,-1629 1263.18,-1645.58 1291.22,-1661.19 1314.09,-1672.96"/>
<polygon fill="black" stroke="black" points="1312.72,-1676.19 1323.23,-1677.59 1315.89,-1669.94 1312.72,-1676.19"/>
</g>
<!-- node87&#45;&gt;node35 -->
<g id="edge162" class="edge">
<title>node87&#45;&gt;node35</title>
<path fill="none" stroke="black" d="M807.19,-955.21C834.6,-952.36 864.7,-944.75 887.03,-927 918.82,-901.72 891.41,-868.5 923.03,-843 945.91,-824.55 977.73,-817.43 1005.18,-815.09"/>
<polygon fill="black" stroke="black" points="1005.72,-818.56 1015.47,-814.41 1005.26,-811.57 1005.72,-818.56"/>
</g>
<!-- node88 -->
<g id="node89" class="node">
<title>node88</title>
<ellipse fill="none" stroke="black" cx="431.81" cy="-1054" rx="50.09" ry="18"/>
<text text-anchor="middle" x="431.81" y="-1050.3" font-family="Times,serif" font-size="14.00">tags.cpp</text>
</g>
<!-- node88&#45;&gt;node11 -->
<g id="edge163" class="edge">
<title>node88&#45;&gt;node11</title>
<path fill="none" stroke="black" d="M478.32,-1047.06C534.74,-1038.46 630.43,-1023.88 687.56,-1015.17"/>
<polygon fill="black" stroke="black" points="688.4,-1018.58 697.75,-1013.61 687.34,-1011.66 688.4,-1018.58"/>
</g>
<!-- node89 -->
<g id="node90" class="node">
<title>node89</title>
<ellipse fill="none" stroke="black" cx="431.81" cy="-1276" rx="98.58" ry="18"/>
<text text-anchor="middle" x="431.81" y="-1272.3" font-family="Times,serif" font-size="14.00">trace_segment.cpp</text>
</g>
<!-- node89&#45;&gt;node3 -->
<g id="edge164" class="edge">
<title>node89&#45;&gt;node3</title>
<path fill="none" stroke="black" d="M440.04,-1294.03C459.63,-1343.42 514.52,-1485.29 548.15,-1607 569.19,-1683.12 527.58,-1725.9 584.15,-1781 598.78,-1795.24 618.19,-1803.36 638.2,-1807.75"/>
<polygon fill="black" stroke="black" points="637.57,-1811.2 648.05,-1809.62 638.88,-1804.32 637.57,-1811.2"/>
</g>
<!-- node89&#45;&gt;node5 -->
<g id="edge172" class="edge">
<title>node89&#45;&gt;node5</title>
<path fill="none" stroke="black" d="M478.5,-1260.11C503.18,-1249.1 531.86,-1231.89 548.15,-1207 616.89,-1102.03 497.67,-1017.9 584.15,-927 603.05,-907.14 631.19,-898.91 658.04,-896.16"/>
<polygon fill="black" stroke="black" points="658.55,-899.63 668.25,-895.36 658,-892.66 658.55,-899.63"/>
</g>
<!-- node89&#45;&gt;node8 -->
<g id="edge167" class="edge">
<title>node89&#45;&gt;node8</title>
<path fill="none" stroke="black" d="M440.8,-1294.24C462.05,-1343.56 520.21,-1484.17 548.15,-1607 564.03,-1676.78 541.56,-1869.5 584.15,-1927 602.87,-1952.27 633.46,-1967.83 662.18,-1977.36"/>
<polygon fill="black" stroke="black" points="661.24,-1980.74 671.83,-1980.37 663.33,-1974.05 661.24,-1980.74"/>
</g>
<!-- node89&#45;&gt;node11 -->
<g id="edge173" class="edge">
<title>node89&#45;&gt;node11</title>
<path fill="none" stroke="black" d="M476.86,-1259.97C501.47,-1248.79 530.62,-1231.46 548.15,-1207 592.39,-1145.29 530.39,-1093.62 584.15,-1040 610.51,-1013.71 652.78,-1006.57 685.81,-1005.51"/>
<polygon fill="black" stroke="black" points="686.22,-1009 696.17,-1005.36 686.13,-1002.01 686.22,-1009"/>
</g>
<!-- node89&#45;&gt;node20 -->
<g id="edge168" class="edge">
<title>node89&#45;&gt;node20</title>
<path fill="none" stroke="black" d="M439.97,-1294.09C458.27,-1340.48 508.2,-1467.53 548.15,-1574 564.61,-1617.83 548.34,-1642.85 584.15,-1673 604.94,-1690.5 633.18,-1698.32 659.57,-1701.41"/>
<polygon fill="black" stroke="black" points="659.29,-1704.89 669.57,-1702.37 659.95,-1697.93 659.29,-1704.89"/>
</g>
<!-- node89&#45;&gt;node32 -->
<g id="edge174" class="edge">
<title>node89&#45;&gt;node32</title>
<path fill="none" stroke="black" d="M470.17,-1259.4C494.39,-1247.34 525.53,-1229.25 548.15,-1207 569.78,-1185.72 558.62,-1165.39 584.15,-1149 764.29,-1033.35 848.35,-1092 1062.42,-1092 1062.42,-1092 1062.42,-1092 1359.74,-1092 1603.42,-1092 1704.57,-1473.56 1728.24,-1581.1"/>
<polygon fill="black" stroke="black" points="1724.82,-1581.86 1730.34,-1590.9 1731.66,-1580.39 1724.82,-1581.86"/>
</g>
<!-- node89&#45;&gt;node34 -->
<g id="edge169" class="edge">
<title>node89&#45;&gt;node34</title>
<path fill="none" stroke="black" d="M462.25,-1293.18C492.04,-1309.84 539.89,-1334.65 584.15,-1349 603.89,-1355.4 625.61,-1360.41 646.26,-1364.28"/>
<polygon fill="black" stroke="black" points="645.83,-1367.76 656.29,-1366.09 647.07,-1360.87 645.83,-1367.76"/>
</g>
<!-- node89&#45;&gt;node35 -->
<g id="edge170" class="edge">
<title>node89&#45;&gt;node35</title>
<path fill="none" stroke="black" d="M475.76,-1259.83C500.3,-1248.53 529.75,-1231.11 548.15,-1207 584.27,-1159.68 539.4,-1117.24 584.15,-1078 686.38,-988.37 788.78,-1128.98 887.03,-1035 949.76,-974.98 861.82,-904.57 923.03,-843 944.39,-821.51 977.36,-814.44 1005.88,-812.88"/>
<polygon fill="black" stroke="black" points="1006.28,-816.37 1016.16,-812.54 1006.05,-809.38 1006.28,-816.37"/>
</g>
<!-- node89&#45;&gt;node50 -->
<g id="edge165" class="edge">
<title>node89&#45;&gt;node50</title>
<path fill="none" stroke="black" d="M510.05,-1287.05C602.83,-1297.15 761.64,-1304.19 887.03,-1257 906.26,-1249.76 904.54,-1236.97 923.03,-1228 946.49,-1216.61 974.16,-1209.18 998.64,-1204.38"/>
<polygon fill="black" stroke="black" points="999.36,-1207.81 1008.56,-1202.54 998.09,-1200.92 999.36,-1207.81"/>
</g>
<!-- node89&#45;&gt;node53 -->
<g id="edge166" class="edge">
<title>node89&#45;&gt;node53</title>
<path fill="none" stroke="black" d="M462.25,-1258.82C492.04,-1242.16 539.89,-1217.35 584.15,-1203 602.21,-1197.15 621.92,-1192.46 640.95,-1188.74"/>
<polygon fill="black" stroke="black" points="641.65,-1192.17 650.83,-1186.88 640.36,-1185.29 641.65,-1192.17"/>
</g>
<!-- node89&#45;&gt;node55 -->
<g id="edge171" class="edge">
<title>node89&#45;&gt;node55</title>
<path fill="none" stroke="black" d="M440.84,-1293.94C459.68,-1336.12 508.18,-1444.88 548.15,-1536 564.31,-1572.82 552.63,-1594.04 584.15,-1619 600.34,-1631.81 620.57,-1639.33 640.9,-1643.59"/>
<polygon fill="black" stroke="black" points="640.4,-1647.05 650.87,-1645.42 641.67,-1640.17 640.4,-1647.05"/>
</g>
<!-- node90 -->
<g id="node91" class="node">
<title>node90</title>
<ellipse fill="none" stroke="black" cx="735.59" cy="-1484" rx="126.18" ry="18"/>
<text text-anchor="middle" x="735.59" y="-1480.3" font-family="Times,serif" font-size="14.00">span_sampler_config.cpp</text>
</g>
<!-- node90&#45;&gt;node7 -->
<g id="edge177" class="edge">
<title>node90&#45;&gt;node7</title>
<path fill="none" stroke="black" d="M843.63,-1474.65C858.85,-1470.56 873.8,-1464.87 887.03,-1457 909.04,-1443.9 901.34,-1425.62 923.03,-1412 947.06,-1396.9 977.43,-1388.91 1003.68,-1384.68"/>
<polygon fill="black" stroke="black" points="1004.5,-1388.1 1013.89,-1383.19 1003.49,-1381.17 1004.5,-1388.1"/>
</g>
<!-- node90&#45;&gt;node13 -->
<g id="edge178" class="edge">
<title>node90&#45;&gt;node13</title>
<path fill="none" stroke="black" d="M851.33,-1476.84C864.35,-1472.28 876.64,-1465.88 887.03,-1457 924.2,-1425.21 883.18,-1381.37 923.03,-1353 973.25,-1317.24 1421.62,-1344.32 1477.68,-1370 1516.58,-1387.82 1548.83,-1426.62 1567.31,-1452.79"/>
<polygon fill="black" stroke="black" points="1564.49,-1454.87 1573.04,-1461.13 1570.26,-1450.9 1564.49,-1454.87"/>
</g>
<!-- node90&#45;&gt;node35 -->
<g id="edge175" class="edge">
<title>node90&#45;&gt;node35</title>
<path fill="none" stroke="black" d="M856.04,-1478.51C867.78,-1473.57 878.49,-1466.63 887.03,-1457 977.75,-1354.78 833.01,-945.84 923.03,-843 943.36,-819.77 977.16,-812.81 1006.38,-811.76"/>
<polygon fill="black" stroke="black" points="1006.54,-815.25 1016.49,-811.61 1006.45,-808.25 1006.54,-815.25"/>
</g>
<!-- node90&#45;&gt;node59 -->
<g id="edge179" class="edge">
<title>node90&#45;&gt;node59</title>
<path fill="none" stroke="black" d="M852.75,-1477.31C865.37,-1472.65 877.18,-1466.09 887.03,-1457 933.28,-1414.28 877.82,-1363.81 923.03,-1320 937.29,-1306.18 956.25,-1297.87 975.57,-1292.98"/>
<polygon fill="black" stroke="black" points="976.38,-1296.38 985.38,-1290.78 974.85,-1289.55 976.38,-1296.38"/>
</g>
<!-- node90&#45;&gt;node73 -->
<g id="edge176" class="edge">
<title>node90&#45;&gt;node73</title>
<path fill="none" stroke="black" d="M853.39,-1490.54C865.82,-1495.25 877.42,-1501.85 887.03,-1511 938.56,-1560.06 871.83,-1617.59 923.03,-1667 930,-1673.73 938.13,-1679.04 946.88,-1683.19"/>
<polygon fill="black" stroke="black" points="945.63,-1686.46 956.21,-1687.11 948.35,-1680.01 945.63,-1686.46"/>
</g>
</g>
</svg>
