<?xml version="1.0" encoding="UTF-8" standalone="no"?>
<!DOCTYPE svg PUBLIC "-//W3C//DTD SVG 1.1//EN"
 "http://www.w3.org/Graphics/SVG/1.1/DTD/svg11.dtd">
<!-- Generated by graphviz version 2.43.0 (0)
 -->
<!-- Title: %3 Pages: 1 -->
<svg width="508pt" height="225pt"
 viewBox="0.00 0.00 508.44 224.74" xmlns="http://www.w3.org/2000/svg" xmlns:xlink="http://www.w3.org/1999/xlink">
<g id="graph0" class="graph" transform="scale(1 1) rotate(0) translate(4 220.74)">
<title>%3</title>
<polygon fill="white" stroke="transparent" points="-4,4 -4,-220.74 504.44,-220.74 504.44,4 -4,4"/>
<g id="clust1" class="cluster">
<title>cluster_docker_compose</title>
<polygon fill="none" stroke="black" stroke-dasharray="1,5" points="86.44,-8 86.44,-172.74 492.44,-172.74 492.44,-8 86.44,-8"/>
<text text-anchor="middle" x="289.44" y="-157.54" font-family="Times,serif" font-size="14.00">docker compose</text>
</g>
<!-- curl -->
<g id="node1" class="node">
<title>curl</title>
<ellipse fill="none" stroke="black" cx="151.44" cy="-198.74" rx="151.37" ry="18"/>
<text text-anchor="middle" x="151.44" y="-195.04" font-family="Times,serif" font-size="14.00">curl &#39;http://localhost:8000/[...]&#39;</text>
</g>
<!-- proxy -->
<g id="node2" class="node">
<title>proxy</title>
<ellipse fill="none" stroke="black" cx="151.44" cy="-114.87" rx="57.05" ry="26.74"/>
<text text-anchor="middle" x="151.44" y="-118.67" font-family="Times,serif" font-size="14.00">Proxy</text>
<text text-anchor="middle" x="151.44" y="-103.67" font-family="Times,serif" font-size="14.00">(Node.js)</text>
</g>
<!-- curl&#45;&gt;proxy -->
<g id="edge1" class="edge">
<title>curl&#45;&gt;proxy</title>
<path fill="none" stroke="black" d="M151.44,-180.38C151.44,-172.09 151.44,-161.84 151.44,-151.97"/>
<polygon fill="black" stroke="black" points="154.94,-151.92 151.44,-141.92 147.94,-151.92 154.94,-151.92"/>
</g>
<!-- server -->
<g id="node3" class="node">
<title>server</title>
<ellipse fill="none" stroke="black" cx="287.44" cy="-114.87" rx="60.62" ry="26.74"/>
<text text-anchor="middle" x="287.44" y="-118.67" font-family="Times,serif" font-size="14.00">Server ⭐</text>
<text text-anchor="middle" x="287.44" y="-103.67" font-family="Times,serif" font-size="14.00">(C++)</text>
</g>
<!-- proxy&#45;&gt;server -->
<g id="edge2" class="edge">
<title>proxy&#45;&gt;server</title>
<path fill="none" stroke="black" d="M208.81,-114.87C211.41,-114.87 214.01,-114.87 216.6,-114.87"/>
<polygon fill="black" stroke="black" points="216.63,-118.37 226.63,-114.87 216.63,-111.37 216.63,-118.37"/>
</g>
<!-- agent -->
<g id="node5" class="node">
<title>agent</title>
<ellipse fill="none" stroke="black" cx="287.44" cy="-34" rx="79.89" ry="18"/>
<text text-anchor="middle" x="287.44" y="-30.3" font-family="Times,serif" font-size="14.00">Datadog Agent</text>
</g>
<!-- proxy&#45;&gt;agent -->
<g id="edge4" class="edge">
<title>proxy&#45;&gt;agent</title>
<path fill="none" stroke="black" d="M186.46,-93.56C206.25,-82.08 230.96,-67.75 250.99,-56.14"/>
<polygon fill="black" stroke="black" points="252.93,-59.06 259.82,-51.02 249.41,-53 252.93,-59.06"/>
</g>
<!-- database -->
<g id="node4" class="node">
<title>database</title>
<ellipse fill="none" stroke="black" cx="425.44" cy="-114.87" rx="58.88" ry="26.74"/>
<text text-anchor="middle" x="425.44" y="-118.67" font-family="Times,serif" font-size="14.00">Database</text>
<text text-anchor="middle" x="425.44" y="-103.67" font-family="Times,serif" font-size="14.00">(Python)</text>
</g>
<!-- server&#45;&gt;database -->
<g id="edge3" class="edge">
<title>server&#45;&gt;database</title>
<path fill="none" stroke="black" d="M348.35,-114.87C351.12,-114.87 353.9,-114.87 356.67,-114.87"/>
<polygon fill="black" stroke="black" points="356.72,-118.37 366.72,-114.87 356.72,-111.37 356.72,-118.37"/>
</g>
<!-- server&#45;&gt;agent -->
<g id="edge5" class="edge">
<title>server&#45;&gt;agent</title>
<path fill="none" stroke="black" d="M287.44,-87.61C287.44,-79.51 287.44,-70.57 287.44,-62.39"/>
<polygon fill="black" stroke="black" points="290.94,-62.22 287.44,-52.22 283.94,-62.22 290.94,-62.22"/>
</g>
<!-- database&#45;&gt;agent -->
<g id="edge6" class="edge">
<title>database&#45;&gt;agent</title>
<path fill="none" stroke="black" d="M389.54,-93.35C369.46,-81.88 344.47,-67.59 324.24,-56.03"/>
<polygon fill="black" stroke="black" points="325.73,-52.86 315.31,-50.93 322.26,-58.93 325.73,-52.86"/>
</g>
</g>
</svg>
