<?xml version="1.0" encoding="UTF-8" standalone="no"?>
<!DOCTYPE svg PUBLIC "-//W3C//DTD SVG 1.1//EN"
 "http://www.w3.org/Graphics/SVG/1.1/DTD/svg11.dtd">
<!-- Generated by graphviz version 2.43.0 (0)
 -->
<!-- Title: G Pages: 1 -->
<svg width="1664pt" height="3026pt"
 viewBox="0.00 0.00 1664.27 3026.00" xmlns="http://www.w3.org/2000/svg" xmlns:xlink="http://www.w3.org/1999/xlink">
<g id="graph0" class="graph" transform="scale(1 1) rotate(0) translate(4 3022)">
<title>G</title>
<polygon fill="white" stroke="transparent" points="-4,4 -4,-3022 1660.27,-3022 1660.27,4 -4,4"/>
<!-- node0 -->
<g id="node1" class="node">
<title>node0</title>
<ellipse fill="none" stroke="black" cx="318.72" cy="-2490" rx="77.19" ry="18"/>
<text text-anchor="middle" x="318.72" y="-2486.3" font-family="Times,serif" font-size="14.00">span_data.cpp</text>
</g>
<!-- node10 -->
<g id="node11" class="node">
<title>node10</title>
<ellipse fill="none" stroke="black" cx="646.55" cy="-2290" rx="39.79" ry="18"/>
<text text-anchor="middle" x="646.55" y="-2286.3" font-family="Times,serif" font-size="14.00">tags.h</text>
</g>
<!-- node0&#45;&gt;node10 -->
<g id="edge5" class="edge">
<title>node0&#45;&gt;node10</title>
<path fill="none" stroke="black" d="M364.65,-2475.41C397.78,-2462.61 441.84,-2440.97 470.16,-2409 499.28,-2376.13 472.43,-2345.1 506.16,-2317 531.23,-2296.11 567.65,-2289.61 596.98,-2288.2"/>
<polygon fill="black" stroke="black" points="597.13,-2291.69 607.02,-2287.89 596.92,-2284.7 597.13,-2291.69"/>
</g>
<!-- node21 -->
<g id="node22" class="node">
<title>node21</title>
<ellipse fill="none" stroke="black" cx="646.55" cy="-2052" rx="66.09" ry="18"/>
<text text-anchor="middle" x="646.55" y="-2048.3" font-family="Times,serif" font-size="14.00">span_data.h</text>
</g>
<!-- node0&#45;&gt;node21 -->
<g id="edge3" class="edge">
<title>node0&#45;&gt;node21</title>
<path fill="none" stroke="black" d="M370.11,-2476.39C404.15,-2464.44 446.96,-2443.44 470.16,-2409 511.37,-2347.82 456.2,-2133.27 506.16,-2079 522.67,-2061.07 547.22,-2052.96 571.13,-2049.76"/>
<polygon fill="black" stroke="black" points="571.75,-2053.22 581.32,-2048.68 571,-2046.26 571.75,-2053.22"/>
</g>
<!-- node32 -->
<g id="node33" class="node">
<title>node32</title>
<ellipse fill="none" stroke="black" cx="1614.03" cy="-1753" rx="42.49" ry="18"/>
<text text-anchor="middle" x="1614.03" y="-1749.3" font-family="Times,serif" font-size="14.00">error.h</text>
</g>
<!-- node0&#45;&gt;node32 -->
<g id="edge6" class="edge">
<title>node0&#45;&gt;node32</title>
<path fill="none" stroke="black" d="M393.31,-2494.99C421,-2500.57 450.5,-2511.59 470.16,-2533 526.52,-2594.38 442.97,-2662.68 506.16,-2717 581.35,-2781.64 852.78,-2736 951.93,-2736 951.93,-2736 951.93,-2736 1238.85,-2736 1448.82,-2736 1583.5,-1942.77 1608.72,-1781.43"/>
<polygon fill="black" stroke="black" points="1612.21,-1781.75 1610.28,-1771.33 1605.29,-1780.67 1612.21,-1781.75"/>
</g>
<!-- node38 -->
<g id="node39" class="node">
<title>node38</title>
<ellipse fill="none" stroke="black" cx="952.93" cy="-2484" rx="83.39" ry="18"/>
<text text-anchor="middle" x="952.93" y="-2480.3" font-family="Times,serif" font-size="14.00">span_defaults.h</text>
</g>
<!-- node0&#45;&gt;node38 -->
<g id="edge1" class="edge">
<title>node0&#45;&gt;node38</title>
<path fill="none" stroke="black" d="M386.78,-2498.73C414.58,-2504.87 445.92,-2515.3 470.16,-2533 493.46,-2550.01 480.73,-2573.39 506.16,-2587 616.18,-2645.88 670.64,-2632.24 786.94,-2587 807.17,-2579.13 805.27,-2566.6 822.94,-2554 849.54,-2535.02 881.86,-2517.49 907.49,-2504.72"/>
<polygon fill="black" stroke="black" points="909.18,-2507.79 916.61,-2500.24 906.09,-2501.51 909.18,-2507.79"/>
</g>
<!-- node55 -->
<g id="node56" class="node">
<title>node55</title>
<ellipse fill="none" stroke="black" cx="646.55" cy="-1760" rx="60.39" ry="18"/>
<text text-anchor="middle" x="646.55" y="-1756.3" font-family="Times,serif" font-size="14.00">msgpack.h</text>
</g>
<!-- node0&#45;&gt;node55 -->
<g id="edge4" class="edge">
<title>node0&#45;&gt;node55</title>
<path fill="none" stroke="black" d="M371.02,-2476.62C405.25,-2464.81 447.92,-2443.9 470.16,-2409 544.57,-2292.24 415.01,-1891.21 506.16,-1787 523.71,-1766.94 551.31,-1759 577.33,-1756.54"/>
<polygon fill="black" stroke="black" points="577.85,-1760.01 587.58,-1755.83 577.37,-1753.03 577.85,-1760.01"/>
</g>
<!-- node60 -->
<g id="node61" class="node">
<title>node60</title>
<ellipse fill="none" stroke="black" cx="646.55" cy="-2690" rx="73.39" ry="18"/>
<text text-anchor="middle" x="646.55" y="-2686.3" font-family="Times,serif" font-size="14.00">span_config.h</text>
</g>
<!-- node0&#45;&gt;node60 -->
<g id="edge2" class="edge">
<title>node0&#45;&gt;node60</title>
<path fill="none" stroke="black" d="M391.99,-2495.8C419.66,-2501.49 449.49,-2512.37 470.16,-2533 511.08,-2573.84 464.18,-2618.25 506.16,-2658 521.73,-2672.74 542.65,-2681.17 563.54,-2685.88"/>
<polygon fill="black" stroke="black" points="562.95,-2689.33 573.44,-2687.85 564.31,-2682.47 562.95,-2689.33"/>
</g>
<!-- node1 -->
<g id="node2" class="node">
<title>node1</title>
<ellipse fill="none" stroke="black" cx="318.72" cy="-1322" rx="151.37" ry="18"/>
<text text-anchor="middle" x="318.72" y="-1318.3" font-family="Times,serif" font-size="14.00">threaded_event_scheduler.cpp</text>
</g>
<!-- node41 -->
<g id="node42" class="node">
<title>node41</title>
<ellipse fill="none" stroke="black" cx="646.55" cy="-1322" rx="140.28" ry="18"/>
<text text-anchor="middle" x="646.55" y="-1318.3" font-family="Times,serif" font-size="14.00">threaded_event_scheduler.h</text>
</g>
<!-- node1&#45;&gt;node41 -->
<g id="edge7" class="edge">
<title>node1&#45;&gt;node41</title>
<path fill="none" stroke="black" d="M470.24,-1322C478.65,-1322 487.12,-1322 495.53,-1322"/>
<polygon fill="black" stroke="black" points="495.77,-1325.5 505.77,-1322 495.77,-1318.5 495.77,-1325.5"/>
</g>
<!-- node2 -->
<g id="node3" class="node">
<title>node2</title>
<ellipse fill="none" stroke="black" cx="952.93" cy="-1770" rx="49.29" ry="18"/>
<text text-anchor="middle" x="952.93" y="-1766.3" font-family="Times,serif" font-size="14.00">rate.cpp</text>
</g>
<!-- node18 -->
<g id="node19" class="node">
<title>node18</title>
<ellipse fill="none" stroke="black" cx="1237.85" cy="-1732" rx="38.19" ry="18"/>
<text text-anchor="middle" x="1237.85" y="-1728.3" font-family="Times,serif" font-size="14.00">rate.h</text>
</g>
<!-- node2&#45;&gt;node18 -->
<g id="edge8" class="edge">
<title>node2&#45;&gt;node18</title>
<path fill="none" stroke="black" d="M999.7,-1763.85C1052.19,-1756.8 1137.77,-1745.31 1190.5,-1738.23"/>
<polygon fill="black" stroke="black" points="1191.14,-1741.67 1200.59,-1736.87 1190.21,-1734.73 1191.14,-1741.67"/>
</g>
<!-- node3 -->
<g id="node4" class="node">
<title>node3</title>
<ellipse fill="none" stroke="black" cx="318.72" cy="-218" rx="139.18" ry="18"/>
<text text-anchor="middle" x="318.72" y="-214.3" font-family="Times,serif" font-size="14.00">default_http_client_null.cpp</text>
</g>
<!-- node25 -->
<g id="node26" class="node">
<title>node25</title>
<ellipse fill="none" stroke="black" cx="646.55" cy="-218" rx="106.68" ry="18"/>
<text text-anchor="middle" x="646.55" y="-214.3" font-family="Times,serif" font-size="14.00">default_http_client.h</text>
</g>
<!-- node3&#45;&gt;node25 -->
<g id="edge9" class="edge">
<title>node3&#45;&gt;node25</title>
<path fill="none" stroke="black" d="M457.9,-218C481.78,-218 506.37,-218 529.58,-218"/>
<polygon fill="black" stroke="black" points="529.78,-221.5 539.78,-218 529.78,-214.5 529.78,-221.5"/>
</g>
<!-- node4 -->
<g id="node5" class="node">
<title>node4</title>
<ellipse fill="none" stroke="black" cx="646.55" cy="-2344" rx="87.99" ry="18"/>
<text text-anchor="middle" x="646.55" y="-2340.3" font-family="Times,serif" font-size="14.00">trace_segment.h</text>
</g>
<!-- node13 -->
<g id="node14" class="node">
<title>node13</title>
<ellipse fill="none" stroke="black" cx="1464.29" cy="-1598" rx="61.99" ry="18"/>
<text text-anchor="middle" x="1464.29" y="-1594.3" font-family="Times,serif" font-size="14.00">expected.h</text>
</g>
<!-- node4&#45;&gt;node13 -->
<g id="edge12" class="edge">
<title>node4&#45;&gt;node13</title>
<path fill="none" stroke="black" d="M733.19,-2347C912.17,-2352.38 1312.97,-2359.48 1356.79,-2317 1398.38,-2276.69 1381.01,-1853.71 1392.79,-1797 1405.96,-1733.59 1434.54,-1662.9 1450.98,-1625.2"/>
<polygon fill="black" stroke="black" points="1454.24,-1626.47 1455.07,-1615.91 1447.84,-1623.64 1454.24,-1626.47"/>
</g>
<!-- node20 -->
<g id="node21" class="node">
<title>node20</title>
<ellipse fill="none" stroke="black" cx="952.93" cy="-2382" rx="104.78" ry="18"/>
<text text-anchor="middle" x="952.93" y="-2378.3" font-family="Times,serif" font-size="14.00">sampling_decision.h</text>
</g>
<!-- node4&#45;&gt;node20 -->
<g id="edge11" class="edge">
<title>node4&#45;&gt;node20</title>
<path fill="none" stroke="black" d="M722.01,-2353.3C762.91,-2358.4 814.05,-2364.79 857.71,-2370.24"/>
<polygon fill="black" stroke="black" points="857.41,-2373.73 867.76,-2371.49 858.27,-2366.78 857.41,-2373.73"/>
</g>
<!-- node85 -->
<g id="node86" class="node">
<title>node85</title>
<ellipse fill="none" stroke="black" cx="952.93" cy="-2106" rx="107.48" ry="18"/>
<text text-anchor="middle" x="952.93" y="-2102.3" font-family="Times,serif" font-size="14.00">propagation_styles.h</text>
</g>
<!-- node4&#45;&gt;node85 -->
<g id="edge10" class="edge">
<title>node4&#45;&gt;node85</title>
<path fill="none" stroke="black" d="M734.46,-2343.09C753.9,-2338.89 772.89,-2331.02 786.94,-2317 845.91,-2258.13 764.4,-2192.31 822.94,-2133 829.43,-2126.42 837.08,-2121.25 845.37,-2117.2"/>
<polygon fill="black" stroke="black" points="846.79,-2120.4 854.59,-2113.23 844.02,-2113.97 846.79,-2120.4"/>
</g>
<!-- node5 -->
<g id="node6" class="node">
<title>node5</title>
<ellipse fill="none" stroke="black" cx="646.55" cy="-1484" rx="69.59" ry="18"/>
<text text-anchor="middle" x="646.55" y="-1480.3" font-family="Times,serif" font-size="14.00">dict_writer.h</text>
</g>
<!-- node6 -->
<g id="node7" class="node">
<title>node6</title>
<ellipse fill="none" stroke="black" cx="318.72" cy="-1000" rx="105.88" ry="18"/>
<text text-anchor="middle" x="318.72" y="-996.3" font-family="Times,serif" font-size="14.00">tag_propagation.cpp</text>
</g>
<!-- node6&#45;&gt;node32 -->
<g id="edge15" class="edge">
<title>node6&#45;&gt;node32</title>
<path fill="none" stroke="black" d="M408.53,-990.28C429.22,-986.33 450.84,-980.78 470.16,-973 488,-965.82 487.76,-954.57 506.16,-949 625.6,-912.84 666.14,-917.7 786.94,-949 1155.49,-1044.5 1311.44,-1057.39 1535.78,-1365 1578.1,-1423.04 1602.83,-1645.25 1610.47,-1724.62"/>
<polygon fill="black" stroke="black" points="1607.01,-1725.21 1611.43,-1734.84 1613.97,-1724.55 1607.01,-1725.21"/>
</g>
<!-- node34 -->
<g id="node35" class="node">
<title>node34</title>
<ellipse fill="none" stroke="black" cx="646.55" cy="-1430" rx="94.78" ry="18"/>
<text text-anchor="middle" x="646.55" y="-1426.3" font-family="Times,serif" font-size="14.00">tag_propagation.h</text>
</g>
<!-- node6&#45;&gt;node34 -->
<g id="edge13" class="edge">
<title>node6&#45;&gt;node34</title>
<path fill="none" stroke="black" d="M424.56,-1000.93C441.83,-1005.72 458.03,-1013.83 470.16,-1027 527.03,-1088.74 449.72,-1340.87 506.16,-1403 515.92,-1413.75 528.58,-1420.98 542.27,-1425.74"/>
<polygon fill="black" stroke="black" points="541.3,-1429.11 551.89,-1428.66 543.33,-1422.41 541.3,-1429.11"/>
</g>
<!-- node42 -->
<g id="node43" class="node">
<title>node42</title>
<ellipse fill="none" stroke="black" cx="646.55" cy="-846" rx="65.79" ry="18"/>
<text text-anchor="middle" x="646.55" y="-842.3" font-family="Times,serif" font-size="14.00">parse_util.h</text>
</g>
<!-- node6&#45;&gt;node42 -->
<g id="edge14" class="edge">
<title>node6&#45;&gt;node42</title>
<path fill="none" stroke="black" d="M419.35,-994.1C437.3,-989.8 455.08,-983.15 470.16,-973 495.02,-956.27 483.96,-936.12 506.16,-916 531.76,-892.8 566.46,-875.33 594.83,-863.66"/>
<polygon fill="black" stroke="black" points="596.2,-866.88 604.19,-859.92 593.61,-860.38 596.2,-866.88"/>
</g>
<!-- node7 -->
<g id="node8" class="node">
<title>node7</title>
<ellipse fill="none" stroke="black" cx="646.55" cy="-1030" rx="50.09" ry="18"/>
<text text-anchor="middle" x="646.55" y="-1026.3" font-family="Times,serif" font-size="14.00">json.hpp</text>
</g>
<!-- node8 -->
<g id="node9" class="node">
<title>node8</title>
<ellipse fill="none" stroke="black" cx="646.55" cy="-2398" rx="82.59" ry="18"/>
<text text-anchor="middle" x="646.55" y="-2394.3" font-family="Times,serif" font-size="14.00">span_sampler.h</text>
</g>
<!-- node14 -->
<g id="node15" class="node">
<title>node14</title>
<ellipse fill="none" stroke="black" cx="952.93" cy="-2160" rx="50.09" ry="18"/>
<text text-anchor="middle" x="952.93" y="-2156.3" font-family="Times,serif" font-size="14.00">limiter.h</text>
</g>
<!-- node8&#45;&gt;node14 -->
<g id="edge19" class="edge">
<title>node8&#45;&gt;node14</title>
<path fill="none" stroke="black" d="M728.87,-2396.66C749.8,-2392.7 770.91,-2385.06 786.94,-2371 824.97,-2337.63 793.98,-2304.49 822.94,-2263 847.46,-2227.86 887.35,-2198.63 916.28,-2180.39"/>
<polygon fill="black" stroke="black" points="918.2,-2183.32 924.88,-2175.09 914.53,-2177.36 918.2,-2183.32"/>
</g>
<!-- node8&#45;&gt;node20 -->
<g id="edge18" class="edge">
<title>node8&#45;&gt;node20</title>
<path fill="none" stroke="black" d="M727.12,-2393.82C762.37,-2391.96 804.41,-2389.75 842.54,-2387.75"/>
<polygon fill="black" stroke="black" points="842.86,-2391.24 852.66,-2387.22 842.49,-2384.25 842.86,-2391.24"/>
</g>
<!-- node35 -->
<g id="node36" class="node">
<title>node35</title>
<ellipse fill="none" stroke="black" cx="1237.85" cy="-2290" rx="42.79" ry="18"/>
<text text-anchor="middle" x="1237.85" y="-2286.3" font-family="Times,serif" font-size="14.00">clock.h</text>
</g>
<!-- node8&#45;&gt;node35 -->
<g id="edge16" class="edge">
<title>node8&#45;&gt;node35</title>
<path fill="none" stroke="black" d="M721.08,-2405.97C827.34,-2416.46 1018.16,-2431.11 1082.91,-2409 1137.56,-2390.34 1187.86,-2343.55 1215.26,-2314.51"/>
<polygon fill="black" stroke="black" points="1218.14,-2316.54 1222.36,-2306.83 1213,-2311.79 1218.14,-2316.54"/>
</g>
<!-- node73 -->
<g id="node74" class="node">
<title>node73</title>
<ellipse fill="none" stroke="black" cx="952.93" cy="-1862" rx="115.88" ry="18"/>
<text text-anchor="middle" x="952.93" y="-1858.3" font-family="Times,serif" font-size="14.00">span_sampler_config.h</text>
</g>
<!-- node8&#45;&gt;node73 -->
<g id="edge17" class="edge">
<title>node8&#45;&gt;node73</title>
<path fill="none" stroke="black" d="M729,-2398.99C750.56,-2395.18 771.97,-2387.04 786.94,-2371 831.55,-2323.21 801.78,-2140.86 822.94,-2079 848.51,-2004.21 902.08,-1927.09 931.49,-1888.05"/>
<polygon fill="black" stroke="black" points="934.46,-1889.94 937.73,-1879.86 928.89,-1885.7 934.46,-1889.94"/>
</g>
<!-- node9 -->
<g id="node10" class="node">
<title>node9</title>
<ellipse fill="none" stroke="black" cx="318.72" cy="-164" rx="81.79" ry="18"/>
<text text-anchor="middle" x="318.72" y="-160.3" font-family="Times,serif" font-size="14.00">dict_reader.cpp</text>
</g>
<!-- node77 -->
<g id="node78" class="node">
<title>node77</title>
<ellipse fill="none" stroke="black" cx="646.55" cy="-164" rx="71.49" ry="18"/>
<text text-anchor="middle" x="646.55" y="-160.3" font-family="Times,serif" font-size="14.00">dict_reader.h</text>
</g>
<!-- node9&#45;&gt;node77 -->
<g id="edge20" class="edge">
<title>node9&#45;&gt;node77</title>
<path fill="none" stroke="black" d="M400.68,-164C450.76,-164 514.8,-164 564.83,-164"/>
<polygon fill="black" stroke="black" points="564.97,-167.5 574.97,-164 564.97,-160.5 564.97,-167.5"/>
</g>
<!-- node11 -->
<g id="node12" class="node">
<title>node11</title>
<ellipse fill="none" stroke="black" cx="646.55" cy="-1814" rx="79.89" ry="18"/>
<text text-anchor="middle" x="646.55" y="-1810.3" font-family="Times,serif" font-size="14.00">tracer_config.h</text>
</g>
<!-- node11&#45;&gt;node13 -->
<g id="edge24" class="edge">
<title>node11&#45;&gt;node13</title>
<path fill="none" stroke="black" d="M726.56,-1813.84C748.45,-1810.07 770.64,-1802.23 786.94,-1787 832.61,-1744.3 775.99,-1692.3 822.94,-1651 906.06,-1577.87 1245.23,-1586.28 1393.43,-1593.75"/>
<polygon fill="black" stroke="black" points="1393.6,-1597.26 1403.77,-1594.29 1393.96,-1590.27 1393.6,-1597.26"/>
</g>
<!-- node22 -->
<g id="node23" class="node">
<title>node22</title>
<ellipse fill="none" stroke="black" cx="952.93" cy="-1168" rx="120.48" ry="18"/>
<text text-anchor="middle" x="952.93" y="-1164.3" font-family="Times,serif" font-size="14.00">datadog_agent_config.h</text>
</g>
<!-- node11&#45;&gt;node22 -->
<g id="edge22" class="edge">
<title>node11&#45;&gt;node22</title>
<path fill="none" stroke="black" d="M725.99,-1816.17C748.8,-1812.68 771.65,-1804.41 786.94,-1787 872.72,-1689.29 740.8,-1303.8 822.94,-1203 829.71,-1194.68 838.25,-1188.23 847.68,-1183.24"/>
<polygon fill="black" stroke="black" points="849.41,-1186.3 856.98,-1178.89 846.44,-1179.96 849.41,-1186.3"/>
</g>
<!-- node11&#45;&gt;node32 -->
<g id="edge25" class="edge">
<title>node11&#45;&gt;node32</title>
<path fill="none" stroke="black" d="M724.01,-1818.55C745.58,-1822.47 768.24,-1829.29 786.94,-1841 809.54,-1855.15 799.09,-1877.07 822.94,-1889 927.36,-1941.21 1478.26,-1881.94 1535.78,-1851 1565.12,-1835.22 1587.09,-1803.02 1599.95,-1779.84"/>
<polygon fill="black" stroke="black" points="1603.14,-1781.3 1604.75,-1770.83 1596.96,-1778.01 1603.14,-1781.3"/>
</g>
<!-- node11&#45;&gt;node38 -->
<g id="edge27" class="edge">
<title>node11&#45;&gt;node38</title>
<path fill="none" stroke="black" d="M725.98,-1811.85C748.78,-1815.34 771.63,-1823.6 786.94,-1841 870.46,-1935.97 756.43,-2301.42 822.94,-2409 839.26,-2435.41 868.58,-2453.53 895.14,-2465.34"/>
<polygon fill="black" stroke="black" points="893.83,-2468.58 904.4,-2469.25 896.55,-2462.13 893.83,-2468.58"/>
</g>
<!-- node11&#45;&gt;node73 -->
<g id="edge21" class="edge">
<title>node11&#45;&gt;node73</title>
<path fill="none" stroke="black" d="M712.47,-1824.24C755.75,-1831.06 813.24,-1840.13 861.05,-1847.67"/>
<polygon fill="black" stroke="black" points="860.67,-1851.15 871.09,-1849.25 861.76,-1844.24 860.67,-1851.15"/>
</g>
<!-- node11&#45;&gt;node85 -->
<g id="edge26" class="edge">
<title>node11&#45;&gt;node85</title>
<path fill="none" stroke="black" d="M726.19,-1816.04C747.69,-1819.92 769.77,-1827.34 786.94,-1841 817.77,-1865.52 803.54,-1887.71 822.94,-1922 856.4,-1981.16 904.07,-2045.02 931.1,-2079.78"/>
<polygon fill="black" stroke="black" points="928.59,-2082.25 937.5,-2087.97 934.1,-2077.94 928.59,-2082.25"/>
</g>
<!-- node89 -->
<g id="node90" class="node">
<title>node89</title>
<ellipse fill="none" stroke="black" cx="952.93" cy="-1678" rx="117.78" ry="18"/>
<text text-anchor="middle" x="952.93" y="-1674.3" font-family="Times,serif" font-size="14.00">trace_sampler_config.h</text>
</g>
<!-- node11&#45;&gt;node89 -->
<g id="edge23" class="edge">
<title>node11&#45;&gt;node89</title>
<path fill="none" stroke="black" d="M726.03,-1811.75C747.52,-1807.87 769.64,-1800.49 786.94,-1787 816.73,-1763.77 793.76,-1734 822.94,-1710 831.62,-1702.86 841.67,-1697.28 852.25,-1692.92"/>
<polygon fill="black" stroke="black" points="853.53,-1696.18 861.67,-1689.4 851.08,-1689.62 853.53,-1696.18"/>
</g>
<!-- node12 -->
<g id="node13" class="node">
<title>node12</title>
<ellipse fill="none" stroke="black" cx="646.55" cy="-326" rx="58.49" ry="18"/>
<text text-anchor="middle" x="646.55" y="-322.3" font-family="Times,serif" font-size="14.00">curl/curl.h</text>
</g>
<!-- node13&#45;&gt;node32 -->
<g id="edge28" class="edge">
<title>node13&#45;&gt;node32</title>
<path fill="none" stroke="black" d="M1481.95,-1615.48C1508.38,-1643.21 1560.01,-1697.37 1589.97,-1728.82"/>
<polygon fill="black" stroke="black" points="1587.67,-1731.47 1597.1,-1736.29 1592.73,-1726.64 1587.67,-1731.47"/>
</g>
<!-- node14&#45;&gt;node18 -->
<g id="edge30" class="edge">
<title>node14&#45;&gt;node18</title>
<path fill="none" stroke="black" d="M1002.4,-2162.84C1030,-2161.67 1062.96,-2155.05 1082.91,-2133 1133.3,-2077.32 1077.33,-1859.53 1118.91,-1797 1136.42,-1770.68 1168.34,-1754.03 1194.56,-1744.17"/>
<polygon fill="black" stroke="black" points="1196.03,-1747.37 1204.29,-1740.73 1193.69,-1740.77 1196.03,-1747.37"/>
</g>
<!-- node14&#45;&gt;node35 -->
<g id="edge29" class="edge">
<title>node14&#45;&gt;node35</title>
<path fill="none" stroke="black" d="M984.47,-2174.04C1036.48,-2197.93 1142.07,-2246.45 1198.79,-2272.51"/>
<polygon fill="black" stroke="black" points="1197.58,-2275.81 1208.13,-2276.8 1200.5,-2269.44 1197.58,-2275.81"/>
</g>
<!-- node15 -->
<g id="node16" class="node">
<title>node15</title>
<ellipse fill="none" stroke="black" cx="646.55" cy="-2896" rx="41.69" ry="18"/>
<text text-anchor="middle" x="646.55" y="-2892.3" font-family="Times,serif" font-size="14.00">span.h</text>
</g>
<!-- node15&#45;&gt;node32 -->
<g id="edge33" class="edge">
<title>node15&#45;&gt;node32</title>
<path fill="none" stroke="black" d="M688.25,-2897.65C854.27,-2903.97 1474.36,-2923.4 1535.78,-2864 1615.85,-2786.56 1614.36,-1948.21 1613.26,-1781.67"/>
<polygon fill="black" stroke="black" points="1616.76,-1781.24 1613.19,-1771.27 1609.76,-1781.29 1616.76,-1781.24"/>
</g>
<!-- node15&#45;&gt;node35 -->
<g id="edge31" class="edge">
<title>node15&#45;&gt;node35</title>
<path fill="none" stroke="black" d="M686.92,-2891.48C773.08,-2879.41 978.94,-2838.18 1082.91,-2712 1132.3,-2652.06 1094.23,-2614.64 1118.91,-2541 1147.48,-2455.76 1197.12,-2361.34 1221.89,-2316.47"/>
<polygon fill="black" stroke="black" points="1224.98,-2318.11 1226.78,-2307.67 1218.87,-2314.71 1224.98,-2318.11"/>
</g>
<!-- node65 -->
<g id="node66" class="node">
<title>node65</title>
<ellipse fill="none" stroke="black" cx="952.93" cy="-2946" rx="77.19" ry="18"/>
<text text-anchor="middle" x="952.93" y="-2942.3" font-family="Times,serif" font-size="14.00">id_generator.h</text>
</g>
<!-- node15&#45;&gt;node65 -->
<g id="edge32" class="edge">
<title>node15&#45;&gt;node65</title>
<path fill="none" stroke="black" d="M685.79,-2902.28C734.19,-2910.23 818.56,-2924.09 879.35,-2934.08"/>
<polygon fill="black" stroke="black" points="878.84,-2937.54 889.27,-2935.71 879.97,-2930.63 878.84,-2937.54"/>
</g>
<!-- node16 -->
<g id="node17" class="node">
<title>node16</title>
<ellipse fill="none" stroke="black" cx="952.93" cy="-3000" rx="129.98" ry="18"/>
<text text-anchor="middle" x="952.93" y="-2996.3" font-family="Times,serif" font-size="14.00">sampling_mechanism.cpp</text>
</g>
<!-- node23 -->
<g id="node24" class="node">
<title>node23</title>
<ellipse fill="none" stroke="black" cx="1237.85" cy="-2568" rx="118.88" ry="18"/>
<text text-anchor="middle" x="1237.85" y="-2564.3" font-family="Times,serif" font-size="14.00">sampling_mechanism.h</text>
</g>
<!-- node16&#45;&gt;node23 -->
<g id="edge34" class="edge">
<title>node16&#45;&gt;node23</title>
<path fill="none" stroke="black" d="M1056.08,-2988.97C1065.82,-2984.97 1075,-2979.76 1082.91,-2973 1200.93,-2872.18 1228.71,-2670.75 1235.05,-2596.41"/>
<polygon fill="black" stroke="black" points="1238.54,-2596.64 1235.83,-2586.4 1231.56,-2596.09 1238.54,-2596.64"/>
</g>
<!-- node17 -->
<g id="node18" class="node">
<title>node17</title>
<ellipse fill="none" stroke="black" cx="646.55" cy="-624" rx="59.29" ry="18"/>
<text text-anchor="middle" x="646.55" y="-620.3" font-family="Times,serif" font-size="14.00">logger.cpp</text>
</g>
<!-- node17&#45;&gt;node32 -->
<g id="edge36" class="edge">
<title>node17&#45;&gt;node32</title>
<path fill="none" stroke="black" d="M698.02,-633.02C724.57,-637.96 757.6,-644.4 786.94,-651 956.58,-689.17 1428,-741.54 1535.78,-878 1589.44,-945.94 1608.68,-1581.84 1612.35,-1724.63"/>
<polygon fill="black" stroke="black" points="1608.85,-1724.86 1612.6,-1734.77 1615.85,-1724.68 1608.85,-1724.86"/>
</g>
<!-- node36 -->
<g id="node37" class="node">
<title>node36</title>
<ellipse fill="none" stroke="black" cx="952.93" cy="-754" rx="48.19" ry="18"/>
<text text-anchor="middle" x="952.93" y="-750.3" font-family="Times,serif" font-size="14.00">logger.h</text>
</g>
<!-- node17&#45;&gt;node36 -->
<g id="edge35" class="edge">
<title>node17&#45;&gt;node36</title>
<path fill="none" stroke="black" d="M705.38,-626.49C732.41,-630.19 763.69,-638.38 786.94,-656 813.57,-676.18 796.49,-701.58 822.94,-722 843.39,-737.79 870.64,-745.89 894.82,-750"/>
<polygon fill="black" stroke="black" points="894.56,-753.5 904.97,-751.53 895.6,-746.58 894.56,-753.5"/>
</g>
<!-- node18&#45;&gt;node13 -->
<g id="edge37" class="edge">
<title>node18&#45;&gt;node13</title>
<path fill="none" stroke="black" d="M1265.59,-1719.35C1289.84,-1707.6 1326.33,-1689.23 1356.79,-1671 1383,-1655.32 1411.47,-1635.66 1432.38,-1620.69"/>
<polygon fill="black" stroke="black" points="1434.49,-1623.48 1440.56,-1614.79 1430.4,-1617.8 1434.49,-1623.48"/>
</g>
<!-- node19 -->
<g id="node20" class="node">
<title>node19</title>
<ellipse fill="none" stroke="black" cx="646.55" cy="-1998" rx="81.79" ry="18"/>
<text text-anchor="middle" x="646.55" y="-1994.3" font-family="Times,serif" font-size="14.00">sampling_util.h</text>
</g>
<!-- node19&#45;&gt;node18 -->
<g id="edge38" class="edge">
<title>node19&#45;&gt;node18</title>
<path fill="none" stroke="black" d="M676.87,-1981.13C707.05,-1962.74 754.16,-1931.08 786.94,-1895 807.85,-1871.98 797.06,-1852.24 822.94,-1835 920.11,-1770.25 980.64,-1853.36 1082.91,-1797 1104.45,-1785.13 1097.67,-1767.37 1118.91,-1755 1140.17,-1742.62 1166.88,-1736.76 1189.49,-1734.05"/>
<polygon fill="black" stroke="black" points="1189.98,-1737.52 1199.57,-1733.01 1189.26,-1730.55 1189.98,-1737.52"/>
</g>
<!-- node20&#45;&gt;node18 -->
<g id="edge40" class="edge">
<title>node20&#45;&gt;node18</title>
<path fill="none" stroke="black" d="M1012.02,-2367.06C1038.09,-2357.25 1066.6,-2341.54 1082.91,-2317 1147.03,-2220.53 1056.59,-1894.64 1118.91,-1797 1135.92,-1770.35 1167.87,-1753.72 1194.23,-1743.96"/>
<polygon fill="black" stroke="black" points="1195.72,-1747.14 1204.01,-1740.55 1193.42,-1740.53 1195.72,-1747.14"/>
</g>
<!-- node20&#45;&gt;node23 -->
<g id="edge39" class="edge">
<title>node20&#45;&gt;node23</title>
<path fill="none" stroke="black" d="M985.46,-2399.19C1011.9,-2413.88 1050.43,-2435.92 1082.91,-2457 1126.62,-2485.37 1175.07,-2521.04 1205.72,-2544.17"/>
<polygon fill="black" stroke="black" points="1203.79,-2547.1 1213.88,-2550.35 1208.02,-2541.52 1203.79,-2547.1"/>
</g>
<!-- node21&#45;&gt;node13 -->
<g id="edge42" class="edge">
<title>node21&#45;&gt;node13</title>
<path fill="none" stroke="black" d="M703.39,-2042.72C853,-2016.86 1258.18,-1940.03 1356.79,-1851 1391.91,-1819.29 1436.63,-1684.55 1454.92,-1625.69"/>
<polygon fill="black" stroke="black" points="1458.32,-1626.54 1457.92,-1615.95 1451.63,-1624.48 1458.32,-1626.54"/>
</g>
<!-- node21&#45;&gt;node35 -->
<g id="edge41" class="edge">
<title>node21&#45;&gt;node35</title>
<path fill="none" stroke="black" d="M712.27,-2049.4C817.68,-2046.25 1020.9,-2045.02 1082.91,-2079 1158.09,-2120.19 1206.19,-2215.62 1226.2,-2262.71"/>
<polygon fill="black" stroke="black" points="1222.98,-2264.09 1230.04,-2271.99 1229.45,-2261.41 1222.98,-2264.09"/>
</g>
<!-- node22&#45;&gt;node13 -->
<g id="edge43" class="edge">
<title>node22&#45;&gt;node13</title>
<path fill="none" stroke="black" d="M1072.4,-1170.31C1161.34,-1178.25 1280.44,-1203.02 1356.79,-1275 1442.51,-1355.81 1459.3,-1506.86 1462.54,-1569.57"/>
<polygon fill="black" stroke="black" points="1459.06,-1570.04 1462.99,-1579.88 1466.05,-1569.74 1459.06,-1570.04"/>
</g>
<!-- node81 -->
<g id="node82" class="node">
<title>node81</title>
<ellipse fill="none" stroke="black" cx="1237.85" cy="-662" rx="69.59" ry="18"/>
<text text-anchor="middle" x="1237.85" y="-658.3" font-family="Times,serif" font-size="14.00">http_client.h</text>
</g>
<!-- node22&#45;&gt;node81 -->
<g id="edge44" class="edge">
<title>node22&#45;&gt;node81</title>
<path fill="none" stroke="black" d="M964.43,-1150.08C986.6,-1112.19 1039.67,-1021.11 1082.91,-944 1135.2,-850.76 1195.47,-739.08 1222.47,-688.82"/>
<polygon fill="black" stroke="black" points="1225.62,-690.36 1227.27,-679.89 1219.45,-687.05 1225.62,-690.36"/>
</g>
<!-- node24 -->
<g id="node25" class="node">
<title>node24</title>
<ellipse fill="none" stroke="black" cx="318.72" cy="-1898" rx="71.49" ry="18"/>
<text text-anchor="middle" x="318.72" y="-1894.3" font-family="Times,serif" font-size="14.00">msgpack.cpp</text>
</g>
<!-- node24&#45;&gt;node32 -->
<g id="edge46" class="edge">
<title>node24&#45;&gt;node32</title>
<path fill="none" stroke="black" d="M386.95,-1903.54C552.35,-1916.14 992.12,-1943.36 1356.79,-1910 1437.19,-1902.65 1468.97,-1924.33 1535.78,-1879 1570.73,-1855.29 1592.67,-1809.98 1603.88,-1780.65"/>
<polygon fill="black" stroke="black" points="1607.26,-1781.6 1607.4,-1771 1600.69,-1779.2 1607.26,-1781.6"/>
</g>
<!-- node24&#45;&gt;node55 -->
<g id="edge45" class="edge">
<title>node24&#45;&gt;node55</title>
<path fill="none" stroke="black" d="M342.51,-1880.85C376.37,-1856.22 442.8,-1811.15 506.16,-1787 529.44,-1778.13 556.06,-1772.05 579.76,-1767.95"/>
<polygon fill="black" stroke="black" points="580.42,-1771.39 589.72,-1766.31 579.28,-1764.48 580.42,-1771.39"/>
</g>
<!-- node26 -->
<g id="node27" class="node">
<title>node26</title>
<ellipse fill="none" stroke="black" cx="318.72" cy="-2006" rx="92.88" ry="18"/>
<text text-anchor="middle" x="318.72" y="-2002.3" font-family="Times,serif" font-size="14.00">sampling_util.cpp</text>
</g>
<!-- node26&#45;&gt;node19 -->
<g id="edge47" class="edge">
<title>node26&#45;&gt;node19</title>
<path fill="none" stroke="black" d="M411.35,-2003.75C456.32,-2002.65 510.32,-2001.32 555.13,-2000.22"/>
<polygon fill="black" stroke="black" points="555.22,-2003.72 565.13,-1999.97 555.05,-1996.72 555.22,-2003.72"/>
</g>
<!-- node27 -->
<g id="node28" class="node">
<title>node27</title>
<ellipse fill="none" stroke="black" cx="318.72" cy="-593" rx="130.78" ry="18"/>
<text text-anchor="middle" x="318.72" y="-589.3" font-family="Times,serif" font-size="14.00">datadog_agent_config.cpp</text>
</g>
<!-- node27&#45;&gt;node22 -->
<g id="edge49" class="edge">
<title>node27&#45;&gt;node22</title>
<path fill="none" stroke="black" d="M417.57,-581.18C435.41,-577.42 453.61,-572.48 470.16,-566 487.84,-559.08 487.94,-548.32 506.16,-543 625.94,-508 692.33,-461.63 786.94,-543 827.49,-577.88 810.43,-728.99 822.94,-781 856.02,-918.63 916.07,-1077.26 940.81,-1140.2"/>
<polygon fill="black" stroke="black" points="937.68,-1141.78 944.61,-1149.8 944.19,-1139.21 937.68,-1141.78"/>
</g>
<!-- node27&#45;&gt;node25 -->
<g id="edge50" class="edge">
<title>node27&#45;&gt;node25</title>
<path fill="none" stroke="black" d="M440.5,-586.29C451.62,-581.49 461.82,-574.91 470.16,-566 568.27,-461.2 408.77,-350.47 506.16,-245 513.78,-236.75 523.1,-230.58 533.28,-226.01"/>
<polygon fill="black" stroke="black" points="534.81,-229.17 542.84,-222.26 532.25,-222.66 534.81,-229.17"/>
</g>
<!-- node27&#45;&gt;node41 -->
<g id="edge52" class="edge">
<title>node27&#45;&gt;node41</title>
<path fill="none" stroke="black" d="M413.19,-605.51C435.1,-612.93 456.12,-624.63 470.16,-643 558.27,-758.3 410.77,-1185.65 506.16,-1295 510.16,-1299.58 514.68,-1303.53 519.58,-1306.93"/>
<polygon fill="black" stroke="black" points="517.81,-1309.95 528.18,-1312.13 521.44,-1303.96 517.81,-1309.95"/>
</g>
<!-- node27&#45;&gt;node42 -->
<g id="edge48" class="edge">
<title>node27&#45;&gt;node42</title>
<path fill="none" stroke="black" d="M407.27,-606.37C430.4,-613.76 453.51,-625.22 470.16,-643 513.49,-689.27 465.58,-732.31 506.16,-781 526.58,-805.49 558.28,-821.28 586.29,-831.15"/>
<polygon fill="black" stroke="black" points="585.43,-834.55 596.02,-834.4 587.65,-827.92 585.43,-834.55"/>
</g>
<!-- node61 -->
<g id="node62" class="node">
<title>node61</title>
<ellipse fill="none" stroke="black" cx="646.55" cy="-570" rx="78.79" ry="18"/>
<text text-anchor="middle" x="646.55" y="-566.3" font-family="Times,serif" font-size="14.00">environment.h</text>
</g>
<!-- node27&#45;&gt;node61 -->
<g id="edge51" class="edge">
<title>node27&#45;&gt;node61</title>
<path fill="none" stroke="black" d="M435.52,-584.83C476.99,-581.9 522.92,-578.66 561.23,-575.95"/>
<polygon fill="black" stroke="black" points="561.58,-579.44 571.31,-575.24 561.08,-572.45 561.58,-579.44"/>
</g>
<!-- node28 -->
<g id="node29" class="node">
<title>node28</title>
<ellipse fill="none" stroke="black" cx="318.72" cy="-2290" rx="51.99" ry="18"/>
<text text-anchor="middle" x="318.72" y="-2286.3" font-family="Times,serif" font-size="14.00">span.cpp</text>
</g>
<!-- node28&#45;&gt;node4 -->
<g id="edge53" class="edge">
<title>node28&#45;&gt;node4</title>
<path fill="none" stroke="black" d="M366.06,-2297.68C418.59,-2306.39 505.09,-2320.72 567.96,-2331.14"/>
<polygon fill="black" stroke="black" points="567.4,-2334.6 577.84,-2332.78 568.55,-2327.69 567.4,-2334.6"/>
</g>
<!-- node28&#45;&gt;node5 -->
<g id="edge55" class="edge">
<title>node28&#45;&gt;node5</title>
<path fill="none" stroke="black" d="M346.13,-2274.53C381.55,-2252.15 443.12,-2207.06 470.16,-2150 523.85,-2036.71 446.15,-1697.07 506.16,-1587 526.87,-1549.01 568.3,-1521.2 600.63,-1504.12"/>
<polygon fill="black" stroke="black" points="602.6,-1507.04 609.91,-1499.38 599.42,-1500.81 602.6,-1507.04"/>
</g>
<!-- node28&#45;&gt;node10 -->
<g id="edge58" class="edge">
<title>node28&#45;&gt;node10</title>
<path fill="none" stroke="black" d="M370.99,-2290C432.83,-2290 536.01,-2290 596.73,-2290"/>
<polygon fill="black" stroke="black" points="596.82,-2293.5 606.82,-2290 596.82,-2286.5 596.82,-2293.5"/>
</g>
<!-- node28&#45;&gt;node15 -->
<g id="edge57" class="edge">
<title>node28&#45;&gt;node15</title>
<path fill="none" stroke="black" d="M366.32,-2297.28C400.79,-2305.26 445.82,-2321.69 470.16,-2355 517.86,-2420.27 476.15,-2641.94 506.16,-2717 531.75,-2780.99 587.47,-2841.13 620.19,-2872.79"/>
<polygon fill="black" stroke="black" points="617.93,-2875.47 627.58,-2879.84 622.76,-2870.41 617.93,-2875.47"/>
</g>
<!-- node28&#45;&gt;node21 -->
<g id="edge56" class="edge">
<title>node28&#45;&gt;node21</title>
<path fill="none" stroke="black" d="M341.68,-2273.67C373.18,-2249.41 431.65,-2201.16 470.16,-2150 491.44,-2121.73 477.92,-2100.31 506.16,-2079 524.42,-2065.22 547.75,-2057.89 570.09,-2054.13"/>
<polygon fill="black" stroke="black" points="570.86,-2057.55 580.25,-2052.65 569.85,-2050.63 570.86,-2057.55"/>
</g>
<!-- node28&#45;&gt;node60 -->
<g id="edge54" class="edge">
<title>node28&#45;&gt;node60</title>
<path fill="none" stroke="black" d="M365.81,-2297.66C400.01,-2305.85 444.92,-2322.37 470.16,-2355 534.01,-2437.53 452.14,-2497.73 506.16,-2587 528.56,-2624.02 569.78,-2651.95 601.61,-2669.32"/>
<polygon fill="black" stroke="black" points="600.25,-2672.57 610.73,-2674.16 603.53,-2666.38 600.25,-2672.57"/>
</g>
<!-- node29 -->
<g id="node30" class="node">
<title>node29</title>
<ellipse fill="none" stroke="black" cx="1464.29" cy="-1824" rx="71.49" ry="18"/>
<text text-anchor="middle" x="1464.29" y="-1820.3" font-family="Times,serif" font-size="14.00">json_fwd.hpp</text>
</g>
<!-- node30 -->
<g id="node31" class="node">
<title>node30</title>
<ellipse fill="none" stroke="black" cx="646.55" cy="-1614" rx="104.78" ry="18"/>
<text text-anchor="middle" x="646.55" y="-1610.3" font-family="Times,serif" font-size="14.00">event_scheduler.cpp</text>
</g>
<!-- node33 -->
<g id="node34" class="node">
<title>node33</title>
<ellipse fill="none" stroke="black" cx="952.93" cy="-1322" rx="94.48" ry="18"/>
<text text-anchor="middle" x="952.93" y="-1318.3" font-family="Times,serif" font-size="14.00">event_scheduler.h</text>
</g>
<!-- node30&#45;&gt;node33 -->
<g id="edge59" class="edge">
<title>node30&#45;&gt;node33</title>
<path fill="none" stroke="black" d="M741.22,-1606.12C757.93,-1601.13 774.08,-1593.51 786.94,-1582 823.07,-1549.66 799.18,-1521.27 822.94,-1479 851.81,-1427.62 897.93,-1376.44 926.5,-1347.07"/>
<polygon fill="black" stroke="black" points="929.19,-1349.33 933.71,-1339.74 924.2,-1344.42 929.19,-1349.33"/>
</g>
<!-- node31 -->
<g id="node32" class="node">
<title>node31</title>
<ellipse fill="none" stroke="black" cx="646.55" cy="-1268" rx="87.99" ry="18"/>
<text text-anchor="middle" x="646.55" y="-1264.3" font-family="Times,serif" font-size="14.00">datadog_agent.h</text>
</g>
<!-- node31&#45;&gt;node33 -->
<g id="edge63" class="edge">
<title>node31&#45;&gt;node33</title>
<path fill="none" stroke="black" d="M713.59,-1279.72C760.54,-1288.05 823.79,-1299.27 873.34,-1308.06"/>
<polygon fill="black" stroke="black" points="872.91,-1311.54 883.37,-1309.84 874.14,-1304.64 872.91,-1311.54"/>
</g>
<!-- node31&#45;&gt;node35 -->
<g id="edge60" class="edge">
<title>node31&#45;&gt;node35</title>
<path fill="none" stroke="black" d="M734.25,-1267.36C854.2,-1267.38 1058.83,-1270.99 1082.91,-1295 1126.75,-1338.72 1108.83,-1789.92 1118.91,-1851 1145.07,-2009.49 1204.19,-2193.49 1227.32,-2262.23"/>
<polygon fill="black" stroke="black" points="1224.07,-2263.53 1230.59,-2271.88 1230.7,-2261.29 1224.07,-2263.53"/>
</g>
<!-- node50 -->
<g id="node51" class="node">
<title>node50</title>
<ellipse fill="none" stroke="black" cx="952.93" cy="-1230" rx="58.49" ry="18"/>
<text text-anchor="middle" x="952.93" y="-1226.3" font-family="Times,serif" font-size="14.00">collector.h</text>
</g>
<!-- node31&#45;&gt;node50 -->
<g id="edge61" class="edge">
<title>node31&#45;&gt;node50</title>
<path fill="none" stroke="black" d="M722.01,-1258.7C772.94,-1252.35 839.76,-1244 888.23,-1237.95"/>
<polygon fill="black" stroke="black" points="888.79,-1241.41 898.28,-1236.7 887.92,-1234.46 888.79,-1241.41"/>
</g>
<!-- node31&#45;&gt;node81 -->
<g id="edge62" class="edge">
<title>node31&#45;&gt;node81</title>
<path fill="none" stroke="black" d="M733.73,-1265.37C752.97,-1261.18 772.05,-1253.75 786.94,-1241 822.81,-1210.27 799.09,-1181.78 822.94,-1141 937.78,-944.58 1137.57,-752.59 1209.81,-686.32"/>
<polygon fill="black" stroke="black" points="1212.56,-688.55 1217.58,-679.23 1207.84,-683.38 1212.56,-688.55"/>
</g>
<!-- node33&#45;&gt;node32 -->
<g id="edge64" class="edge">
<title>node33&#45;&gt;node32</title>
<path fill="none" stroke="black" d="M1041.42,-1315.67C1168.04,-1311.6 1401.81,-1323.95 1535.78,-1454 1574.77,-1491.85 1600.45,-1657.24 1609.45,-1724.45"/>
<polygon fill="black" stroke="black" points="1606.02,-1725.26 1610.79,-1734.72 1612.96,-1724.35 1606.02,-1725.26"/>
</g>
<!-- node34&#45;&gt;node13 -->
<g id="edge65" class="edge">
<title>node34&#45;&gt;node13</title>
<path fill="none" stroke="black" d="M722.92,-1419.28C857.54,-1403.66 1145.04,-1386.49 1356.79,-1487 1395.81,-1505.52 1428.03,-1544.94 1446.47,-1571.46"/>
<polygon fill="black" stroke="black" points="1443.68,-1573.59 1452.18,-1579.91 1449.48,-1569.67 1443.68,-1573.59"/>
</g>
<!-- node37 -->
<g id="node38" class="node">
<title>node37</title>
<ellipse fill="none" stroke="black" cx="646.55" cy="-272" rx="37.89" ry="18"/>
<text text-anchor="middle" x="646.55" y="-268.3" font-family="Times,serif" font-size="14.00">curl.h</text>
</g>
<!-- node37&#45;&gt;node81 -->
<g id="edge66" class="edge">
<title>node37&#45;&gt;node81</title>
<path fill="none" stroke="black" d="M683.92,-269.14C764.48,-264.74 960.5,-265.05 1082.91,-358 1176.48,-429.04 1217.51,-572.79 1231.21,-633.7"/>
<polygon fill="black" stroke="black" points="1227.85,-634.71 1233.39,-643.74 1234.69,-633.23 1227.85,-634.71"/>
</g>
<!-- node39 -->
<g id="node40" class="node">
<title>node39</title>
<ellipse fill="none" stroke="black" cx="646.55" cy="-2506" rx="94.48" ry="18"/>
<text text-anchor="middle" x="646.55" y="-2502.3" font-family="Times,serif" font-size="14.00">span_defaults.cpp</text>
</g>
<!-- node39&#45;&gt;node38 -->
<g id="edge67" class="edge">
<title>node39&#45;&gt;node38</title>
<path fill="none" stroke="black" d="M735.18,-2499.67C775.49,-2496.75 823.22,-2493.3 863.62,-2490.38"/>
<polygon fill="black" stroke="black" points="864,-2493.86 873.72,-2489.65 863.5,-2486.88 864,-2493.86"/>
</g>
<!-- node40 -->
<g id="node41" class="node">
<title>node40</title>
<ellipse fill="none" stroke="black" cx="318.72" cy="-2812" rx="46.59" ry="18"/>
<text text-anchor="middle" x="318.72" y="-2808.3" font-family="Times,serif" font-size="14.00">tracer.h</text>
</g>
<!-- node40&#45;&gt;node11 -->
<g id="edge73" class="edge">
<title>node40&#45;&gt;node11</title>
<path fill="none" stroke="black" d="M355.21,-2800.63C391.19,-2787.02 445.03,-2760.45 470.16,-2717 518.93,-2632.67 442.64,-1914.86 506.16,-1841 519.15,-1825.89 537.84,-1817.63 557.33,-1813.4"/>
<polygon fill="black" stroke="black" points="558.04,-1816.83 567.25,-1811.59 556.79,-1809.95 558.04,-1816.83"/>
</g>
<!-- node40&#45;&gt;node13 -->
<g id="edge72" class="edge">
<title>node40&#45;&gt;node13</title>
<path fill="none" stroke="black" d="M365.24,-2809.93C548.86,-2800.52 1231.36,-2755.09 1356.79,-2595 1411.53,-2525.13 1375.79,-1884.11 1392.79,-1797 1405.2,-1733.43 1434.07,-1662.8 1450.76,-1625.15"/>
<polygon fill="black" stroke="black" points="1454.02,-1626.43 1454.92,-1615.88 1447.63,-1623.57 1454.02,-1626.43"/>
</g>
<!-- node40&#45;&gt;node15 -->
<g id="edge70" class="edge">
<title>node40&#45;&gt;node15</title>
<path fill="none" stroke="black" d="M356.38,-2822.77C393.88,-2833.65 453.89,-2850.72 506.16,-2864 536.99,-2871.83 571.88,-2879.84 599.04,-2885.89"/>
<polygon fill="black" stroke="black" points="598.53,-2889.36 609.05,-2888.11 600.04,-2882.53 598.53,-2889.36"/>
</g>
<!-- node40&#45;&gt;node32 -->
<g id="edge71" class="edge">
<title>node40&#45;&gt;node32</title>
<path fill="none" stroke="black" d="M364.13,-2816.51C467.23,-2826.57 730.92,-2850 951.93,-2850 951.93,-2850 951.93,-2850 1238.85,-2850 1305.46,-2850 1490.22,-2857.59 1535.78,-2809 1608.07,-2731.91 1612.82,-1941.18 1613.03,-1781.15"/>
<polygon fill="black" stroke="black" points="1616.53,-1781.14 1613.04,-1771.13 1609.53,-1781.13 1616.53,-1781.14"/>
</g>
<!-- node40&#45;&gt;node35 -->
<g id="edge68" class="edge">
<title>node40&#45;&gt;node35</title>
<path fill="none" stroke="black" d="M363.31,-2806.19C446.83,-2794.38 634.66,-2764.6 786.94,-2717 923.56,-2674.29 978.28,-2687.68 1082.91,-2590 1126.57,-2549.25 1198.42,-2382.9 1225.79,-2317.04"/>
<polygon fill="black" stroke="black" points="1229.06,-2318.3 1229.65,-2307.72 1222.59,-2315.62 1229.06,-2318.3"/>
</g>
<!-- node40&#45;&gt;node65 -->
<g id="edge69" class="edge">
<title>node40&#45;&gt;node65</title>
<path fill="none" stroke="black" d="M332.18,-2829.44C359.06,-2865.38 426.54,-2946.83 506.16,-2977 622.85,-3021.22 662.69,-2988.57 786.94,-2977 820.57,-2973.87 857.57,-2967.22 887.99,-2960.88"/>
<polygon fill="black" stroke="black" points="888.98,-2964.24 898.04,-2958.74 887.53,-2957.4 888.98,-2964.24"/>
</g>
<!-- node41&#45;&gt;node33 -->
<g id="edge74" class="edge">
<title>node41&#45;&gt;node33</title>
<path fill="none" stroke="black" d="M787.27,-1322C807.76,-1322 828.56,-1322 848.16,-1322"/>
<polygon fill="black" stroke="black" points="848.29,-1325.5 858.29,-1322 848.29,-1318.5 848.29,-1325.5"/>
</g>
<!-- node42&#45;&gt;node13 -->
<g id="edge75" class="edge">
<title>node42&#45;&gt;node13</title>
<path fill="none" stroke="black" d="M689.14,-859.84C826.74,-906.41 1263.77,-1060.78 1356.79,-1173 1456.76,-1293.59 1464.81,-1495.18 1464.13,-1569.42"/>
<polygon fill="black" stroke="black" points="1460.63,-1569.77 1463.97,-1579.82 1467.62,-1569.88 1460.63,-1569.77"/>
</g>
<!-- node43 -->
<g id="node44" class="node">
<title>node43</title>
<ellipse fill="none" stroke="black" cx="1237.85" cy="-1514" rx="72.29" ry="18"/>
<text text-anchor="middle" x="1237.85" y="-1510.3" font-family="Times,serif" font-size="14.00">expected.cpp</text>
</g>
<!-- node43&#45;&gt;node13 -->
<g id="edge76" class="edge">
<title>node43&#45;&gt;node13</title>
<path fill="none" stroke="black" d="M1291.78,-1526.08C1312.35,-1531.37 1335.94,-1538.16 1356.79,-1546 1380.23,-1554.81 1405.46,-1567 1425.47,-1577.36"/>
<polygon fill="black" stroke="black" points="1424.08,-1580.58 1434.56,-1582.13 1427.33,-1574.38 1424.08,-1580.58"/>
</g>
<!-- node44 -->
<g id="node45" class="node">
<title>node44</title>
<ellipse fill="none" stroke="black" cx="646.55" cy="-1214" rx="69.59" ry="18"/>
<text text-anchor="middle" x="646.55" y="-1210.3" font-family="Times,serif" font-size="14.00">collector.cpp</text>
</g>
<!-- node44&#45;&gt;node50 -->
<g id="edge77" class="edge">
<title>node44&#45;&gt;node50</title>
<path fill="none" stroke="black" d="M715.1,-1217.55C765.57,-1220.2 834.24,-1223.81 884.64,-1226.46"/>
<polygon fill="black" stroke="black" points="884.62,-1229.97 894.79,-1227 884.98,-1222.98 884.62,-1229.97"/>
</g>
<!-- node45 -->
<g id="node46" class="node">
<title>node45</title>
<ellipse fill="none" stroke="black" cx="646.55" cy="-2950" rx="88.28" ry="18"/>
<text text-anchor="middle" x="646.55" y="-2946.3" font-family="Times,serif" font-size="14.00">id_generator.cpp</text>
</g>
<!-- node45&#45;&gt;node65 -->
<g id="edge78" class="edge">
<title>node45&#45;&gt;node65</title>
<path fill="none" stroke="black" d="M734.77,-2948.85C775.74,-2948.32 824.45,-2947.68 865.34,-2947.14"/>
<polygon fill="black" stroke="black" points="865.61,-2950.63 875.56,-2947 865.51,-2943.64 865.61,-2950.63"/>
</g>
<!-- node46 -->
<g id="node47" class="node">
<title>node46</title>
<ellipse fill="none" stroke="black" cx="646.55" cy="-2452" rx="115.08" ry="18"/>
<text text-anchor="middle" x="646.55" y="-2448.3" font-family="Times,serif" font-size="14.00">sampling_decision.cpp</text>
</g>
<!-- node46&#45;&gt;node20 -->
<g id="edge79" class="edge">
<title>node46&#45;&gt;node20</title>
<path fill="none" stroke="black" d="M722.24,-2438.44C743.23,-2434.38 766.02,-2429.75 786.94,-2425 820,-2417.5 856.51,-2408.1 886.76,-2400"/>
<polygon fill="black" stroke="black" points="888.02,-2403.29 896.77,-2397.31 886.2,-2396.53 888.02,-2403.29"/>
</g>
<!-- node47 -->
<g id="node48" class="node">
<title>node47</title>
<ellipse fill="none" stroke="black" cx="318.72" cy="-1952" rx="94.78" ry="18"/>
<text text-anchor="middle" x="318.72" y="-1948.3" font-family="Times,serif" font-size="14.00">trace_sampler.cpp</text>
</g>
<!-- node47&#45;&gt;node19 -->
<g id="edge80" class="edge">
<title>node47&#45;&gt;node19</title>
<path fill="none" stroke="black" d="M395.29,-1962.67C446.85,-1969.95 514.96,-1979.56 567.11,-1986.93"/>
<polygon fill="black" stroke="black" points="566.93,-1990.44 577.32,-1988.37 567.91,-1983.5 566.93,-1990.44"/>
</g>
<!-- node47&#45;&gt;node20 -->
<g id="edge84" class="edge">
<title>node47&#45;&gt;node20</title>
<path fill="none" stroke="black" d="M401.75,-1943.08C520.83,-1932.1 733.23,-1920.57 786.94,-1971 843.29,-2023.91 779.04,-2253.37 822.94,-2317 837.7,-2338.41 861.68,-2353.14 884.97,-2363.09"/>
<polygon fill="black" stroke="black" points="883.95,-2366.45 894.54,-2366.93 886.56,-2359.96 883.95,-2366.45"/>
</g>
<!-- node47&#45;&gt;node21 -->
<g id="edge85" class="edge">
<title>node47&#45;&gt;node21</title>
<path fill="none" stroke="black" d="M409.88,-1957.28C430.74,-1961.39 452.09,-1968.12 470.16,-1979 492.4,-1992.4 484.02,-2011.45 506.16,-2025 525.49,-2036.82 548.91,-2043.64 570.99,-2047.52"/>
<polygon fill="black" stroke="black" points="570.6,-2051 581.02,-2049.1 571.69,-2044.08 570.6,-2051"/>
</g>
<!-- node54 -->
<g id="node55" class="node">
<title>node54</title>
<ellipse fill="none" stroke="black" cx="646.55" cy="-1706" rx="105.88" ry="18"/>
<text text-anchor="middle" x="646.55" y="-1702.3" font-family="Times,serif" font-size="14.00">collector_response.h</text>
</g>
<!-- node47&#45;&gt;node54 -->
<g id="edge83" class="edge">
<title>node47&#45;&gt;node54</title>
<path fill="none" stroke="black" d="M413.9,-1952.46C434.75,-1948.2 455.09,-1939.95 470.16,-1925 531.79,-1863.85 444.95,-1794.57 506.16,-1733 514.29,-1724.82 524.11,-1718.73 534.72,-1714.23"/>
<polygon fill="black" stroke="black" points="536.09,-1717.46 544.23,-1710.68 533.64,-1710.9 536.09,-1717.46"/>
</g>
<!-- node56 -->
<g id="node57" class="node">
<title>node56</title>
<ellipse fill="none" stroke="black" cx="646.55" cy="-1868" rx="84.49" ry="18"/>
<text text-anchor="middle" x="646.55" y="-1864.3" font-family="Times,serif" font-size="14.00">trace_sampler.h</text>
</g>
<!-- node47&#45;&gt;node56 -->
<g id="edge81" class="edge">
<title>node47&#45;&gt;node56</title>
<path fill="none" stroke="black" d="M393.61,-1940.81C418.12,-1936.55 445.45,-1931.2 470.16,-1925 512.31,-1914.42 559.07,-1899.03 593.7,-1886.91"/>
<polygon fill="black" stroke="black" points="594.87,-1890.21 603.14,-1883.59 592.54,-1883.61 594.87,-1890.21"/>
</g>
<!-- node83 -->
<g id="node84" class="node">
<title>node83</title>
<ellipse fill="none" stroke="black" cx="646.55" cy="-2560" rx="100.18" ry="18"/>
<text text-anchor="middle" x="646.55" y="-2556.3" font-family="Times,serif" font-size="14.00">sampling_priority.h</text>
</g>
<!-- node47&#45;&gt;node83 -->
<g id="edge82" class="edge">
<title>node47&#45;&gt;node83</title>
<path fill="none" stroke="black" d="M413.27,-1949.9C434.77,-1954.07 455.58,-1962.67 470.16,-1979 552.35,-2071.01 424.61,-2440.43 506.16,-2533 514.65,-2542.63 525.45,-2549.46 537.27,-2554.23"/>
<polygon fill="black" stroke="black" points="536.35,-2557.62 546.95,-2557.63 538.67,-2551.02 536.35,-2557.62"/>
</g>
<!-- node48 -->
<g id="node49" class="node">
<title>node48</title>
<ellipse fill="none" stroke="black" cx="318.72" cy="-2560" rx="110.48" ry="18"/>
<text text-anchor="middle" x="318.72" y="-2556.3" font-family="Times,serif" font-size="14.00">sampling_priority.cpp</text>
</g>
<!-- node48&#45;&gt;node83 -->
<g id="edge86" class="edge">
<title>node48&#45;&gt;node83</title>
<path fill="none" stroke="black" d="M429.58,-2560C463.97,-2560 501.89,-2560 536.24,-2560"/>
<polygon fill="black" stroke="black" points="536.3,-2563.5 546.3,-2560 536.3,-2556.5 536.3,-2563.5"/>
</g>
<!-- node49 -->
<g id="node50" class="node">
<title>node49</title>
<ellipse fill="none" stroke="black" cx="318.72" cy="-2382" rx="92.88" ry="18"/>
<text text-anchor="middle" x="318.72" y="-2378.3" font-family="Times,serif" font-size="14.00">span_sampler.cpp</text>
</g>
<!-- node49&#45;&gt;node8 -->
<g id="edge90" class="edge">
<title>node49&#45;&gt;node8</title>
<path fill="none" stroke="black" d="M409.19,-2386.39C454.73,-2388.63 509.95,-2391.34 555.56,-2393.58"/>
<polygon fill="black" stroke="black" points="555.58,-2397.09 565.74,-2394.08 555.92,-2390.09 555.58,-2397.09"/>
</g>
<!-- node49&#45;&gt;node19 -->
<g id="edge88" class="edge">
<title>node49&#45;&gt;node19</title>
<path fill="none" stroke="black" d="M385.43,-2369.36C415.93,-2360.05 449.87,-2344.1 470.16,-2317 548.55,-2212.34 416.93,-2120.58 506.16,-2025 518.92,-2011.33 536.36,-2003.39 554.59,-1998.99"/>
<polygon fill="black" stroke="black" points="555.38,-2002.4 564.46,-1996.94 553.96,-1995.54 555.38,-2002.4"/>
</g>
<!-- node49&#45;&gt;node21 -->
<g id="edge91" class="edge">
<title>node49&#45;&gt;node21</title>
<path fill="none" stroke="black" d="M384.72,-2369.24C415.25,-2359.88 449.41,-2343.93 470.16,-2317 535.46,-2232.26 432.09,-2156.19 506.16,-2079 522.89,-2061.57 547.23,-2053.53 570.92,-2050.24"/>
<polygon fill="black" stroke="black" points="571.45,-2053.7 581,-2049.11 570.67,-2046.75 571.45,-2053.7"/>
</g>
<!-- node49&#45;&gt;node23 -->
<g id="edge87" class="edge">
<title>node49&#45;&gt;node23</title>
<path fill="none" stroke="black" d="M369.03,-2397.2C402.12,-2409.81 444.24,-2430.93 470.16,-2463 506.23,-2507.63 460.27,-2552.54 506.16,-2587 605.22,-2661.39 978.17,-2611.26 1149.64,-2583.28"/>
<polygon fill="black" stroke="black" points="1150.34,-2586.71 1159.64,-2581.63 1149.2,-2579.8 1150.34,-2586.71"/>
</g>
<!-- node49&#45;&gt;node83 -->
<g id="edge89" class="edge">
<title>node49&#45;&gt;node83</title>
<path fill="none" stroke="black" d="M364.42,-2397.72C396.99,-2411 440.45,-2432.72 470.16,-2463 494.66,-2487.97 478.18,-2512.01 506.16,-2533 516.85,-2541.01 529.25,-2546.85 542.17,-2551.06"/>
<polygon fill="black" stroke="black" points="541.55,-2554.52 552.13,-2553.98 543.52,-2547.81 541.55,-2554.52"/>
</g>
<!-- node50&#45;&gt;node13 -->
<g id="edge92" class="edge">
<title>node50&#45;&gt;node13</title>
<path fill="none" stroke="black" d="M1003.59,-1239.05C1027.98,-1244.31 1057.5,-1251.92 1082.91,-1262 1212.72,-1313.5 1257.2,-1318.11 1356.79,-1416 1403.29,-1461.7 1436.63,-1531.89 1452.62,-1570.39"/>
<polygon fill="black" stroke="black" points="1449.48,-1571.96 1456.48,-1579.91 1455.96,-1569.32 1449.48,-1571.96"/>
</g>
<!-- node51 -->
<g id="node52" class="node">
<title>node51</title>
<ellipse fill="none" stroke="black" cx="318.72" cy="-372" rx="48.19" ry="18"/>
<text text-anchor="middle" x="318.72" y="-368.3" font-family="Times,serif" font-size="14.00">curl.cpp</text>
</g>
<!-- node51&#45;&gt;node5 -->
<g id="edge95" class="edge">
<title>node51&#45;&gt;node5</title>
<path fill="none" stroke="black" d="M345.74,-386.99C381.31,-409.13 443.71,-454.27 470.16,-512 513.94,-607.52 437.77,-1377.23 506.16,-1457 521.6,-1475.01 545.14,-1483.3 568.5,-1486.62"/>
<polygon fill="black" stroke="black" points="568.14,-1490.1 578.47,-1487.76 568.93,-1483.15 568.14,-1490.1"/>
</g>
<!-- node51&#45;&gt;node12 -->
<g id="edge97" class="edge">
<title>node51&#45;&gt;node12</title>
<path fill="none" stroke="black" d="M364.01,-365.75C420.57,-357.76 518.82,-343.89 583.01,-334.83"/>
<polygon fill="black" stroke="black" points="583.59,-338.28 593,-333.42 582.61,-331.35 583.59,-338.28"/>
</g>
<!-- node51&#45;&gt;node36 -->
<g id="edge93" class="edge">
<title>node51&#45;&gt;node36</title>
<path fill="none" stroke="black" d="M366.43,-375.07C478.76,-382.89 756.99,-405.01 786.94,-434 857.18,-502 773.46,-566.68 822.94,-651 844.62,-687.96 884.98,-716.88 914.8,-734.55"/>
<polygon fill="black" stroke="black" points="913.28,-737.71 923.69,-739.67 916.77,-731.64 913.28,-737.71"/>
</g>
<!-- node51&#45;&gt;node37 -->
<g id="edge94" class="edge">
<title>node51&#45;&gt;node37</title>
<path fill="none" stroke="black" d="M349.82,-358.25C386.19,-342.09 449.57,-315.41 506.16,-299 537.02,-290.05 572.59,-283.22 600.07,-278.66"/>
<polygon fill="black" stroke="black" points="600.87,-282.08 610.19,-277.03 599.76,-275.17 600.87,-282.08"/>
</g>
<!-- node51&#45;&gt;node42 -->
<g id="edge96" class="edge">
<title>node51&#45;&gt;node42</title>
<path fill="none" stroke="black" d="M344.7,-387.17C379.31,-409.68 440.91,-455.43 470.16,-512 525.56,-619.15 434.73,-683.8 506.16,-781 524.9,-806.5 556.17,-822.32 584.34,-831.96"/>
<polygon fill="black" stroke="black" points="583.56,-835.39 594.16,-835.12 585.71,-828.72 583.56,-835.39"/>
</g>
<!-- node51&#45;&gt;node77 -->
<g id="edge99" class="edge">
<title>node51&#45;&gt;node77</title>
<path fill="none" stroke="black" d="M359.29,-362.17C393.16,-351.81 440.96,-332.27 470.16,-299 503.54,-260.97 468.13,-224.37 506.16,-191 522.4,-176.76 543.85,-169.1 565.04,-165.19"/>
<polygon fill="black" stroke="black" points="565.74,-168.62 575.07,-163.6 564.65,-161.71 565.74,-168.62"/>
</g>
<!-- node51&#45;&gt;node81 -->
<g id="edge98" class="edge">
<title>node51&#45;&gt;node81</title>
<path fill="none" stroke="black" d="M364.07,-365.91C448.5,-355.92 637.25,-341.32 786.94,-386 964.61,-439.04 1142.5,-580.66 1209.26,-637.7"/>
<polygon fill="black" stroke="black" points="1207.35,-640.67 1217.21,-644.54 1211.91,-635.36 1207.35,-640.67"/>
</g>
<!-- node52 -->
<g id="node53" class="node">
<title>node52</title>
<ellipse fill="none" stroke="black" cx="318.72" cy="-1054" rx="90.98" ry="18"/>
<text text-anchor="middle" x="318.72" y="-1050.3" font-family="Times,serif" font-size="14.00">null_collector.cpp</text>
</g>
<!-- node70 -->
<g id="node71" class="node">
<title>node70</title>
<ellipse fill="none" stroke="black" cx="646.55" cy="-976" rx="80.69" ry="18"/>
<text text-anchor="middle" x="646.55" y="-972.3" font-family="Times,serif" font-size="14.00">null_collector.h</text>
</g>
<!-- node52&#45;&gt;node70 -->
<g id="edge100" class="edge">
<title>node52&#45;&gt;node70</title>
<path fill="none" stroke="black" d="M399.9,-1045.85C423.12,-1041.84 448.13,-1035.87 470.16,-1027 488,-1019.82 488.37,-1010.3 506.16,-1003 524.5,-995.47 545.07,-990.01 564.66,-986.05"/>
<polygon fill="black" stroke="black" points="565.32,-989.49 574.49,-984.18 564.01,-982.62 565.32,-989.49"/>
</g>
<!-- node53 -->
<g id="node54" class="node">
<title>node53</title>
<ellipse fill="none" stroke="black" cx="318.72" cy="-746" rx="82.59" ry="18"/>
<text text-anchor="middle" x="318.72" y="-742.3" font-family="Times,serif" font-size="14.00">cerr_logger.cpp</text>
</g>
<!-- node90 -->
<g id="node91" class="node">
<title>node90</title>
<ellipse fill="none" stroke="black" cx="646.55" cy="-754" rx="71.49" ry="18"/>
<text text-anchor="middle" x="646.55" y="-750.3" font-family="Times,serif" font-size="14.00">cerr_logger.h</text>
</g>
<!-- node53&#45;&gt;node90 -->
<g id="edge101" class="edge">
<title>node53&#45;&gt;node90</title>
<path fill="none" stroke="black" d="M401.1,-748C451.18,-749.23 515.12,-750.8 565.04,-752.02"/>
<polygon fill="black" stroke="black" points="565.06,-755.52 575.14,-752.27 565.23,-748.53 565.06,-755.52"/>
</g>
<!-- node54&#45;&gt;node18 -->
<g id="edge102" class="edge">
<title>node54&#45;&gt;node18</title>
<path fill="none" stroke="black" d="M723.54,-1693.5C744.54,-1688.73 767.02,-1682.35 786.94,-1674 804.45,-1666.66 804.71,-1656.32 822.94,-1651 933.84,-1618.6 970.74,-1623.29 1082.91,-1651 1129.68,-1662.55 1177.93,-1691.15 1207.66,-1711.07"/>
<polygon fill="black" stroke="black" points="1206.03,-1714.2 1216.27,-1716.95 1209.98,-1708.42 1206.03,-1714.2"/>
</g>
<!-- node55&#45;&gt;node13 -->
<g id="edge103" class="edge">
<title>node55&#45;&gt;node13</title>
<path fill="none" stroke="black" d="M706.41,-1762.54C734.18,-1760.59 765.79,-1753.32 786.94,-1733 837.3,-1684.6 768.17,-1623.37 822.94,-1580 911.06,-1510.21 1259.29,-1561.86 1401.9,-1586.68"/>
<polygon fill="black" stroke="black" points="1401.35,-1590.14 1411.8,-1588.42 1402.56,-1583.24 1401.35,-1590.14"/>
</g>
<!-- node56&#45;&gt;node14 -->
<g id="edge107" class="edge">
<title>node56&#45;&gt;node14</title>
<path fill="none" stroke="black" d="M700.6,-1881.84C730.46,-1892.37 765.88,-1909.96 786.94,-1938 839.85,-2008.48 761.36,-2069.95 822.94,-2133 840.99,-2151.49 868.22,-2158.92 893.01,-2161.45"/>
<polygon fill="black" stroke="black" points="892.85,-2164.95 903.09,-2162.23 893.39,-2157.97 892.85,-2164.95"/>
</g>
<!-- node56&#45;&gt;node18 -->
<g id="edge106" class="edge">
<title>node56&#45;&gt;node18</title>
<path fill="none" stroke="black" d="M730.77,-1865.91C750.98,-1861.85 771.26,-1854.34 786.94,-1841 822.28,-1810.93 785.24,-1770.06 822.94,-1743 880.48,-1701.69 1094.71,-1717.46 1190.3,-1726.91"/>
<polygon fill="black" stroke="black" points="1189.96,-1730.4 1200.26,-1727.92 1190.66,-1723.43 1189.96,-1730.4"/>
</g>
<!-- node56&#45;&gt;node35 -->
<g id="edge104" class="edge">
<title>node56&#45;&gt;node35</title>
<path fill="none" stroke="black" d="M694.57,-1882.9C793.88,-1915.02 1021,-1992.07 1082.91,-2044 1156.77,-2105.94 1206.21,-2212.7 1226.48,-2262.69"/>
<polygon fill="black" stroke="black" points="1223.31,-2264.18 1230.25,-2272.18 1229.81,-2261.59 1223.31,-2264.18"/>
</g>
<!-- node56&#45;&gt;node89 -->
<g id="edge105" class="edge">
<title>node56&#45;&gt;node89</title>
<path fill="none" stroke="black" d="M731.19,-1866.86C751.51,-1862.81 771.74,-1855.07 786.94,-1841 831.24,-1799.98 779.71,-1752.16 822.94,-1710 830.38,-1702.74 839.21,-1697.04 848.7,-1692.58"/>
<polygon fill="black" stroke="black" points="850.11,-1695.78 857.97,-1688.68 847.4,-1689.33 850.11,-1695.78"/>
</g>
<!-- node57 -->
<g id="node58" class="node">
<title>node57</title>
<ellipse fill="none" stroke="black" cx="318.72" cy="-2690" rx="84.49" ry="18"/>
<text text-anchor="middle" x="318.72" y="-2686.3" font-family="Times,serif" font-size="14.00">span_config.cpp</text>
</g>
<!-- node57&#45;&gt;node60 -->
<g id="edge108" class="edge">
<title>node57&#45;&gt;node60</title>
<path fill="none" stroke="black" d="M403.63,-2690C452.57,-2690 514.06,-2690 562.79,-2690"/>
<polygon fill="black" stroke="black" points="562.99,-2693.5 572.99,-2690 562.99,-2686.5 562.99,-2693.5"/>
</g>
<!-- node58 -->
<g id="node59" class="node">
<title>node58</title>
<ellipse fill="none" stroke="black" cx="318.72" cy="-1530" rx="79.89" ry="18"/>
<text text-anchor="middle" x="318.72" y="-1526.3" font-family="Times,serif" font-size="14.00">dict_writer.cpp</text>
</g>
<!-- node58&#45;&gt;node5 -->
<g id="edge109" class="edge">
<title>node58&#45;&gt;node5</title>
<path fill="none" stroke="black" d="M386.84,-1520.52C441.73,-1512.77 519.13,-1501.85 574.95,-1493.97"/>
<polygon fill="black" stroke="black" points="575.7,-1497.4 585.11,-1492.53 574.72,-1490.47 575.7,-1497.4"/>
</g>
<!-- node59 -->
<g id="node60" class="node">
<title>node59</title>
<ellipse fill="none" stroke="black" cx="318.72" cy="-800" rx="128.08" ry="18"/>
<text text-anchor="middle" x="318.72" y="-796.3" font-family="Times,serif" font-size="14.00">trace_sampler_config.cpp</text>
</g>
<!-- node59&#45;&gt;node7 -->
<g id="edge112" class="edge">
<title>node59&#45;&gt;node7</title>
<path fill="none" stroke="black" d="M388.12,-815.22C417.18,-824.94 449.14,-840.49 470.16,-865 511.43,-913.11 459.93,-959.63 506.16,-1003 527.54,-1023.05 559.12,-1030.3 586.83,-1032.32"/>
<polygon fill="black" stroke="black" points="586.66,-1035.81 596.83,-1032.84 587.03,-1028.82 586.66,-1035.81"/>
</g>
<!-- node59&#45;&gt;node42 -->
<g id="edge110" class="edge">
<title>node59&#45;&gt;node42</title>
<path fill="none" stroke="black" d="M409.62,-812.69C462.73,-820.19 528.89,-829.53 577.62,-836.41"/>
<polygon fill="black" stroke="black" points="577.36,-839.91 587.75,-837.84 578.33,-832.98 577.36,-839.91"/>
</g>
<!-- node59&#45;&gt;node61 -->
<g id="edge113" class="edge">
<title>node59&#45;&gt;node61</title>
<path fill="none" stroke="black" d="M437.86,-793.26C449.83,-788.54 460.95,-781.99 470.16,-773 527.3,-717.23 449.41,-653.16 506.16,-597 520.04,-583.27 538.67,-575.45 557.78,-571.2"/>
<polygon fill="black" stroke="black" points="558.63,-574.6 567.8,-569.29 557.32,-567.72 558.63,-574.6"/>
</g>
<!-- node59&#45;&gt;node89 -->
<g id="edge111" class="edge">
<title>node59&#45;&gt;node89</title>
<path fill="none" stroke="black" d="M420.93,-789.11C542.63,-778.49 736.83,-770.24 786.94,-819 829.24,-860.17 810.01,-1291.41 822.94,-1349 849.1,-1465.61 910.14,-1595.26 937.82,-1650.58"/>
<polygon fill="black" stroke="black" points="934.8,-1652.37 942.43,-1659.72 941.05,-1649.22 934.8,-1652.37"/>
</g>
<!-- node60&#45;&gt;node35 -->
<g id="edge114" class="edge">
<title>node60&#45;&gt;node35</title>
<path fill="none" stroke="black" d="M702.23,-2678.17C790.15,-2656.97 965,-2605.62 1082.91,-2511 1151.37,-2456.06 1202.21,-2362.86 1224.45,-2317.05"/>
<polygon fill="black" stroke="black" points="1227.74,-2318.3 1228.88,-2307.77 1221.42,-2315.28 1227.74,-2318.3"/>
</g>
<!-- node62 -->
<g id="node63" class="node">
<title>node62</title>
<ellipse fill="none" stroke="black" cx="318.72" cy="-1476" rx="98.58" ry="18"/>
<text text-anchor="middle" x="318.72" y="-1472.3" font-family="Times,serif" font-size="14.00">datadog_agent.cpp</text>
</g>
<!-- node62&#45;&gt;node5 -->
<g id="edge122" class="edge">
<title>node62&#45;&gt;node5</title>
<path fill="none" stroke="black" d="M417.04,-1478.39C464.98,-1479.57 522.02,-1480.97 567.12,-1482.07"/>
<polygon fill="black" stroke="black" points="567.06,-1485.57 577.14,-1482.32 567.23,-1478.58 567.06,-1485.57"/>
</g>
<!-- node62&#45;&gt;node7 -->
<g id="edge118" class="edge">
<title>node62&#45;&gt;node7</title>
<path fill="none" stroke="black" d="M351.46,-1459.01C386.91,-1438.18 442.91,-1399.35 470.16,-1349 532.41,-1234.01 416.93,-1152.58 506.16,-1057 526.54,-1035.18 558.83,-1027.96 587.21,-1026.41"/>
<polygon fill="black" stroke="black" points="587.58,-1029.9 597.46,-1026.08 587.35,-1022.91 587.58,-1029.9"/>
</g>
<!-- node62&#45;&gt;node21 -->
<g id="edge123" class="edge">
<title>node62&#45;&gt;node21</title>
<path fill="none" stroke="black" d="M417.51,-1474.83C437.48,-1479.29 456.52,-1487.79 470.16,-1503 547.79,-1589.57 429.13,-1937.9 506.16,-2025 522.52,-2043.5 547.43,-2051.65 571.69,-2054.73"/>
<polygon fill="black" stroke="black" points="571.35,-2058.21 581.65,-2055.72 572.05,-2051.25 571.35,-2058.21"/>
</g>
<!-- node62&#45;&gt;node22 -->
<g id="edge116" class="edge">
<title>node62&#45;&gt;node22</title>
<path fill="none" stroke="black" d="M349.99,-1458.9C384.61,-1437.7 440.35,-1398.27 470.16,-1349 508.35,-1285.9 449.62,-1234.37 506.16,-1187 554.94,-1146.14 724.7,-1149.9 840.07,-1157.84"/>
<polygon fill="black" stroke="black" points="840.14,-1161.35 850.36,-1158.56 840.64,-1154.37 840.14,-1161.35"/>
</g>
<!-- node62&#45;&gt;node31 -->
<g id="edge120" class="edge">
<title>node62&#45;&gt;node31</title>
<path fill="none" stroke="black" d="M344.49,-1458.52C375.92,-1435.6 430.78,-1393.11 470.16,-1349 489.37,-1327.48 482.15,-1310.98 506.16,-1295 519.84,-1285.9 535.85,-1279.71 552.05,-1275.52"/>
<polygon fill="black" stroke="black" points="553.19,-1278.85 562.13,-1273.17 551.6,-1272.03 553.19,-1278.85"/>
</g>
<!-- node62&#45;&gt;node36 -->
<g id="edge115" class="edge">
<title>node62&#45;&gt;node36</title>
<path fill="none" stroke="black" d="M350.65,-1458.92C385.63,-1437.88 441.44,-1398.72 470.16,-1349 515.34,-1270.8 440.92,-1211.46 506.16,-1149 597.12,-1061.92 698.44,-1200.59 786.94,-1111 879.14,-1017.66 747.11,-925.07 822.94,-818 841.55,-791.72 874.09,-775.68 901.83,-766.24"/>
<polygon fill="black" stroke="black" points="902.95,-769.55 911.41,-763.16 900.82,-762.88 902.95,-769.55"/>
</g>
<!-- node62&#45;&gt;node54 -->
<g id="edge117" class="edge">
<title>node62&#45;&gt;node54</title>
<path fill="none" stroke="black" d="M417.47,-1477.23C436.85,-1481.68 455.65,-1489.57 470.16,-1503 516.69,-1546.05 465.58,-1592.31 506.16,-1641 524.28,-1662.73 551.28,-1677.61 576.7,-1687.59"/>
<polygon fill="black" stroke="black" points="575.75,-1690.97 586.35,-1691.17 578.19,-1684.41 575.75,-1690.97"/>
</g>
<!-- node62&#45;&gt;node55 -->
<g id="edge124" class="edge">
<title>node62&#45;&gt;node55</title>
<path fill="none" stroke="black" d="M417.73,-1475.98C437.32,-1480.45 456.15,-1488.68 470.16,-1503 542.5,-1576.97 434.33,-1658.53 506.16,-1733 524.37,-1751.87 551.51,-1759.72 577.02,-1762.45"/>
<polygon fill="black" stroke="black" points="576.81,-1765.95 587.07,-1763.28 577.39,-1758.97 576.81,-1765.95"/>
</g>
<!-- node62&#45;&gt;node56 -->
<g id="edge121" class="edge">
<title>node62&#45;&gt;node56</title>
<path fill="none" stroke="black" d="M417.49,-1475.29C437.33,-1479.75 456.33,-1488.14 470.16,-1503 573.1,-1613.57 403.99,-1729.72 506.16,-1841 518.33,-1854.25 534.89,-1862.14 552.35,-1866.65"/>
<polygon fill="black" stroke="black" points="551.59,-1870.07 562.11,-1868.82 553.11,-1863.23 551.59,-1870.07"/>
</g>
<!-- node72 -->
<g id="node73" class="node">
<title>node72</title>
<ellipse fill="none" stroke="black" cx="646.55" cy="-1084" rx="53.89" ry="18"/>
<text text-anchor="middle" x="646.55" y="-1080.3" font-family="Times,serif" font-size="14.00">version.h</text>
</g>
<!-- node62&#45;&gt;node72 -->
<g id="edge119" class="edge">
<title>node62&#45;&gt;node72</title>
<path fill="none" stroke="black" d="M351.18,-1458.86C386.38,-1437.89 442.14,-1398.92 470.16,-1349 521.45,-1257.63 434.8,-1192.73 506.16,-1116 525.5,-1095.2 555.39,-1086.6 582.54,-1083.45"/>
<polygon fill="black" stroke="black" points="583.15,-1086.91 592.78,-1082.5 582.5,-1079.94 583.15,-1086.91"/>
</g>
<!-- node63 -->
<g id="node64" class="node">
<title>node63</title>
<ellipse fill="none" stroke="black" cx="318.72" cy="-18" rx="56.59" ry="18"/>
<text text-anchor="middle" x="318.72" y="-14.3" font-family="Times,serif" font-size="14.00">winsock.h</text>
</g>
<!-- node64 -->
<g id="node65" class="node">
<title>node64</title>
<ellipse fill="none" stroke="black" cx="318.72" cy="-539" rx="89.08" ry="18"/>
<text text-anchor="middle" x="318.72" y="-535.3" font-family="Times,serif" font-size="14.00">environment.cpp</text>
</g>
<!-- node64&#45;&gt;node61 -->
<g id="edge125" class="edge">
<title>node64&#45;&gt;node61</title>
<path fill="none" stroke="black" d="M399.85,-546.62C449.56,-551.35 513.28,-557.42 563.37,-562.18"/>
<polygon fill="black" stroke="black" points="563.23,-565.68 573.52,-563.15 563.89,-558.72 563.23,-565.68"/>
</g>
<!-- node66 -->
<g id="node67" class="node">
<title>node66</title>
<ellipse fill="none" stroke="black" cx="318.72" cy="-892" rx="90.98" ry="18"/>
<text text-anchor="middle" x="318.72" y="-888.3" font-family="Times,serif" font-size="14.00">tracer_config.cpp</text>
</g>
<!-- node66&#45;&gt;node11 -->
<g id="edge128" class="edge">
<title>node66&#45;&gt;node11</title>
<path fill="none" stroke="black" d="M408.44,-888.76C431.72,-892.52 454.64,-901.2 470.16,-919 533.62,-991.74 443.21,-1713.83 506.16,-1787 519.16,-1802.11 537.85,-1810.36 557.33,-1814.59"/>
<polygon fill="black" stroke="black" points="556.79,-1818.05 567.26,-1816.4 558.05,-1811.16 556.79,-1818.05"/>
</g>
<!-- node66&#45;&gt;node31 -->
<g id="edge131" class="edge">
<title>node66&#45;&gt;node31</title>
<path fill="none" stroke="black" d="M409.22,-889.73C431.96,-893.63 454.39,-902.14 470.16,-919 568.56,-1024.14 408.49,-1135.18 506.16,-1241 517.45,-1253.22 532.47,-1260.88 548.47,-1265.53"/>
<polygon fill="black" stroke="black" points="547.99,-1269.01 558.54,-1268.04 549.69,-1262.22 547.99,-1269.01"/>
</g>
<!-- node66&#45;&gt;node42 -->
<g id="edge126" class="edge">
<title>node66&#45;&gt;node42</title>
<path fill="none" stroke="black" d="M393.25,-881.62C448.53,-873.82 523.7,-863.2 577.58,-855.6"/>
<polygon fill="black" stroke="black" points="578.31,-859.03 587.72,-854.16 577.33,-852.1 578.31,-859.03"/>
</g>
<!-- node66&#45;&gt;node61 -->
<g id="edge129" class="edge">
<title>node66&#45;&gt;node61</title>
<path fill="none" stroke="black" d="M383.9,-879.43C414.6,-870.09 449.17,-854.1 470.16,-827 533.53,-745.21 434.33,-671.47 506.16,-597 519.92,-582.73 538.79,-574.77 558.2,-570.55"/>
<polygon fill="black" stroke="black" points="558.87,-573.98 568.06,-568.72 557.59,-567.1 558.87,-573.98"/>
</g>
<!-- node66&#45;&gt;node70 -->
<g id="edge130" class="edge">
<title>node66&#45;&gt;node70</title>
<path fill="none" stroke="black" d="M391.7,-902.86C416.7,-907.17 444.81,-912.64 470.16,-919 512.6,-929.65 559.7,-945.17 594.4,-957.33"/>
<polygon fill="black" stroke="black" points="593.25,-960.64 603.85,-960.66 595.58,-954.03 593.25,-960.64"/>
</g>
<!-- node66&#45;&gt;node90 -->
<g id="edge127" class="edge">
<title>node66&#45;&gt;node90</title>
<path fill="none" stroke="black" d="M358.06,-875.76C418.22,-850.28 534.61,-800.99 599.32,-773.58"/>
<polygon fill="black" stroke="black" points="601.02,-776.66 608.86,-769.54 598.29,-770.22 601.02,-776.66"/>
</g>
<!-- node67 -->
<g id="node68" class="node">
<title>node67</title>
<ellipse fill="none" stroke="black" cx="65.64" cy="-45" rx="65.79" ry="18"/>
<text text-anchor="middle" x="65.64" y="-41.3" font-family="Times,serif" font-size="14.00">net_util.cpp</text>
</g>
<!-- node67&#45;&gt;node63 -->
<g id="edge133" class="edge">
<title>node67&#45;&gt;node63</title>
<path fill="none" stroke="black" d="M127.1,-38.5C165.73,-34.34 215.72,-28.97 254.82,-24.76"/>
<polygon fill="black" stroke="black" points="255.46,-28.22 265.02,-23.67 254.71,-21.26 255.46,-28.22"/>
</g>
<!-- node87 -->
<g id="node88" class="node">
<title>node87</title>
<ellipse fill="none" stroke="black" cx="318.72" cy="-72" rx="54.69" ry="18"/>
<text text-anchor="middle" x="318.72" y="-68.3" font-family="Times,serif" font-size="14.00">net_util.h</text>
</g>
<!-- node67&#45;&gt;node87 -->
<g id="edge132" class="edge">
<title>node67&#45;&gt;node87</title>
<path fill="none" stroke="black" d="M127.1,-51.5C166.35,-55.72 217.32,-61.2 256.68,-65.44"/>
<polygon fill="black" stroke="black" points="256.37,-68.92 266.68,-66.51 257.11,-61.96 256.37,-68.92"/>
</g>
<!-- node68 -->
<g id="node69" class="node">
<title>node68</title>
<ellipse fill="none" stroke="black" cx="318.72" cy="-946" rx="76.09" ry="18"/>
<text text-anchor="middle" x="318.72" y="-942.3" font-family="Times,serif" font-size="14.00">parse_util.cpp</text>
</g>
<!-- node68&#45;&gt;node32 -->
<g id="edge136" class="edge">
<title>node68&#45;&gt;node32</title>
<path fill="none" stroke="black" d="M382.58,-936.02C418.66,-930.6 464.87,-924.17 506.16,-920 703.66,-900.05 753.42,-892 951.93,-892 951.93,-892 951.93,-892 1238.85,-892 1428.36,-892 1452.62,-1027.72 1535.78,-1198 1582.07,-1292.79 1605.37,-1625.28 1611.41,-1724.71"/>
<polygon fill="black" stroke="black" points="1607.93,-1725.11 1612.02,-1734.88 1614.91,-1724.69 1607.93,-1725.11"/>
</g>
<!-- node68&#45;&gt;node42 -->
<g id="edge135" class="edge">
<title>node68&#45;&gt;node42</title>
<path fill="none" stroke="black" d="M393.49,-942.67C419.04,-939.02 447.05,-932.04 470.16,-919 491.28,-907.08 485.34,-890.43 506.16,-878 526.59,-865.81 551.26,-858.26 574.12,-853.59"/>
<polygon fill="black" stroke="black" points="574.96,-856.99 584.14,-851.7 573.66,-850.11 574.96,-856.99"/>
</g>
<!-- node71 -->
<g id="node72" class="node">
<title>node71</title>
<ellipse fill="none" stroke="black" cx="646.55" cy="-1376" rx="52.79" ry="18"/>
<text text-anchor="middle" x="646.55" y="-1372.3" font-family="Times,serif" font-size="14.00">charconv</text>
</g>
<!-- node68&#45;&gt;node71 -->
<g id="edge134" class="edge">
<title>node68&#45;&gt;node71</title>
<path fill="none" stroke="black" d="M392.57,-941.47C420.66,-943.75 450.66,-951.82 470.16,-973 527.03,-1034.74 449.72,-1286.87 506.16,-1349 525.79,-1370.61 557.1,-1378 585.08,-1379.71"/>
<polygon fill="black" stroke="black" points="585.08,-1383.21 595.2,-1380.1 585.34,-1376.22 585.08,-1383.21"/>
</g>
<!-- node69 -->
<g id="node70" class="node">
<title>node69</title>
<ellipse fill="none" stroke="black" cx="952.93" cy="-624" rx="79.89" ry="18"/>
<text text-anchor="middle" x="952.93" y="-620.3" font-family="Times,serif" font-size="14.00">http_client.cpp</text>
</g>
<!-- node69&#45;&gt;node81 -->
<g id="edge137" class="edge">
<title>node69&#45;&gt;node81</title>
<path fill="none" stroke="black" d="M1022.05,-633.15C1065.44,-638.98 1121.54,-646.51 1165.53,-652.42"/>
<polygon fill="black" stroke="black" points="1165.2,-655.91 1175.58,-653.77 1166.14,-648.97 1165.2,-655.91"/>
</g>
<!-- node70&#45;&gt;node50 -->
<g id="edge138" class="edge">
<title>node70&#45;&gt;node50</title>
<path fill="none" stroke="black" d="M727.28,-975.43C749.18,-979.17 771.21,-987.18 786.94,-1003 848.14,-1064.57 764.04,-1131.21 822.94,-1195 838.84,-1212.23 862.29,-1221.31 884.84,-1225.99"/>
<polygon fill="black" stroke="black" points="884.31,-1229.45 894.77,-1227.79 885.56,-1222.56 884.31,-1229.45"/>
</g>
<!-- node73&#45;&gt;node13 -->
<g id="edge140" class="edge">
<title>node73&#45;&gt;node13</title>
<path fill="none" stroke="black" d="M1032.98,-1848.99C1050.05,-1844.4 1067.56,-1838.24 1082.91,-1830 1102.04,-1819.74 1099.37,-1806.44 1118.91,-1797 1215.31,-1750.41 1266.79,-1816.99 1356.79,-1759 1406.49,-1726.98 1438.26,-1662.63 1453.22,-1625.72"/>
<polygon fill="black" stroke="black" points="1456.6,-1626.67 1456.99,-1616.09 1450.08,-1624.12 1456.6,-1626.67"/>
</g>
<!-- node73&#45;&gt;node18 -->
<g id="edge141" class="edge">
<title>node73&#45;&gt;node18</title>
<path fill="none" stroke="black" d="M1042.36,-1850.44C1056.88,-1845.74 1071.04,-1839.16 1082.91,-1830 1109.36,-1809.58 1092.69,-1784.7 1118.91,-1764 1139,-1748.14 1166.35,-1740.12 1189.66,-1736.08"/>
<polygon fill="black" stroke="black" points="1190.35,-1739.51 1199.7,-1734.53 1189.28,-1732.59 1190.35,-1739.51"/>
</g>
<!-- node74 -->
<g id="node75" class="node">
<title>node74</title>
<ellipse fill="none" stroke="black" cx="1237.85" cy="-1824" rx="83.39" ry="18"/>
<text text-anchor="middle" x="1237.85" y="-1820.3" font-family="Times,serif" font-size="14.00">span_matcher.h</text>
</g>
<!-- node73&#45;&gt;node74 -->
<g id="edge139" class="edge">
<title>node73&#45;&gt;node74</title>
<path fill="none" stroke="black" d="M1041.12,-1850.29C1077.93,-1845.35 1120.51,-1839.63 1156.54,-1834.79"/>
<polygon fill="black" stroke="black" points="1157.07,-1838.25 1166.52,-1833.45 1156.14,-1831.31 1157.07,-1838.25"/>
</g>
<!-- node74&#45;&gt;node13 -->
<g id="edge142" class="edge">
<title>node74&#45;&gt;node13</title>
<path fill="none" stroke="black" d="M1309.3,-1814.66C1326.11,-1809.91 1343.12,-1802.76 1356.79,-1792 1412.02,-1748.53 1442.69,-1668.14 1455.71,-1625.78"/>
<polygon fill="black" stroke="black" points="1459.08,-1626.7 1458.57,-1616.12 1452.37,-1624.71 1459.08,-1626.7"/>
</g>
<!-- node74&#45;&gt;node29 -->
<g id="edge143" class="edge">
<title>node74&#45;&gt;node29</title>
<path fill="none" stroke="black" d="M1321.15,-1824C1341.07,-1824 1362.35,-1824 1382.21,-1824"/>
<polygon fill="black" stroke="black" points="1382.46,-1827.5 1392.46,-1824 1382.46,-1820.5 1382.46,-1827.5"/>
</g>
<!-- node75 -->
<g id="node76" class="node">
<title>node75</title>
<ellipse fill="none" stroke="black" cx="318.72" cy="-1108" rx="64.19" ry="18"/>
<text text-anchor="middle" x="318.72" y="-1104.3" font-family="Times,serif" font-size="14.00">version.cpp</text>
</g>
<!-- node75&#45;&gt;node72 -->
<g id="edge144" class="edge">
<title>node75&#45;&gt;node72</title>
<path fill="none" stroke="black" d="M381.39,-1103.46C439.35,-1099.19 525.63,-1092.83 583.66,-1088.56"/>
<polygon fill="black" stroke="black" points="584.08,-1092.04 593.79,-1087.81 583.56,-1085.06 584.08,-1092.04"/>
</g>
<!-- node76 -->
<g id="node77" class="node">
<title>node76</title>
<ellipse fill="none" stroke="black" cx="646.55" cy="-2106" rx="118.08" ry="18"/>
<text text-anchor="middle" x="646.55" y="-2102.3" font-family="Times,serif" font-size="14.00">propagation_styles.cpp</text>
</g>
<!-- node76&#45;&gt;node85 -->
<g id="edge145" class="edge">
<title>node76&#45;&gt;node85</title>
<path fill="none" stroke="black" d="M765.23,-2106C788.25,-2106 812.39,-2106 835.38,-2106"/>
<polygon fill="black" stroke="black" points="835.5,-2109.5 845.5,-2106 835.5,-2102.5 835.5,-2109.5"/>
</g>
<!-- node78 -->
<g id="node79" class="node">
<title>node78</title>
<ellipse fill="none" stroke="black" cx="318.72" cy="-2123" rx="94.48" ry="18"/>
<text text-anchor="middle" x="318.72" y="-2119.3" font-family="Times,serif" font-size="14.00">span_matcher.cpp</text>
</g>
<!-- node78&#45;&gt;node7 -->
<g id="edge146" class="edge">
<title>node78&#45;&gt;node7</title>
<path fill="none" stroke="black" d="M369.19,-2107.62C403.97,-2093.98 448.08,-2070.33 470.16,-2033 525.42,-1939.6 435.58,-1139.43 506.16,-1057 525.95,-1033.89 559.07,-1026.79 588.06,-1025.63"/>
<polygon fill="black" stroke="black" points="588.17,-1029.13 598.11,-1025.45 588.05,-1022.13 588.17,-1029.13"/>
</g>
<!-- node78&#45;&gt;node21 -->
<g id="edge147" class="edge">
<title>node78&#45;&gt;node21</title>
<path fill="none" stroke="black" d="M377.12,-2108.82C413.92,-2099.89 462.75,-2088.32 506.16,-2079 530.62,-2073.75 557.6,-2068.41 581.25,-2063.89"/>
<polygon fill="black" stroke="black" points="582,-2067.31 591.17,-2062.01 580.69,-2060.44 582,-2067.31"/>
</g>
<!-- node78&#45;&gt;node32 -->
<g id="edge149" class="edge">
<title>node78&#45;&gt;node32</title>
<path fill="none" stroke="black" d="M413.09,-2123.88C433.26,-2127.58 453.5,-2134.32 470.16,-2146 497.52,-2165.18 478.06,-2193.93 506.16,-2212 589.69,-2265.72 852.61,-2244 951.93,-2244 951.93,-2244 951.93,-2244 1238.85,-2244 1473.54,-2244 1580.51,-1884.74 1606.54,-1780.83"/>
<polygon fill="black" stroke="black" points="1609.95,-1781.6 1608.94,-1771.06 1603.15,-1779.94 1609.95,-1781.6"/>
</g>
<!-- node78&#45;&gt;node74 -->
<g id="edge148" class="edge">
<title>node78&#45;&gt;node74</title>
<path fill="none" stroke="black" d="M411.35,-2126.68C431.6,-2130.26 452.32,-2136.23 470.16,-2146 491.43,-2157.65 484.07,-2177 506.16,-2187 564.54,-2213.43 1029.48,-2222.38 1082.91,-2187 1199.91,-2109.54 1228.24,-1923.4 1234.89,-1852.28"/>
<polygon fill="black" stroke="black" points="1238.38,-1852.53 1235.75,-1842.27 1231.4,-1851.93 1238.38,-1852.53"/>
</g>
<!-- node79 -->
<g id="node80" class="node">
<title>node79</title>
<ellipse fill="none" stroke="black" cx="65.64" cy="-1952" rx="57.69" ry="18"/>
<text text-anchor="middle" x="65.64" y="-1948.3" font-family="Times,serif" font-size="14.00">tracer.cpp</text>
</g>
<!-- node79&#45;&gt;node4 -->
<g id="edge150" class="edge">
<title>node79&#45;&gt;node4</title>
<path fill="none" stroke="black" d="M68.89,-1970.3C77.6,-2037.89 111.41,-2271.9 167.29,-2317 196.18,-2340.32 417.53,-2344.24 548.75,-2344.48"/>
<polygon fill="black" stroke="black" points="548.81,-2347.98 558.81,-2344.5 548.82,-2340.98 548.81,-2347.98"/>
</g>
<!-- node79&#45;&gt;node8 -->
<g id="edge154" class="edge">
<title>node79&#45;&gt;node8</title>
<path fill="none" stroke="black" d="M67.71,-1969.99C72.72,-2047.6 96.68,-2352.25 167.29,-2409 227.52,-2457.41 452.87,-2429.63 571.48,-2410.85"/>
<polygon fill="black" stroke="black" points="572.25,-2414.27 581.57,-2409.23 571.14,-2407.36 572.25,-2414.27"/>
</g>
<!-- node79&#45;&gt;node10 -->
<g id="edge157" class="edge">
<title>node79&#45;&gt;node10</title>
<path fill="none" stroke="black" d="M70.77,-1969.98C80.58,-2008.69 108.97,-2100.42 167.29,-2150 233.79,-2206.53 492.59,-2260.92 599.23,-2281.43"/>
<polygon fill="black" stroke="black" points="598.88,-2284.93 609.36,-2283.36 600.19,-2278.05 598.88,-2284.93"/>
</g>
<!-- node79&#45;&gt;node15 -->
<g id="edge155" class="edge">
<title>node79&#45;&gt;node15</title>
<path fill="none" stroke="black" d="M67.38,-1970.25C72.41,-2091.26 103.57,-2774.92 167.29,-2839 283.62,-2955.99 504.74,-2926.5 600.01,-2906.83"/>
<polygon fill="black" stroke="black" points="600.86,-2910.23 609.91,-2904.73 599.4,-2903.38 600.86,-2910.23"/>
</g>
<!-- node79&#45;&gt;node21 -->
<g id="edge162" class="edge">
<title>node79&#45;&gt;node21</title>
<path fill="none" stroke="black" d="M81.64,-1969.44C99.69,-1989.02 132.01,-2019.77 167.29,-2033 306.17,-2085.07 483.89,-2073.76 578.77,-2062.15"/>
<polygon fill="black" stroke="black" points="579.33,-2065.61 588.81,-2060.88 578.45,-2058.66 579.33,-2065.61"/>
</g>
<!-- node79&#45;&gt;node31 -->
<g id="edge156" class="edge">
<title>node79&#45;&gt;node31</title>
<path fill="none" stroke="black" d="M66.5,-1933.95C66.14,-1837.48 69.72,-1383.66 167.29,-1295 222.21,-1245.09 433.03,-1251.65 555.66,-1260.2"/>
<polygon fill="black" stroke="black" points="555.56,-1263.7 565.79,-1260.92 556.06,-1256.72 555.56,-1263.7"/>
</g>
<!-- node79&#45;&gt;node34 -->
<g id="edge158" class="edge">
<title>node79&#45;&gt;node34</title>
<path fill="none" stroke="black" d="M67.39,-1933.97C71.18,-1851.8 91.25,-1513.9 167.29,-1449 223.16,-1401.32 429.93,-1410.43 552.55,-1420.63"/>
<polygon fill="black" stroke="black" points="552.42,-1424.14 562.69,-1421.5 553.02,-1417.16 552.42,-1424.14"/>
</g>
<!-- node79&#45;&gt;node36 -->
<g id="edge159" class="edge">
<title>node79&#45;&gt;node36</title>
<path fill="none" stroke="black" d="M66.5,-1933.95C65.36,-1774.96 60.8,-616.72 167.29,-512 265.51,-415.41 679.19,-408.16 786.94,-494 842.93,-538.61 784.84,-590.39 822.94,-651 845.74,-687.28 885.91,-716.32 915.38,-734.2"/>
<polygon fill="black" stroke="black" points="913.77,-737.31 924.16,-739.38 917.33,-731.28 913.77,-737.31"/>
</g>
<!-- node79&#45;&gt;node40 -->
<g id="edge152" class="edge">
<title>node79&#45;&gt;node40</title>
<path fill="none" stroke="black" d="M66.98,-1970.05C69.19,-2073.14 84.26,-2587.24 167.29,-2717 192.02,-2755.65 238.69,-2781.43 273.52,-2796.26"/>
<polygon fill="black" stroke="black" points="272.43,-2799.6 283.01,-2800.16 275.09,-2793.12 272.43,-2799.6"/>
</g>
<!-- node79&#45;&gt;node42 -->
<g id="edge161" class="edge">
<title>node79&#45;&gt;node42</title>
<path fill="none" stroke="black" d="M66.92,-1933.68C69.15,-1797.18 86.34,-941.8 167.29,-865 195.83,-837.92 443.85,-840.51 571.02,-843.69"/>
<polygon fill="black" stroke="black" points="570.99,-847.19 581.08,-843.95 571.17,-840.19 570.99,-847.19"/>
</g>
<!-- node79&#45;&gt;node56 -->
<g id="edge160" class="edge">
<title>node79&#45;&gt;node56</title>
<path fill="none" stroke="black" d="M81.56,-1934.35C99.54,-1914.57 131.79,-1883.64 167.29,-1871 304.46,-1822.17 478.12,-1838.83 573.91,-1854.17"/>
<polygon fill="black" stroke="black" points="573.63,-1857.67 584.07,-1855.84 574.77,-1850.76 573.63,-1857.67"/>
</g>
<!-- node79&#45;&gt;node60 -->
<g id="edge151" class="edge">
<title>node79&#45;&gt;node60</title>
<path fill="none" stroke="black" d="M66.86,-1970.12C68.35,-2064.04 79.91,-2494.69 167.29,-2587 195.14,-2616.43 447.23,-2659.22 573.77,-2679.1"/>
<polygon fill="black" stroke="black" points="573.34,-2682.57 583.76,-2680.66 574.42,-2675.66 573.34,-2682.57"/>
</g>
<!-- node79&#45;&gt;node77 -->
<g id="edge163" class="edge">
<title>node79&#45;&gt;node77</title>
<path fill="none" stroke="black" d="M66.94,-1933.85C70.09,-1748.37 98.33,-202.24 167.29,-137 225.55,-81.88 467.51,-125.15 583.28,-149.83"/>
<polygon fill="black" stroke="black" points="582.57,-153.26 593.08,-151.94 584.04,-146.41 582.57,-153.26"/>
</g>
<!-- node79&#45;&gt;node87 -->
<g id="edge153" class="edge">
<title>node79&#45;&gt;node87</title>
<path fill="none" stroke="black" d="M67,-1933.89C70.79,-1747.14 104.42,-177.47 167.29,-104 188.5,-79.21 223.74,-70.8 254.77,-68.77"/>
<polygon fill="black" stroke="black" points="255.28,-72.25 265.11,-68.31 254.97,-65.26 255.28,-72.25"/>
</g>
<!-- node80 -->
<g id="node81" class="node">
<title>node80</title>
<ellipse fill="none" stroke="black" cx="318.72" cy="-272" rx="139.98" ry="18"/>
<text text-anchor="middle" x="318.72" y="-268.3" font-family="Times,serif" font-size="14.00">default_http_client_curl.cpp</text>
</g>
<!-- node80&#45;&gt;node25 -->
<g id="edge164" class="edge">
<title>node80&#45;&gt;node25</title>
<path fill="none" stroke="black" d="M405.33,-257.81C453.03,-249.91 512.25,-240.09 559.95,-232.19"/>
<polygon fill="black" stroke="black" points="560.65,-235.62 569.95,-230.53 559.51,-228.71 560.65,-235.62"/>
</g>
<!-- node80&#45;&gt;node37 -->
<g id="edge165" class="edge">
<title>node80&#45;&gt;node37</title>
<path fill="none" stroke="black" d="M458.85,-272C508.75,-272 561.7,-272 598.41,-272"/>
<polygon fill="black" stroke="black" points="598.79,-275.5 608.79,-272 598.79,-268.5 598.79,-275.5"/>
</g>
<!-- node81&#45;&gt;node13 -->
<g id="edge166" class="edge">
<title>node81&#45;&gt;node13</title>
<path fill="none" stroke="black" d="M1246.47,-679.9C1267.08,-728.95 1324.51,-869.95 1356.79,-992 1414.69,-1210.86 1449.71,-1482.68 1460.05,-1569.77"/>
<polygon fill="black" stroke="black" points="1456.6,-1570.39 1461.24,-1579.91 1463.55,-1569.57 1456.6,-1570.39"/>
</g>
<!-- node81&#45;&gt;node32 -->
<g id="edge167" class="edge">
<title>node81&#45;&gt;node32</title>
<path fill="none" stroke="black" d="M1290,-650.04C1356.8,-637.78 1472.65,-628.65 1535.78,-694 1609.41,-770.22 1613.09,-1564.06 1613.08,-1724.74"/>
<polygon fill="black" stroke="black" points="1609.58,-1724.79 1613.07,-1734.79 1616.58,-1724.79 1609.58,-1724.79"/>
</g>
<!-- node82 -->
<g id="node83" class="node">
<title>node82</title>
<ellipse fill="none" stroke="black" cx="952.93" cy="-2290" rx="53.89" ry="18"/>
<text text-anchor="middle" x="952.93" y="-2286.3" font-family="Times,serif" font-size="14.00">clock.cpp</text>
</g>
<!-- node82&#45;&gt;node35 -->
<g id="edge168" class="edge">
<title>node82&#45;&gt;node35</title>
<path fill="none" stroke="black" d="M1007.14,-2290C1058.06,-2290 1134.37,-2290 1184.87,-2290"/>
<polygon fill="black" stroke="black" points="1184.93,-2293.5 1194.93,-2290 1184.93,-2286.5 1184.93,-2293.5"/>
</g>
<!-- node83&#45;&gt;node23 -->
<g id="edge169" class="edge">
<title>node83&#45;&gt;node23</title>
<path fill="none" stroke="black" d="M746.52,-2561.34C846.18,-2562.7 1000.37,-2564.79 1109.19,-2566.27"/>
<polygon fill="black" stroke="black" points="1109.19,-2569.77 1119.24,-2566.4 1109.29,-2562.77 1109.19,-2569.77"/>
</g>
<!-- node84 -->
<g id="node85" class="node">
<title>node84</title>
<ellipse fill="none" stroke="black" cx="318.72" cy="-1714" rx="116.18" ry="18"/>
<text text-anchor="middle" x="318.72" y="-1710.3" font-family="Times,serif" font-size="14.00">collector_response.cpp</text>
</g>
<!-- node84&#45;&gt;node54 -->
<g id="edge170" class="edge">
<title>node84&#45;&gt;node54</title>
<path fill="none" stroke="black" d="M433.68,-1711.2C465.31,-1710.43 499.65,-1709.58 531.3,-1708.81"/>
<polygon fill="black" stroke="black" points="531.56,-1712.3 541.47,-1708.56 531.39,-1705.3 531.56,-1712.3"/>
</g>
<!-- node86 -->
<g id="node87" class="node">
<title>node86</title>
<ellipse fill="none" stroke="black" cx="646.55" cy="-2160" rx="60.39" ry="18"/>
<text text-anchor="middle" x="646.55" y="-2156.3" font-family="Times,serif" font-size="14.00">limiter.cpp</text>
</g>
<!-- node86&#45;&gt;node14 -->
<g id="edge171" class="edge">
<title>node86&#45;&gt;node14</title>
<path fill="none" stroke="black" d="M707.32,-2160C760.99,-2160 839.35,-2160 892.82,-2160"/>
<polygon fill="black" stroke="black" points="892.83,-2163.5 902.83,-2160 892.83,-2156.5 892.83,-2163.5"/>
</g>
<!-- node88 -->
<g id="node89" class="node">
<title>node88</title>
<ellipse fill="none" stroke="black" cx="1464.29" cy="-2782" rx="53.09" ry="18"/>
<text text-anchor="middle" x="1464.29" y="-2778.3" font-family="Times,serif" font-size="14.00">error.cpp</text>
</g>
<!-- node88&#45;&gt;node32 -->
<g id="edge172" class="edge">
<title>node88&#45;&gt;node32</title>
<path fill="none" stroke="black" d="M1507.75,-2771.26C1518.54,-2766.5 1528.99,-2759.69 1535.78,-2750 1592.8,-2668.59 1609.62,-1935.02 1612.53,-1781.21"/>
<polygon fill="black" stroke="black" points="1616.03,-1781.21 1612.72,-1771.15 1609.03,-1781.08 1616.03,-1781.21"/>
</g>
<!-- node89&#45;&gt;node13 -->
<g id="edge174" class="edge">
<title>node89&#45;&gt;node13</title>
<path fill="none" stroke="black" d="M1035.76,-1665.15C1137,-1649.25 1307.24,-1622.51 1399.39,-1608.04"/>
<polygon fill="black" stroke="black" points="1400.08,-1611.47 1409.42,-1606.46 1399,-1604.55 1400.08,-1611.47"/>
</g>
<!-- node89&#45;&gt;node18 -->
<g id="edge175" class="edge">
<title>node89&#45;&gt;node18</title>
<path fill="none" stroke="black" d="M1027.15,-1691.98C1079.41,-1701.95 1147.99,-1715.04 1192.25,-1723.49"/>
<polygon fill="black" stroke="black" points="1191.65,-1726.94 1202.13,-1725.37 1192.96,-1720.06 1191.65,-1726.94"/>
</g>
<!-- node89&#45;&gt;node74 -->
<g id="edge173" class="edge">
<title>node89&#45;&gt;node74</title>
<path fill="none" stroke="black" d="M988.5,-1695.22C1014.52,-1708.22 1051.03,-1726.58 1082.91,-1743 1121.6,-1762.92 1165.51,-1786.08 1196.5,-1802.52"/>
<polygon fill="black" stroke="black" points="1195.21,-1805.8 1205.68,-1807.39 1198.49,-1799.61 1195.21,-1805.8"/>
</g>
<!-- node90&#45;&gt;node36 -->
<g id="edge176" class="edge">
<title>node90&#45;&gt;node36</title>
<path fill="none" stroke="black" d="M718.14,-754C771.71,-754 844.41,-754 894.44,-754"/>
<polygon fill="black" stroke="black" points="894.45,-757.5 904.45,-754 894.45,-750.5 894.45,-757.5"/>
</g>
<!-- node91 -->
<g id="node92" class="node">
<title>node91</title>
<ellipse fill="none" stroke="black" cx="318.72" cy="-1192" rx="50.09" ry="18"/>
<text text-anchor="middle" x="318.72" y="-1188.3" font-family="Times,serif" font-size="14.00">tags.cpp</text>
</g>
<!-- node91&#45;&gt;node10 -->
<g id="edge178" class="edge">
<title>node91&#45;&gt;node10</title>
<path fill="none" stroke="black" d="M354.31,-1204.75C390.36,-1220.08 445.03,-1249.58 470.16,-1295 566.21,-1468.58 413.26,-2011.71 506.16,-2187 527.9,-2228.01 574.06,-2257 607.31,-2273.56"/>
<polygon fill="black" stroke="black" points="606.21,-2276.92 616.74,-2278.1 609.25,-2270.61 606.21,-2276.92"/>
</g>
<!-- node91&#45;&gt;node42 -->
<g id="edge177" class="edge">
<title>node91&#45;&gt;node42</title>
<path fill="none" stroke="black" d="M366.39,-1186.41C400.2,-1179.85 444.35,-1165.66 470.16,-1135 524.4,-1070.59 461.24,-1020.21 506.16,-949 529.54,-911.94 571.43,-883.71 603.2,-866.26"/>
<polygon fill="black" stroke="black" points="605.11,-869.21 612.28,-861.41 601.81,-863.03 605.11,-869.21"/>
</g>
<!-- node92 -->
<g id="node93" class="node">
<title>node92</title>
<ellipse fill="none" stroke="black" cx="318.72" cy="-1660" rx="98.58" ry="18"/>
<text text-anchor="middle" x="318.72" y="-1656.3" font-family="Times,serif" font-size="14.00">trace_segment.cpp</text>
</g>
<!-- node92&#45;&gt;node4 -->
<g id="edge185" class="edge">
<title>node92&#45;&gt;node4</title>
<path fill="none" stroke="black" d="M417.25,-1658.63C437.35,-1663.06 456.52,-1671.61 470.16,-1687 563.17,-1791.95 413.88,-2211.42 506.16,-2317 517.35,-2329.8 532.62,-2337.66 548.97,-2342.32"/>
<polygon fill="black" stroke="black" points="548.15,-2345.72 558.7,-2344.7 549.82,-2338.92 548.15,-2345.72"/>
</g>
<!-- node92&#45;&gt;node5 -->
<g id="edge188" class="edge">
<title>node92&#45;&gt;node5</title>
<path fill="none" stroke="black" d="M349.29,-1642.82C380.81,-1623.82 431.44,-1591.33 470.16,-1557 488.31,-1540.91 485.34,-1528.43 506.16,-1516 525.67,-1504.36 549.04,-1496.95 571.01,-1492.24"/>
<polygon fill="black" stroke="black" points="571.86,-1495.64 580.99,-1490.26 570.5,-1488.77 571.86,-1495.64"/>
</g>
<!-- node92&#45;&gt;node8 -->
<g id="edge181" class="edge">
<title>node92&#45;&gt;node8</title>
<path fill="none" stroke="black" d="M417.3,-1658.58C437.4,-1663.02 456.56,-1671.58 470.16,-1687 570.86,-1801.14 406.25,-2256.17 506.16,-2371 518.5,-2385.19 535.87,-2393.32 554.17,-2397.74"/>
<polygon fill="black" stroke="black" points="553.6,-2401.19 564.1,-2399.78 555.01,-2394.34 553.6,-2401.19"/>
</g>
<!-- node92&#45;&gt;node10 -->
<g id="edge189" class="edge">
<title>node92&#45;&gt;node10</title>
<path fill="none" stroke="black" d="M417.48,-1658.86C437.44,-1663.31 456.5,-1671.81 470.16,-1687 544.66,-1769.82 452.45,-2089.41 506.16,-2187 528.54,-2227.67 574.57,-2256.72 607.61,-2273.4"/>
<polygon fill="black" stroke="black" points="606.46,-2276.73 616.98,-2277.97 609.53,-2270.44 606.46,-2276.73"/>
</g>
<!-- node92&#45;&gt;node21 -->
<g id="edge182" class="edge">
<title>node92&#45;&gt;node21</title>
<path fill="none" stroke="black" d="M417.49,-1659.29C437.33,-1663.75 456.33,-1672.14 470.16,-1687 573.1,-1797.57 403.99,-1913.72 506.16,-2025 522.65,-2042.95 547.19,-2051.06 571.11,-2054.26"/>
<polygon fill="black" stroke="black" points="570.98,-2057.77 581.29,-2055.34 571.72,-2050.81 570.98,-2057.77"/>
</g>
<!-- node92&#45;&gt;node32 -->
<g id="edge190" class="edge">
<title>node92&#45;&gt;node32</title>
<path fill="none" stroke="black" d="M407.96,-1667.77C526.46,-1676.32 728.87,-1683.74 786.94,-1641 825.32,-1612.75 786.57,-1570.8 822.94,-1540 1004.87,-1385.89 1124.07,-1435.11 1356.79,-1487 1442.56,-1506.13 1474.82,-1507.71 1535.78,-1571 1578.12,-1614.95 1598.91,-1685.63 1607.66,-1724.72"/>
<polygon fill="black" stroke="black" points="1604.31,-1725.81 1609.81,-1734.86 1611.16,-1724.35 1604.31,-1725.81"/>
</g>
<!-- node92&#45;&gt;node34 -->
<g id="edge183" class="edge">
<title>node92&#45;&gt;node34</title>
<path fill="none" stroke="black" d="M356.18,-1643.34C390.08,-1626.15 439.77,-1596.32 470.16,-1557 499.05,-1519.63 470.29,-1487.73 506.16,-1457 517.04,-1447.68 530.15,-1441.21 543.94,-1436.76"/>
<polygon fill="black" stroke="black" points="544.92,-1440.12 553.56,-1433.99 542.99,-1433.39 544.92,-1440.12"/>
</g>
<!-- node92&#45;&gt;node36 -->
<g id="edge184" class="edge">
<title>node92&#45;&gt;node36</title>
<path fill="none" stroke="black" d="M341.04,-1642.27C374.07,-1615.88 440.68,-1566.93 506.16,-1544 565.46,-1523.24 742.96,-1555.87 786.94,-1511 844.76,-1452 805.77,-1221.81 822.94,-1141 852.43,-1002.21 914.76,-843.63 940.47,-781.24"/>
<polygon fill="black" stroke="black" points="943.81,-782.31 944.41,-771.73 937.35,-779.63 943.81,-782.31"/>
</g>
<!-- node92&#45;&gt;node50 -->
<g id="edge179" class="edge">
<title>node92&#45;&gt;node50</title>
<path fill="none" stroke="black" d="M355.71,-1643.15C392.68,-1626.5 452.28,-1601.48 506.16,-1587 567.12,-1570.61 742.49,-1588.82 786.94,-1544 865.67,-1464.6 757.62,-1385.76 822.94,-1295 840.68,-1270.35 870.51,-1254.47 897.01,-1244.59"/>
<polygon fill="black" stroke="black" points="898.33,-1247.83 906.6,-1241.21 896.01,-1241.23 898.33,-1247.83"/>
</g>
<!-- node92&#45;&gt;node54 -->
<g id="edge180" class="edge">
<title>node92&#45;&gt;node54</title>
<path fill="none" stroke="black" d="M397.35,-1670.96C444.55,-1677.62 505.04,-1686.16 554.49,-1693.14"/>
<polygon fill="black" stroke="black" points="554.15,-1696.63 564.54,-1694.56 555.13,-1689.7 554.15,-1696.63"/>
</g>
<!-- node92&#45;&gt;node56 -->
<g id="edge187" class="edge">
<title>node92&#45;&gt;node56</title>
<path fill="none" stroke="black" d="M417.73,-1660.95C437.09,-1665.42 455.82,-1673.39 470.16,-1687 521.14,-1735.39 455.52,-1792.26 506.16,-1841 518.71,-1853.07 534.94,-1860.54 551.87,-1865.02"/>
<polygon fill="black" stroke="black" points="551.37,-1868.5 561.9,-1867.33 552.94,-1861.68 551.37,-1868.5"/>
</g>
<!-- node92&#45;&gt;node71 -->
<g id="edge186" class="edge">
<title>node92&#45;&gt;node71</title>
<path fill="none" stroke="black" d="M358.56,-1643.46C393.15,-1626.71 442.46,-1597.49 470.16,-1557 509.85,-1498.99 455.52,-1451.74 506.16,-1403 526.71,-1383.22 557.16,-1375.81 584.37,-1373.62"/>
<polygon fill="black" stroke="black" points="584.83,-1377.1 594.61,-1373.02 584.42,-1370.11 584.83,-1377.1"/>
</g>
<!-- node93 -->
<g id="node94" class="node">
<title>node93</title>
<ellipse fill="none" stroke="black" cx="318.72" cy="-670" rx="126.18" ry="18"/>
<text text-anchor="middle" x="318.72" y="-666.3" font-family="Times,serif" font-size="14.00">span_sampler_config.cpp</text>
</g>
<!-- node93&#45;&gt;node7 -->
<g id="edge193" class="edge">
<title>node93&#45;&gt;node7</title>
<path fill="none" stroke="black" d="M411.5,-682.3C433.7,-689.56 455.28,-701.01 470.16,-719 551.25,-817.05 419.18,-910.15 506.16,-1003 526.57,-1024.79 558.87,-1032 587.24,-1033.56"/>
<polygon fill="black" stroke="black" points="587.38,-1037.06 597.49,-1033.89 587.61,-1030.07 587.38,-1037.06"/>
</g>
<!-- node93&#45;&gt;node13 -->
<g id="edge194" class="edge">
<title>node93&#45;&gt;node13</title>
<path fill="none" stroke="black" d="M400.21,-656.17C424.88,-648.75 450.63,-637.38 470.16,-620 498.38,-594.89 474.29,-563.28 506.16,-543 611.44,-476 685.7,-470.03 786.94,-543 827.98,-572.58 786.5,-615.9 822.94,-651 909.63,-734.52 980.77,-663.3 1082.91,-727 1236.1,-822.54 1276.29,-865.4 1356.79,-1027 1451.87,-1217.87 1462.54,-1483 1463.37,-1569.49"/>
<polygon fill="black" stroke="black" points="1459.87,-1569.61 1463.43,-1579.59 1466.87,-1569.57 1459.87,-1569.61"/>
</g>
<!-- node93&#45;&gt;node36 -->
<g id="edge191" class="edge">
<title>node93&#45;&gt;node36</title>
<path fill="none" stroke="black" d="M416.17,-658.48C513.09,-650.64 665.14,-648.69 786.94,-694 805.93,-701.07 804.7,-713.14 822.94,-722 846.27,-733.33 873.99,-740.88 897.74,-745.79"/>
<polygon fill="black" stroke="black" points="897.17,-749.24 907.65,-747.73 898.52,-742.37 897.17,-749.24"/>
</g>
<!-- node93&#45;&gt;node61 -->
<g id="edge195" class="edge">
<title>node93&#45;&gt;node61</title>
<path fill="none" stroke="black" d="M378.54,-654.15C406.88,-645.59 440.97,-633.91 470.16,-620 487.3,-611.83 488.53,-604.04 506.16,-597 524.96,-589.49 546.04,-584.02 566.01,-580.06"/>
<polygon fill="black" stroke="black" points="566.84,-583.46 576.02,-578.17 565.54,-576.58 566.84,-583.46"/>
</g>
<!-- node93&#45;&gt;node73 -->
<g id="edge192" class="edge">
<title>node93&#45;&gt;node73</title>
<path fill="none" stroke="black" d="M420.56,-680.66C556.06,-695.22 780.78,-720.28 786.94,-727 867.28,-814.72 758.86,-1696.78 822.94,-1797 836.59,-1818.35 859.57,-1832.98 882.38,-1842.86"/>
<polygon fill="black" stroke="black" points="881.19,-1846.15 891.78,-1846.68 883.83,-1839.67 881.19,-1846.15"/>
</g>
</g>
</svg>
